<svg id="Слой_1" data-name="Слой 1" xmlns="http://www.w3.org/2000/svg" viewBox="0 0 1312.37 445.38"><defs><style>.cls-1{fill:#3d2b1c;}.cls-2{fill:#7e1321;}</style></defs><title>Монтажная область 2</title><path class="cls-1" d="M207.59,396.28l7.36-.69a24,24,0,0,1,9.05.62,13,13,0,0,1,5.9,3.52,15.44,15.44,0,0,1,3.36,5.91,36.93,36.93,0,0,1,1.53,7.8,41.51,41.51,0,0,1,0,8.43,16.55,16.55,0,0,1-2.19,6.74,13.27,13.27,0,0,1-5,4.68,21.66,21.66,0,0,1-8.52,2.29l-13.84,1.29-6.43-69.3L226.38,365l.51,5.57-21.5,2Zm3.16,34.05,7.26-.67a14.24,14.24,0,0,0,6-1.71,9.51,9.51,0,0,0,3.4-3.42,11.22,11.22,0,0,0,1.37-4.73,33.81,33.81,0,0,0-.08-5.75,26.66,26.66,0,0,0-1.07-5.55,10.86,10.86,0,0,0-2.35-4.19,9.07,9.07,0,0,0-4-2.48,15.56,15.56,0,0,0-6.12-.43l-7.07.65Z"/><path class="cls-1" d="M269.79,376.26l-15.9,56.21-5.68.47-5.76-69.36,6.08-.51,4.53,54.62.41.06,15.59-56.38,5.88-.49,5.76,69.36-6.08.51-4.53-54.52Z"/><path class="cls-1" d="M323.75,409.78q.64,8.78-2.95,13.6t-11.55,5.41q-8,.58-12.1-3.42t-4.7-11.69l-2.68-36.5a29.69,29.69,0,0,1,.29-7,15.41,15.41,0,0,1,2.21-5.93,12.6,12.6,0,0,1,4.59-4.2,17.76,17.76,0,0,1,7.3-1.94,19.88,19.88,0,0,1,7.6.7,11.35,11.35,0,0,1,5.09,3.24,15.06,15.06,0,0,1,3,5.39,30.69,30.69,0,0,1,1.33,7.17ZM315,374.12a17.44,17.44,0,0,0-.81-4.15,10.23,10.23,0,0,0-1.84-3.42,8,8,0,0,0-3.11-2.28,9.84,9.84,0,0,0-4.59-.62,8.43,8.43,0,0,0-4.67,1.6,9.25,9.25,0,0,0-2.74,3.36,13.4,13.4,0,0,0-1.24,4.25,21.44,21.44,0,0,0-.13,4.27l2.65,36.2a13.93,13.93,0,0,0,.83,3.85,10.13,10.13,0,0,0,1.94,3.27,8.08,8.08,0,0,0,3.15,2.17,10.06,10.06,0,0,0,4.48.58c3.51-.26,5.9-1.57,7.19-3.94a14.84,14.84,0,0,0,1.59-8.34Z"/><path class="cls-1" d="M340.56,439.1l-5.49.34-1.16-18.36,3.46-.62a18.39,18.39,0,0,0,2.39-3.41,14.83,14.83,0,0,0,1.47-4.55,46.7,46.7,0,0,0,.58-6.7c.06-2.64,0-5.9-.07-9.76l-1.52-39.89L370,354.27,374,418.35l3.7-.24,1.17,18.56-5.49.35-.83-13.17-32.84,2.07Zm27.37-20.37-3.7-58.48-18.06,1.14,1.26,34.33a111.8,111.8,0,0,1-.19,14.41,26.58,26.58,0,0,1-2.77,10.08Z"/><path class="cls-1" d="M412.35,366.88l-17.58,55.71-5.69.3-3.68-69.51,6.09-.32,2.9,54.72.4.08L412.06,352l5.89-.31,3.68,69.5-6.09.33-2.89-54.63Z"/><path class="cls-1" d="M460.13,419.43l-1.43-32.87-19.09.83L441,420.26l-6.09.27-3-69.54,6.09-.26L439.38,382l19.08-.83L457.1,349.9l6.1-.27,3,69.54Z"/><path class="cls-1" d="M507.64,417.69,503.37,401l-17.29.59-3,16.92-5.8.2,12.61-70.08,6.2-.21,17.67,69Zm-14.52-58.94-2.73,16.9-3.51,20.13,15.19-.52-4.89-20-3.76-16.48Z"/><path class="cls-1" d="M561.12,363.66c-.31.81-.75,2-1.31,3.59s-1.14,3.24-1.74,5-1.18,3.41-1.78,5-1,2.78-1.26,3.58l-.61,1.77c-.35,1-.77,2.13-1.27,3.48s-1,2.79-1.65,4.34-1.14,3-1.65,4.34-.94,2.51-1.31,3.48-.6,1.57-.66,1.77l-3.4.08c-.36-.86-.9-2.15-1.64-3.86s-1.52-3.53-2.33-5.45-1.59-3.73-2.33-5.45-1.29-3-1.64-3.86l-6.8-16.84h-.4L530.58,417l-6.1.15-1.65-69.58,6.2-.15q.63,1.49,1.91,4.56c.85,2,1.73,4.21,2.65,6.48s1.81,4.45,2.66,6.49,1.45,3.57,1.8,4.56l7.76,19.22h.3c.31-.94.78-2.32,1.4-4.14s1.3-3.73,2-5.75,1.41-3.95,2.06-5.8,1.14-3.24,1.45-4.18c.06-.2.3-.88.71-2s.89-2.49,1.45-4l1.83-5q1-2.73,1.78-5t1.41-4c.4-1.11.64-1.8.7-2.07l6.3-.14,1.65,69.58-6.1.14-1.25-52.59Z"/><path class="cls-1" d="M607.68,360.84l-19.78,55-5.7.07-.91-69.59,6.1-.08.72,54.79.4.1L608,345.94l5.9-.08.91,69.59-6.1.08L608,360.84Z"/><path class="cls-1" d="M632.13,345.76l.17,24.4q0,6.19,2.66,8.58t8.42,2.34a23.39,23.39,0,0,0,3.89-.43,20.45,20.45,0,0,0,4.3-1.23l-.24-33.8,6.1,0,.49,69.6-6.1,0-.3-30.9a20.49,20.49,0,0,1-4.68,1.24A34.59,34.59,0,0,1,642,386a23.56,23.56,0,0,1-6.43-.75,11.68,11.68,0,0,1-4.86-2.62,12.24,12.24,0,0,1-3.12-4.88,22,22,0,0,1-1.15-7.44l-.17-24.5Z"/><path class="cls-1" d="M671.21,415.19l.5-69.6,29.1.21,0,5.6-23-.16-.18,25.7,20.1.14,0,5.6-20.1-.14-.2,27.09,23,.17,0,5.6Z"/><path class="cls-1" d="M726.84,345.44q7.29.09,11.25,4.14t3.85,11.35l-6.21,1.12c.11-3.6-.62-6.32-2.2-8.18A10,10,0,0,0,722.3,352a8.42,8.42,0,0,0-2.88,2.62,11.64,11.64,0,0,0-1.65,3.74,18.78,18.78,0,0,0-.55,4.31l-.46,37.22a15.66,15.66,0,0,0,.45,4,10,10,0,0,0,1.56,3.48,8,8,0,0,0,2.82,2.44,9.35,9.35,0,0,0,4.34,1,8.81,8.81,0,0,0,6.63-2.47c1.68-1.68,2.59-4.45,2.7-8.31l6.29,1.17q-.3,7.71-4.5,11.5T726,416.33q-7.61-.09-11.5-4.29t-3.8-12l.45-36.7a29.72,29.72,0,0,1,.89-7,15.93,15.93,0,0,1,2.67-5.71,12.71,12.71,0,0,1,4.8-3.84A16.57,16.57,0,0,1,726.84,345.44Z"/><path class="cls-1" d="M753,416l1.48-69.58,6.1.13L760,377.36l5.6.12a17.15,17.15,0,0,0,3.35-.28,8.89,8.89,0,0,0,3.43-1.42,11.56,11.56,0,0,0,3.07-3.12,17.19,17.19,0,0,0,2.27-5.39L783,347.05l5.6.11-4.93,20.07a27.3,27.3,0,0,1-3.63,8.51,10.55,10.55,0,0,1-5.65,4.47,10.48,10.48,0,0,1,6.35,5,28.75,28.75,0,0,1,3.06,8.88l4.52,22.73-6.2-.13-4.24-21.89a20.26,20.26,0,0,0-1.93-5.69,11.19,11.19,0,0,0-2.73-3.41,8.32,8.32,0,0,0-3.36-1.68,17.49,17.49,0,0,0-3.74-.47l-6.3-.14-.7,32.79Z"/><path class="cls-1" d="M827,363.21l-22.17,54-5.7-.18,2.14-69.57,6.1.19-1.69,54.78.4.11,21.88-54.25,5.9.18-2.15,69.57-6.09-.19,1.68-54.68Z"/><path class="cls-1" d="M873.29,365,850.6,418.78l-5.69-.23,2.8-69.55,6.1.25L851.6,404l.39.11,22.4-54,5.9.24-2.81,69.54-6.09-.25,2.2-54.65Zm-17-29.11a9,9,0,0,0,2.25,4.89,6.64,6.64,0,0,0,5,2.4,7,7,0,0,0,5.33-1.88,8.16,8.16,0,0,0,2.55-4.81l5,.21a15,15,0,0,1-1.16,3.9,12.34,12.34,0,0,1-2.5,3.7,11.89,11.89,0,0,1-4,2.7,12.44,12.44,0,0,1-5.44.88,13.2,13.2,0,0,1-5.6-1.33,11.08,11.08,0,0,1-3.73-3,12.38,12.38,0,0,1-2.1-3.89,13.83,13.83,0,0,1-.69-4Z"/><path class="cls-1" d="M940.26,423l3.49-63.7-18.27-1L922,422l-6.09-.34,3.82-69.49,30.45,1.67-3.81,69.5Z"/><path class="cls-1" d="M978.14,355.6a23.26,23.26,0,0,1,8.57,1.95,12.18,12.18,0,0,1,5.14,4.39,16.33,16.33,0,0,1,2.35,6.56,40.75,40.75,0,0,1,.27,8.39,39.68,39.68,0,0,1-1.33,8.13,16.91,16.91,0,0,1-3.22,6.36,13.27,13.27,0,0,1-5.84,3.93,22.6,22.6,0,0,1-9.06,1l-7.32-.46-1.83,28.74-6.09-.39,4.44-69.46Zm-10.08,34.63,7,.44a15.36,15.36,0,0,0,6.25-.65,9.09,9.09,0,0,0,4-2.76,11.54,11.54,0,0,0,2.19-4.59,34,34,0,0,0,.89-6,35.19,35.19,0,0,0-.08-5.84,11.26,11.26,0,0,0-1.5-4.77,9.29,9.29,0,0,0-3.54-3.34,14.35,14.35,0,0,0-6.11-1.55l-7.19-.46Z"/><path class="cls-1" d="M1035.12,412.11q-.64,8.77-4.91,13T1018,428.8q-7.95-.58-11.47-5.15t-2.95-12.25l2.68-36.5a29.87,29.87,0,0,1,1.31-6.93,15.45,15.45,0,0,1,3.06-5.54,12.46,12.46,0,0,1,5.15-3.48,17.64,17.64,0,0,1,7.51-.85,19.85,19.85,0,0,1,7.41,1.8,11.38,11.38,0,0,1,4.56,3.94,15.14,15.14,0,0,1,2.18,5.77,30.34,30.34,0,0,1,.26,7.29Zm-3.44-36.55a16.94,16.94,0,0,0-.19-4.23,10.4,10.4,0,0,0-1.32-3.65,8,8,0,0,0-2.75-2.71,9.8,9.8,0,0,0-4.44-1.28,8.5,8.5,0,0,0-4.86.9,9.36,9.36,0,0,0-3.2,2.92,13.6,13.6,0,0,0-1.85,4,21.65,21.65,0,0,0-.75,4.2L1009.66,412a13.88,13.88,0,0,0,.26,3.92,10.06,10.06,0,0,0,1.44,3.52,8.19,8.19,0,0,0,2.8,2.61,9.89,9.89,0,0,0,4.35,1.22c3.5.26,6.07-.69,7.69-2.84a14.8,14.8,0,0,0,2.78-8Z"/><path class="cls-1" d="M1046.89,430.29l5.71-69.36,29,2.38-.46,5.58L1058.22,367l-2.11,25.61,20,1.65-.46,5.58-20-1.65-2.22,27,22.92,1.89-.46,5.58Z"/><path class="cls-1" d="M1087,433.65l6.36-69.31,6.07.56-2.81,30.67,5.58.51a16.5,16.5,0,0,0,3.36,0,9,9,0,0,0,3.53-1.18,11.68,11.68,0,0,0,3.28-2.9,17,17,0,0,0,2.63-5.21l6.74-19.8,5.58.51L1121,387.13a27.16,27.16,0,0,1-4.22,8.23,10.63,10.63,0,0,1-5.94,4.07,10.48,10.48,0,0,1,6,5.37,28.65,28.65,0,0,1,2.43,9.08l2.91,23-6.17-.57-2.69-22.14a20.36,20.36,0,0,0-1.53-5.81,11.38,11.38,0,0,0-2.48-3.59,8.36,8.36,0,0,0-3.24-1.91,18.38,18.38,0,0,0-3.7-.74l-6.27-.57-3,32.66Z"/><path class="cls-1" d="M1155.25,375.88l-6.45,63.68-6.27-.64,6.45-63.67L1136.55,374l.56-5.57,31.14,3.15-.56,5.57Z"/><g id="Logo_Tricolor_Almond_invers" data-name="Logo Tricolor Almond invers"><path class="cls-2" d="M1104.83,20l-.73,6.13,23.76,2.8-22.3,189.71-23.76-2.78-.71,6.14,79.86,9.38.7-6.13-21.59-2.54,11.6-98.73,91,10.69-11.6,98.73-21.59-2.52-.73,6.11,79.85,9.39.73-6.13-23.76-2.78,22.3-189.73,23.75,2.78.73-6.12L1232.52,35l-.73,6.13,21.6,2.54-10,84.87-91-10.71,10-84.85L1184,35.55l.73-6.13ZM974.35,139.48l-57-4.1,35.88-74.63Zm-59,2,60.71,4.36,18.42,64.26-27.57-2-.45,6.16,85.18,6.12.45-6.15L1031,212.68,974.57,10.9,969,10.5,887.9,181.2a40.21,40.21,0,0,1-8,11.57A30.32,30.32,0,0,1,861,200.45l-.44,6.14,52.66,3.8.44-6.14a75.23,75.23,0,0,1-11.34-2.69c-5.74-2.3-8-5.27-7.6-11.15.45-6.2,5.31-17.38,7.51-22.2Zm-193.6,56.72,1.66-101,24.86.4c13.05.23,27.9,3.88,38.63,12.45,12.58,10.16,15.16,22.62,14.89,39.09-.42,25.79-9.94,37.43-16.22,42-7.87,5.75-20.34,7.73-28.72,7.6ZM723.53,91,724.9,7.14l26.42.43c10.56.18,25.76,1.68,34.3,11.45,7.32,8.5,7.72,22.18,7.59,29.65-.1,6.52-1,22.35-10.46,31.5-7.89,7.66-23.5,11.43-36.55,11.23ZM666.36,0l-.11,6.17,23.92.4-3.15,191-23.91-.41-.1,6.18,98.1,1.61c22,.36,46.66-2.92,62.38-16.32,8.82-7.31,17.09-19.61,17.39-37.31.14-9.32-1.71-28.31-27.55-42.71C801,101.89,783.7,97.87,770.68,95.5l0-1.54c14.62-1,29.58-5.41,41.51-12.67S832.36,64.23,832.62,49c.23-14.61-7.32-26.53-17.13-33.84-8-5.72-23.06-13.08-55.07-13.61ZM434.89,3.26l.1,6.17,21.42-.35,82.24,167c-1.21,2.19-5.44,9.72-9.71,14.76-5.8,6.31-14.7,11.73-23.71,11.88-11.49.2-16.57-6.25-16.64-10.28-.07-5.28,8-7.9,12.81-14.52a22.22,22.22,0,0,0,4.13-12.79c-.11-7.46-7.1-16.66-20.13-16.44-14.89.24-20.89,12.77-20.71,23.32a34.68,34.68,0,0,0,13.17,27.12c6.91,5.79,16.61,10,29.34,9.72,9.31-.14,16.09-3,23.43-10s12.79-16.06,18.52-27a263.62,263.62,0,0,0,14.07-31L605.14,26.8c1.78-5.29,8.67-20.32,27.3-20.62L632.34,0l-52.8.87.1,6.17L584,7c7.45-.11,14,3.81,14.17,11.89.09,5-2.24,14.65-4,19.33l-36.57,98.15L494.26,8.45,520.35,8l-.11-6.16Zm-84.72,203.5L252,213.81c7.22-8,9.22-14.67,10.76-23.5,3.87-19.89,5.18-53.62,5.59-73.9.24-9.66.64-47.38.47-58.27.07-7.78-.74-23.3,8-31.4,6.72-6.09,19.37-7.62,33-8.61l26.63-1.92ZM394.52,5.85,230.37,17.66l.44,5.85c8.39-.29,18-.67,24.29,4.48,5.63,4.58,6.44,11.37,6.81,16.64,1.42,19.82.51,54.77.14,71.3-1.82,61.18-5.44,75.76-9.5,84.15-5.43,11.3-13.28,14.65-21.33,15.23l-12.08.87,1,61.85,8.66-.62c1.26-8.46,4.1-21.14,9.29-31.17,9.3-17.8,24.84-27,41.55-28.23l64.44-4.62c14.54-1,26.06-.95,39.48,8.37,14.76,10.47,23.47,27.6,27,42.56l8.67-.62-6.9-61.43-27.57,2L371.11,13.72,395,12ZM39.61,140.41c-2.48-21-3.42-39.63,0-55.67,6.63-31.43,28.22-47.42,46.73-49.59s43.2,8.36,56.94,37.39c7.05,14.83,10.46,33.19,12.94,54.16s3.37,39.32,0,55.68c-6.59,31.73-28.17,47.72-46.69,49.89s-43.19-8.37-57-37.71c-7.09-15.12-10.46-33.16-12.92-54.15M.78,145a110,110,0,0,0,30.36,64.31c26.64,27.19,59.94,31.06,79.06,28.81s50.63-13.72,70.24-46.37A111.67,111.67,0,0,0,164.69,57.85c-22.7-23-54-31.46-79-28.52S32.16,47.77,15.41,75.39A110.51,110.51,0,0,0,.78,145"/></g></svg>