<svg id="Слой_1" data-name="Слой 1" xmlns="http://www.w3.org/2000/svg" xmlns:xlink="http://www.w3.org/1999/xlink" viewBox="0 0 491.23 327.89"><defs><style>.cls-1{fill:none;}.cls-2{clip-path:url(#clip-path);}.cls-3{clip-path:url(#clip-path-2);}.cls-4{fill:#3d2b1c;}.cls-5{fill:#1e1e1c;}</style><clipPath id="clip-path"><rect class="cls-1" width="490.12" height="328.48"/></clipPath><clipPath id="clip-path-2"><rect class="cls-1" width="490.12" height="328.49"/></clipPath></defs><title>Монтажная область 1</title><g id="Logo"><g class="cls-2"><g class="cls-3"><path class="cls-4" d="M273.1,38.42c.36.18.78.43,1.21.68l.43-.57c-.43-.21-.89-.39-1.39-.6Z"/><path class="cls-4" d="M271.35,37.5c.25.14.54.28.83.43l.21-.36-.93-.32Z"/><path class="cls-4" d="M270.82,37.25l.1-.17c-.53-.18-1.06-.32-1.63-.47,0,0,.57.22,1.53.64"/></g><polygon class="cls-4" points="313.95 8.35 313.31 13.21 321.4 5.41 313.95 8.35"/><g class="cls-3"><path class="cls-4" d="M282.16,104.18s-.25,1,1.07.22c0,0,0,0,0,0l-.35-.6c-.47.28-.75.42-.75.42"/></g><polygon class="cls-4" points="250.68 17.89 251.93 16.72 251.28 16.61 250.68 17.89"/><g class="cls-3"><path class="cls-4" d="M283.44,103.4l.39.64c.29-.18.64-.42,1.07-.67l-.43-.68a10.22,10.22,0,0,1-1,.71"/></g><polygon class="cls-4" points="272 21.58 274.03 19.7 273.03 19.51 272 21.58"/><polygon class="cls-4" points="258.48 20.55 259.74 19.38 259.13 19.27 258.48 20.55"/><polygon class="cls-4" points="262.3 20.87 263.87 19.41 263.08 19.27 262.3 20.87"/><g class="cls-3"><path class="cls-4" d="M285.11,102.27l.4.71,1.39-1-.57-.71c-.43.35-.86.67-1.22,1"/></g><polygon class="cls-4" points="252.32 18.49 253.57 17.32 252.93 17.21 252.32 18.49"/><g class="cls-3"><path class="cls-4" d="M287,100.71l.64.74,1.46-1.14-.75-.85c-.46.47-.92.85-1.35,1.25"/></g><polygon class="cls-4" points="319.58 14.02 322.54 6.57 314.73 14.66 319.58 14.02"/><g class="cls-3"><path class="cls-4" d="M231.93,167.67l-1.61.78c.07.11.11.21.19.32a5.06,5.06,0,0,0,1.31,1.66l1.25-1.59a3.87,3.87,0,0,1-1.14-1.17"/><path class="cls-4" d="M204.27,13.31a1,1,0,0,0,1.07,1,1,1,0,1,0-1.07-1"/><path class="cls-4" d="M198.92,3.38a1,1,0,0,0,1-1,1.05,1.05,0,1,0-1,1"/><path class="cls-4" d="M180.88,1.68S182,3,181.63,3.84c0,0-2.46-2.13-3,.71-.39,2.09,1,2.38,2.21,2.13,1.46-.32,4-1.74,1.75-5.28-1.21-1.92-5.74-1.89-7,.25l.68.38c1-1,2.6-1.38,4.63-.35"/><path class="cls-4" d="M199,168.41a1,1,0,0,0-1,1.07,1.05,1.05,0,0,0,2.1,0,1.05,1.05,0,0,0-1.07-1.07"/><path class="cls-4" d="M184.63,7.07s4.1-1,3.92-4.05S184.63.26,184.63.26s3.35,3.93,0,6.81"/><path class="cls-4" d="M191.93,5.44s2.71-.18,2.57-2.31S191.4.61,191.4.61s2.56,3.09.53,4.83"/><path class="cls-4" d="M215.25,11.47c.35,2.91,3.74,3,3.74,3s-4-3-.39-6.49c0,0-3.71.57-3.35,3.48"/></g><polygon class="cls-4" points="197.81 8.38 200.31 9.87 198.6 7.92 197.81 8.38"/><polygon class="cls-4" points="201.35 7.39 203.7 8.95 202.13 6.92 201.35 7.39"/><g class="cls-3"><path class="cls-4" d="M191.33,10.15l1.89,1.25-1.14-1.46c.71-.21,1.49-.49,2.28-.78l2.14,1.42-1.32-1.7c2.42-.89,5.13-2,8.16-3.48a31.18,31.18,0,0,1,13.94-3.19l-.07.07,1.42.93c-.71.13-1.46.31-2.24.53l-.86-1.1-.78.46,1.21.78c-.64.21-1.28.39-1.92.63l-1-1.27-.79.46,1.43.92c-.71.25-1.43.53-2.11.78l-1.21-1.56-.78.46,1.78,1.17-2.17.93-1.5-1.92-.78.46,2.24,1.46c-2.17.92-3.71,1.7-3.71,1.7a33,33,0,0,1-22.63,3.47c1.28.22,4.2-.1,8.52-1.42M222.48,3a10.28,10.28,0,0,0-3.46.18l-.67-.85a16.54,16.54,0,0,1,4.13.67M180.1,10.3a2.38,2.38,0,0,1-.57-.15l-.39,1.11a19.11,19.11,0,0,0,5.67,1.8c-4.39,1.81-4.1,7.84-.51,8s2.5-2.91,2.5-2.91c.36,1.89-3.35,3.16-4.1-.17-.64-3,6.38-4.36,9.31-4.79a45.22,45.22,0,0,0,10.72-2.59s17.79-8.87,20.86-6.35c0,0,5,1.53,4,6.1s-6.06,3.8-6.38,1.64c0,0,3.63,1.77,3.45-1.64a1.9,1.9,0,0,0-2.56-1.84s-3.57,1.1-.86,5.21c0,0,1.93,2,5.1.28s3.1-7,.18-10.46-14-3.58-20.22-1-18.1,9.4-26.23,7.7"/><path class="cls-4" d="M175.14,6a5.1,5.1,0,0,1,0-1.46l-.89-.1a5.89,5.89,0,0,0,.14,1.74Z"/><path class="cls-4" d="M181.31,165.65c-1.29-.15-3,.17-2.1,2.19,1.1,2.49,2.53.82,2.53.82.35.89-.68,1.46-.68,1.46-2,1-3.67.67-4.7-.36l-.68.43c1.85,1.77,6.17,2.27,7.41.32,2.25-3.55-.28-4.69-1.78-4.86"/><path class="cls-4" d="M178.25,161.07a16.67,16.67,0,0,0-1.72,1.21l.5.64a7.18,7.18,0,0,1,1.68-1Z"/><path class="cls-4" d="M192,166.36c2.32,2-.53,4.92-.53,4.92s3,0,3.1-2.09-2.57-2.83-2.57-2.83"/><path class="cls-4" d="M175.36,168.09l-.82.29a4.19,4.19,0,0,0,.53,1.13l.78-.39a3.61,3.61,0,0,1-.49-1"/><path class="cls-4" d="M184.73,164.73c3.35,2.87,0,6.8,0,6.8s3.5.22,3.71-2.87-3.71-3.93-3.71-3.93"/></g><polygon class="cls-4" points="204.23 5.97 206.59 7.49 205.01 5.5 204.23 5.97"/><g class="cls-3"><path class="cls-4" d="M176.46,9.52a12,12,0,0,0,1.71,1.21l.47-.86a6.36,6.36,0,0,1-1.71-1Z"/><path class="cls-4" d="M175.75,2.67,175,2.28a4.68,4.68,0,0,0-.57,1.14l.86.28a3.39,3.39,0,0,1,.46-1"/><path class="cls-4" d="M175.25,165.82l-.82-.17a5,5,0,0,0-.11,1.74l.9-.11a5.13,5.13,0,0,1,0-1.46"/><path class="cls-4" d="M176.36,163.55l-.68-.49-.43.49c-.14.25-.25.5-.36.75l.79.32a4.13,4.13,0,0,1,.68-1.07"/><path class="cls-4" d="M209.65,12.5c.25,2,2.57,1.95,2.57,1.95s-2.14-2.7,0-4.72c0,0-2.82.75-2.53,2.77"/><path class="cls-4" d="M291.49,5.44c-2.31-2,.54-5,.54-5s-3,0-3.1,2.13,2.56,2.84,2.56,2.84"/><path class="cls-4" d="M305.25,10.72A11.67,11.67,0,0,0,307,9.51l-.46-.63a6.58,6.58,0,0,1-1.68.95Z"/><path class="cls-4" d="M298.8,7.07c-3.35-2.88,0-6.81,0-6.81S295.31,0,295.09,3.1s3.71,4,3.71,4"/><path class="cls-4" d="M264.94,2.25l-.65.85A9,9,0,0,0,260.94,3a15.76,15.76,0,0,1,4-.71m.85,0A30.9,30.9,0,0,1,280.13,5.4c2.95,1.42,5.62,2.56,8,3.45l-1.42,1.8L289,9.13l2.21.77L290,11.47l2-1.32c4.35,1.32,7.26,1.64,8.55,1.39a32.88,32.88,0,0,1-21-2.63l2.21-1.45L281.09,7l-1.47,1.91c-.56-.28-1.1-.53-1.64-.85l-1.21-.57L279,6l-.78-.46-1.46,1.88c-.64-.29-1.5-.67-2.5-1.1L276.31,5l-.79-.46-1.39,1.77c-.64-.28-1.35-.57-2.1-.88l1.61-1L272.85,4l-1.11,1.38c-.64-.25-1.35-.5-2-.74L271,3.77l-.78-.46-.89,1.14c-.61-.22-1.25-.43-1.86-.61l1.07-.67-.78-.46-.79,1c-.74-.21-1.46-.39-2.17-.53L266,2.35ZM257.06,14c3.17,1.71,5.1-.25,5.1-.25,3-3.51.25-5.24.25-5.24s-1.86-.72-2.35,1c-.83,2.8,2.13,2.48,2.13,2.48-.28,2.17-5.38,2.91-6.38-1.63s4-6.1,4-6.1c1-.81,3.42-.46,6.31.4v0l0,0a106,106,0,0,1,14.5,6,43.13,43.13,0,0,0,10.73,2.55c2.93.47,9.95,1.85,9.3,4.83-.71,3.34-4.42,2.06-4.06.14,0,0-1.14,3.12,2.46,2.95s3.92-6.25-.5-8.06a19,19,0,0,0,5.67-1.8l-.35-1.11c-.22,0-.4.11-.61.15C295.2,12,283.26,5.23,277.09,2.6s-17.25-3.79-20.17,1c-2.39,3.86-3.07,8.79.14,10.46"/><path class="cls-4" d="M284.54,3.38a1.07,1.07,0,1,0-1.07-1.06,1.07,1.07,0,0,0,1.07,1.06"/></g><polygon class="cls-4" points="282.9 9.98 285.4 8.45 284.65 7.99 282.9 9.98"/><g class="cls-3"><path class="cls-4" d="M307.18,8.2l.68.53c.28-.31.42-.49.42-.49a6.4,6.4,0,0,0,.36-.75l-.78-.31a4.65,4.65,0,0,1-.68,1"/><path class="cls-4" d="M302.22,6.15c1.29.14,3-.18,2.11-2.2-1.11-2.48-2.54-.85-2.54-.85-.35-.85.68-1.42.68-1.42,2-1.07,3.68-.68,4.71.35l.68-.42C306-.2,301.69-.66,300.44,1.25c-2.24,3.58.29,4.72,1.78,4.9"/><path class="cls-4" d="M308.28,5.93l.83.22a5.48,5.48,0,0,0,.1-1.78l-.89.15a4.46,4.46,0,0,1,0,1.41"/><path class="cls-4" d="M308.18,3.7l.82-.28a4.28,4.28,0,0,0-.54-1.14l-.78.39a6.53,6.53,0,0,1,.5,1"/><path class="cls-4" d="M251.61,4.13l1.6-.78c-.07-.11-.11-.22-.18-.32a4.82,4.82,0,0,0-1.32-1.67L250.46,3a3.89,3.89,0,0,1,1.15,1.17"/><path class="cls-4" d="M239.09,1.93A5.91,5.91,0,0,0,237.46,1l-.64,1.67a4.33,4.33,0,0,1,1.13.71Z"/><path class="cls-4" d="M246.62,2.67,246,1a8,8,0,0,0-1.61.92l1.14,1.49a3.2,3.2,0,0,1,1.11-.71"/><path class="cls-4" d="M235.92,2.42l.61-1.77a6.48,6.48,0,0,0-3.21-.07l.53,1.95a4.16,4.16,0,0,1,2.07-.11"/><path class="cls-4" d="M249.57,2.53l.54-1.95a5.62,5.62,0,0,0-3.17.07l.56,1.74a4.05,4.05,0,0,1,2.07.14"/><path class="cls-4" d="M233,3l-1.21-1.6A4.71,4.71,0,0,0,230.4,3a1.33,1.33,0,0,0-.15.32l1.61.77A3.41,3.41,0,0,1,233,3"/><path class="cls-4" d="M252.21,6.29s-2.78-1.49-3.74.32-1,3.44,1.21,4.25c2.07.75,5.53-1.66,4-6.38l-1.72.42a4.68,4.68,0,0,1,.29,1.39"/><path class="cls-4" d="M268.18,11.36c.36-2.91-2.64-3.37-2.64-3.37,3,2.91-.46,6.49-.46,6.49a3.48,3.48,0,0,0,3.1-3.12"/><path class="cls-4" d="M233.75,10.86c2.24-.81,2.78-2.83,1.35-4.32-2.06-2.13-3.81,1-3.81,1a20.2,20.2,0,0,1,.21-2.66l-1.71-.42c-1.57,4.72,1.89,7.13,4,6.38"/><path class="cls-4" d="M273.6,12.39a2.27,2.27,0,0,0-1.93-2.45c2.11,2-.24,4.51-.24,4.51a2.27,2.27,0,0,0,2.17-2.06"/><path class="cls-4" d="M277.16,13.2a1,1,0,0,0,.93,1.07,1,1,0,0,0,1.07-1,1,1,0,0,0-1-1.07,1,1,0,0,0-1,1"/><path class="cls-4" d="M267.65,58s-.43-1,.28-1.52-.57-5.61-2.5-4.9.36,4.23,1,5.4a1.47,1.47,0,0,1,1.18,1"/></g><polygon class="cls-4" points="304.97 47.18 307.36 46.05 307.14 44.88 304.97 47.18"/><g class="cls-3"><path class="cls-4" d="M284.12,62c1.17-.32,2.27,1.46,2.27,1.46a2.32,2.32,0,0,1,.26-2.53c-1-2.26-4.68-7.51-6.6-6.38s2.89,7.8,4.07,7.45"/><path class="cls-4" d="M254.07,56c.6.28,2.67-2.42,1.88-3.55s-2.78,1.91-3,2.8-.07,1.07-.07,1.07a1.09,1.09,0,0,1,1.18-.32"/><path class="cls-4" d="M308.36,165.82a4,4,0,0,1,.07,1.42l.89.15a6.59,6.59,0,0,0-.14-1.78Z"/></g><polygon class="cls-4" points="308.67 104.75 308.82 104.11 307.5 103.47 308.67 104.75"/><polygon class="cls-4" points="198.14 163.34 198.88 163.81 200.63 161.82 198.14 163.34"/><g class="cls-3"><path class="cls-4" d="M307.07,162.24a11.37,11.37,0,0,0-1.71-1.17l-.46.85a5.59,5.59,0,0,1,1.71,1Z"/><path class="cls-4" d="M302.65,170.08s-1.1-1.27-.75-2.13c0,0,2.46,2.13,3-.74.39-2.06-1-2.34-2.21-2.1-1.46.32-4,1.74-1.75,5.29,1.22,1.92,5.74,1.88,7-.25l-.68-.42c-1,1-2.61,1.42-4.64.35"/><path class="cls-4" d="M307.78,169.09l.76.39a3.91,3.91,0,0,0,.56-1.14l-.85-.28a3.33,3.33,0,0,1-.47,1"/><path class="cls-4" d="M308.75,164.26c-.11-.24-.22-.49-.36-.74a4.94,4.94,0,0,0-.43-.46l-.71.49a4.87,4.87,0,0,1,.71,1Z"/></g><polygon class="cls-4" points="284.83 40.34 284.86 40.37 284.86 40.3 284.83 40.34"/><polygon class="cls-4" points="307.21 64.35 308.85 63.57 308.71 62.79 307.21 64.35"/><polygon class="cls-4" points="307.21 66.41 308.85 65.63 308.71 64.84 307.21 66.41"/><polygon class="cls-4" points="306.5 54.67 308.61 53.67 308.42 52.65 306.5 54.67"/><polygon class="cls-4" points="306.72 59.81 308.78 58.78 308.6 57.79 306.72 59.81"/><polygon class="cls-4" points="307.54 68.15 308.86 67.51 308.71 66.87 307.54 68.15"/><polygon class="cls-4" points="307.54 70.59 308.86 69.96 308.71 69.35 307.54 70.59"/><polygon class="cls-4" points="308.67 108.83 308.82 108.05 307.18 107.27 308.67 108.83"/><polygon class="cls-4" points="308.67 106.81 308.82 105.99 307.18 105.21 308.67 106.81"/><polygon class="cls-4" points="308.39 118.97 308.57 117.95 306.46 116.95 308.39 118.97"/><polygon class="cls-4" points="306.5 57.15 308.61 56.13 308.42 55.13 306.5 57.15"/><g class="cls-3"><path class="cls-4" d="M298.91,164.73s-4.13,1-3.92,4,3.92,2.76,3.92,2.76-3.35-4,0-6.8"/><path class="cls-4" d="M275.13,39.59c.39.22.79.47,1.18.72l.57-.75-1.21-.64Z"/><path class="cls-4" d="M234,169.26l-.53,2a6.11,6.11,0,0,0,3.17-.07l-.57-1.74a4.56,4.56,0,0,1-2.07-.15"/><path class="cls-4" d="M231.32,165.51s2.78,1.49,3.74-.32,1-3.44-1.2-4.26c-2.07-.74-5.53,1.67-4,6.39l1.67-.43a5.93,5.93,0,0,1-.25-1.38"/><path class="cls-4" d="M244.44,169.87a7.57,7.57,0,0,0,1.64.92l.64-1.67a3.45,3.45,0,0,1-1.14-.74Z"/><path class="cls-4" d="M236.92,169.12l.64,1.71a7.53,7.53,0,0,0,1.61-1L238,168.41a3.59,3.59,0,0,1-1.1.71"/><path class="cls-4" d="M218.6,169.51l.64-.81a9,9,0,0,0,3.35.14,17,17,0,0,1-4,.67m-.86.08a31.42,31.42,0,0,1-14.33-3.2c-3-1.42-5.63-2.55-8-3.44l1.42-1.84-2.31,1.52c-.79-.28-1.53-.53-2.21-.74l1.21-1.6-2,1.35c-4.35-1.31-7.27-1.63-8.56-1.42a32.87,32.87,0,0,1,21,2.63l-2.2,1.45.78.46,1.46-1.88a18.31,18.31,0,0,1,1.64.85l1.21.57-2.21,1.46.79.45,1.46-1.91c.64.32,1.49.71,2.49,1.1l-2.06,1.38.78.47,1.39-1.78c.64.29,1.35.57,2.1.85l-1.6,1.06.78.47,1.11-1.42c.64.25,1.32.53,2,.74l-1.25.82.79.5.89-1.14c.6.21,1.21.39,1.85.57l-1.07.71.78.46.79-1c.75.21,1.46.39,2.18.53l-1.25.81Zm8.74-11.85c-3.21-1.67-5.1.28-5.1.28-3,3.51-.25,5.25-.25,5.25a1.74,1.74,0,0,0,2.35-1.06c.82-2.81-2.14-2.45-2.14-2.45.28-2.17,5.38-2.94,6.38,1.63s-4,6.1-4,6.1c-1,.78-3.42.46-6.3-.39v0l0,0a111,111,0,0,1-14.51-6,45.17,45.17,0,0,0-10.73-2.59c-2.92-.42-10-1.81-9.3-4.79.71-3.33,4.42-2,4.06-.17,0,0,1.14-3.12-2.46-2.91s-3.92,6.24.5,8a19,19,0,0,0-5.66,1.81l.35,1.1a3.18,3.18,0,0,1,.61-.14c8.12-1.7,20.06,5.07,26.23,7.69s17.25,3.8,20.18-1c2.39-3.83,3.06-8.76-.14-10.46"/><path class="cls-4" d="M291.6,166.32s-2.71.18-2.56,2.34,3.1,2.52,3.1,2.52-2.57-3.09-.54-4.86"/><path class="cls-4" d="M206.37,158.59a1,1,0,0,0-.93-1.07,1,1,0,0,0-1.07,1,1,1,0,0,0,1,1,1,1,0,0,0,1-.92"/><path class="cls-4" d="M215.35,160.43c-.36,2.91,2.64,3.38,2.64,3.38-3-2.91.46-6.5.46-6.5a3.49,3.49,0,0,0-3.1,3.12"/><path class="cls-4" d="M209.94,159.41c-.25,2,1.92,2.45,1.92,2.45-2.1-2,.25-4.51.25-4.51a2.26,2.26,0,0,0-2.17,2.06"/><path class="cls-4" d="M247.58,169.37l-.57,1.77a6.14,6.14,0,0,0,3.21,0l-.54-1.91a4.26,4.26,0,0,1-2.1.1"/><path class="cls-4" d="M268.29,160.33c-.36-2.94-3.74-3-3.74-3s4,2.95.39,6.46c0,0,3.71-.53,3.35-3.44"/><path class="cls-4" d="M273.89,159.3c-.25-2-2.57-2-2.57-2s2.13,2.7,0,4.72c0,0,2.78-.71,2.54-2.73"/><path class="cls-4" d="M292.21,161.6l-1.89-1.2,1.14,1.45c-.72.22-1.5.46-2.28.75L287,161.22l1.31,1.7c-2.42.88-5.13,2-8.16,3.44a30.77,30.77,0,0,1-13.94,3.19l.08,0-1.43-.93c.71-.14,1.46-.35,2.25-.56l.85,1.13.79-.46-1.22-.78,1.93-.64,1,1.28.75-.46-1.39-.93c.71-.28,1.42-.53,2.1-.78l1.21,1.53.79-.46-1.78-1.17c.74-.29,1.49-.61,2.17-.89l1.5,1.91.78-.45-2.25-1.49c2.18-.93,3.71-1.68,3.71-1.68a33.06,33.06,0,0,1,22.64-3.47c-1.28-.25-4.21.07-8.52,1.38m-31.16,7.24a10.82,10.82,0,0,0,3.46-.18l.68.86a19.06,19.06,0,0,1-4.14-.68m42.39-7.34.56.1.4-1.1a20.67,20.67,0,0,0-5.67-1.81c4.39-1.77,4.1-7.83.5-8s-2.49,2.91-2.49,2.91c-.36-1.88,3.35-3.19,4.06.14.68,3-6.35,4.36-9.27,4.83a44.08,44.08,0,0,0-10.73,2.55S263,170,260,167.49c0,0-5-1.56-4-6.1s6.06-3.79,6.38-1.66c0,0-3.64-1.78-3.46,1.66a1.91,1.91,0,0,0,2.57,1.85s3.56-1.1.85-5.25c0,0-1.92-2-5.09-.25s-3.11,7-.18,10.46,14,3.58,20.17,1,18.15-9.37,26.28-7.66"/><path class="cls-4" d="M279.27,158.45a1,1,0,0,0-1.07-.92,1,1,0,0,0-1,1,1,1,0,0,0,1.07,1,1,1,0,0,0,1-1.06"/><path class="cls-4" d="M250.57,168.84l1.22,1.56a4.76,4.76,0,0,0,1.35-1.63,1.78,1.78,0,0,0,.14-.36l-1.6-.78a3.27,3.27,0,0,1-1.11,1.21"/><path class="cls-4" d="M284.61,168.41a1.05,1.05,0,0,0,0,2.1,1.05,1.05,0,1,0,0-2.1"/><path class="cls-4" d="M249.79,160.93c-2.28.82-2.78,2.84-1.35,4.29,2.06,2.17,3.81-1,3.81-1a20.45,20.45,0,0,1-.22,2.66l1.71.42c1.57-4.75-1.88-7.12-4-6.38"/></g><polygon class="cls-4" points="278.52 166.29 279.3 165.82 276.95 164.27 278.52 166.29"/><polygon class="cls-4" points="281.41 164.87 282.19 164.4 279.84 162.85 281.41 164.87"/><polygon class="cls-4" points="284.94 163.87 285.72 163.41 283.22 161.89 284.94 163.87"/><g class="cls-3"><path class="cls-4" d="M174.79,7.49a5.12,5.12,0,0,0,.36.75,3.13,3.13,0,0,0,.42.5l.71-.5a5,5,0,0,1-.71-1Z"/><path class="cls-4" d="M156.07,29s-.53,3.8,2.57,4,3.85-4,3.85-4c-2.89,3.34-6.42,0-6.42,0"/><path class="cls-4" d="M158.5,94.6l-1.57,1.25a4.43,4.43,0,0,0,1.64,1.34,2.62,2.62,0,0,0,.36.15l.78-1.6a3.1,3.1,0,0,1-1.21-1.14"/><path class="cls-4" d="M156,80.7l1.78-.6a4.12,4.12,0,0,1,.1-2.06L156,77.51A6.41,6.41,0,0,0,156,80.7"/><path class="cls-4" d="M161.17,35.91c-2,2.3-4.85-.43-4.85-.43s-.35,2.84,1.78,3,3.07-2.55,3.07-2.55"/><path class="cls-4" d="M155.79,142.7s4-3.33,6.84,0c0,0-.85-4.08-4-3.9s-2.88,3.9-2.88,3.9"/><path class="cls-4" d="M159.57,76l-.83-1.6a3.3,3.3,0,0,1-.32.18,5.35,5.35,0,0,0-1.67,1.31l1.6,1.25A3.74,3.74,0,0,1,159.57,76"/><path class="cls-4" d="M156.54,90.17l1.67.64a3.64,3.64,0,0,1,.75-1.14l-1.5-1.13a6.9,6.9,0,0,0-.92,1.63"/><path class="cls-4" d="M158.07,81l-1.68.64a8.87,8.87,0,0,0,.93,1.63l1.5-1.17a3.36,3.36,0,0,1-.75-1.1"/><path class="cls-4" d="M156.68,43.25a1.05,1.05,0,1,0,2.1,0,1.05,1.05,0,0,0-2.1,0"/><path class="cls-4" d="M322.15,152.17l-.21.78a6.21,6.21,0,0,0,1.78.14l-.15-.89a4.86,4.86,0,0,1-1.42,0"/><path class="cls-4" d="M157.18,151.71l.53-1c-1.07-1-1.53-2.38-.46-4.37,0,0,.57-1,1.42-.67,0,0-1.42,1.35.11,2.3,1.71,1.1,2.78.11,2.82-1.27s-1-4.61-4.57-2.38c-1.92,1.24-1.56,6.35.15,7.38"/></g><polygon class="cls-4" points="320.65 126.78 321.12 126 319.09 124.44 320.65 126.78"/><g class="cls-3"><path class="cls-4" d="M324.4,152.06l.32.82a4,4,0,0,0,1.1-.57l-.39-.74a3.94,3.94,0,0,1-1,.49"/></g><polygon class="cls-4" points="319.65 130.29 320.12 129.51 318.16 127.77 319.65 130.29"/><g class="cls-3"><path class="cls-4" d="M277.84,40.09l-.75.75c.39.24.82.52,1.22.81l.78-.85c-.39-.25-.82-.46-1.25-.71"/><path class="cls-4" d="M157.86,152.28a3.27,3.27,0,0,0,1.1.56l.32-.81a4,4,0,0,1-1-.5Z"/><path class="cls-4" d="M326.5,151.74c1.29-.21,2.07-6.66-.29-7.58-3.92-1.53-4.81,1.59-4.24,3,.36.89.5,2.13,2.43,1.1a1.8,1.8,0,0,0,.6-2.52c.86-.35,1.14.68,1.14.68,1,2,1,3.65-.07,4.68Z"/><path class="cls-4" d="M167.27,54.53c-2-.25-2.71,2-2.71,2,2-2.09,4.88.25,4.88.25a2.54,2.54,0,0,0-2.17-2.3"/><path class="cls-4" d="M156.18,91.09a6.4,6.4,0,0,0-.07,3.19l2-.53a4.22,4.22,0,0,1-.11-2.09Z"/><path class="cls-4" d="M160,97.8c4.78,1.56,7.16-1.88,6.42-3.94-.82-2.27-2.46-2.2-4.28-1.24s-.29,3.76-.29,3.76a5.49,5.49,0,0,1-1.42-.29Z"/></g><polygon class="cls-4" points="160.96 123.3 161.42 124.08 162.95 121.74 160.96 123.3"/><g class="cls-3"><path class="cls-4" d="M159.5,111.74l-1.43,1.1.46.77,1-1.55c.21.67.46,1.34.71,2l-1.61,1.24.47.78,1.21-1.81c.29.74.57,1.49.86,2.2L159.28,118l.46.78,1.47-2.2c1.24,3,2.46,5.46,2.46,5.46a32.46,32.46,0,0,1,3.49,22.49c.21-1.24-.07-4-1.25-8l1-1.45-1.14.88c-.25-.77-.5-1.56-.82-2.41l1.15-1.74-1.39,1.07c-.29-.85-.65-1.74-1-2.66l.17.28,1.5-2.48-1.89,1.67c-.71-1.71-1.53-3.55-2.46-5.54a30.73,30.73,0,0,1-3.24-13l1.1-1.63c.18.75.4,1.52.65,2.31m-1-6.67a11.37,11.37,0,0,0,.32,4.11l-1,.78a18.88,18.88,0,0,1,.72-4.89m-.32,16.06c3.2,5.86,9.4,18,7.69,26.07a3.08,3.08,0,0,1-.14.6l1.11.36a19.25,19.25,0,0,0,1.82-5.64c1.82,4.36,7.88,4.11,8.09.5s-2.92-2.45-2.92-2.45c1.88-.39,3.17,3.3-.18,4-3,.64-4.39-6.35-4.81-9.25a45,45,0,0,0-2.61-10.64S157.35,107,159.85,104c0,0,1.57-5,6.13-4s3.82,6,1.64,6.35c0,0,1.64-2.3-1.14-2.8-1.85-.36-1.74,1.84-1.74,1.84s.35,4,4.67.92c0,0,1.92-1.91.24-5.07s-7.05-3.08-10.51-.17-4.31,13.94-1,20.1"/></g><polygon class="cls-4" points="159.92 120.64 160.39 121.42 161.92 119.08 159.92 120.64"/><g class="cls-3"><path class="cls-4" d="M163.45,62.86c2.89-3,5.38-.53,5.38-.53s.36-1.56-1.89-2.31c-2.78-1-3.49,2.84-3.49,2.84"/><path class="cls-4" d="M169.4,49.74a.86.86,0,0,0-.88-.92c-.58,0-.75.17-.79.74s0,.89.6.92,1-.21,1.07-.74"/><path class="cls-4" d="M162,79.14c1.81,1,3.46,1,4.27-1.21.75-2.05-1.64-5.49-6.42-3.93l.44,1.7a5.34,5.34,0,0,1,1.42-.28s-1.5,2.76.29,3.72"/></g><polygon class="cls-4" points="162.38 126.17 162.85 126.95 164.42 124.61 162.38 126.17"/><g class="cls-3"><path class="cls-4" d="M163.1,152.49c.21-.11.46-.22.75-.35l.46-.43-.5-.68a6.79,6.79,0,0,1-1,.68Z"/><path class="cls-4" d="M156.14,136.14s3.18-2.38,5.17-.07c0,0-1.21-2.81-3.35-2.66s-1.82,2.73-1.82,2.73"/><path class="cls-4" d="M158.92,128.51a1,1,0,0,0-1-1,1,1,0,0,0-1.07,1,1.06,1.06,0,0,0,1.07,1.07,1,1,0,0,0,1-1.07"/></g><polygon class="cls-4" points="322.08 123.9 322.55 123.12 320.55 121.56 322.08 123.9"/><g class="cls-3"><path class="cls-4" d="M167.87,122.23a1,1,0,1,0,2-.1,1,1,0,0,0-1-1,1,1,0,0,0-1,1.06"/><path class="cls-4" d="M169.87,109.29s-3,3.15-5.88.14c0,0,0,3.19,2.95,2.81a3.07,3.07,0,0,0,2.93-2.95"/><path class="cls-4" d="M165.63,116.17a2,2,0,0,0,2.24,1.88c2-.25,2.18-2.55,2.18-2.55s-2.39,2.76-4.42.67"/><path class="cls-4" d="M164.45,150.36l.68.46a11.21,11.21,0,0,0,1.17-1.7l-.85-.43a7.11,7.11,0,0,1-1,1.67"/><path class="cls-4" d="M325.47,90.85l1.67-.64a7.27,7.27,0,0,0-.92-1.63l-1.5,1.13a3.53,3.53,0,0,1,.75,1.14"/><path class="cls-4" d="M327,81.66,325.32,81a3.44,3.44,0,0,1-.74,1.1l1.49,1.13a7,7,0,0,0,.93-1.59"/></g><polygon class="cls-4" points="323.11 121.24 323.58 120.46 321.58 118.9 323.11 121.24"/><g class="cls-3"><path class="cls-4" d="M324,95.78l.78,1.59a3.42,3.42,0,0,0,.36-.14,4.82,4.82,0,0,0,1.67-1.35l-1.6-1.24A3.17,3.17,0,0,1,324,95.78"/><path class="cls-4" d="M324.61,43.28a1.05,1.05,0,1,0,2.1,0,1.05,1.05,0,0,0-2.1,0"/><path class="cls-4" d="M320.44,19.31a6.71,6.71,0,0,0-.75.35,5.57,5.57,0,0,0-.46.42l.5.68a5.56,5.56,0,0,1,1-.68Z"/><path class="cls-4" d="M322.36,135.89c2-2.31,4.85.39,4.85.39s.36-2.8-1.78-2.95-3.07,2.56-3.07,2.56"/><path class="cls-4" d="M327.36,80.7a6.4,6.4,0,0,0,.07-3.16l-2,.53a4,4,0,0,1,.1,2.06Z"/><path class="cls-4" d="M327.39,35.62s-3.17,2.41-5.17.11c0,0,1.21,2.8,3.36,2.66s1.81-2.77,1.81-2.77"/><path class="cls-4" d="M326.36,20.05l-.54,1c1.07,1.07,1.54,2.38.47,4.4,0,0-.57,1-1.43.68,0,0,1.43-1.35-.11-2.31-1.71-1.1-2.78-.11-2.85,1.28s1,4.61,4.6,2.34c1.93-1.21,1.57-6.31-.14-7.38"/><path class="cls-4" d="M323.43,19.59l.15-.85a5.29,5.29,0,0,0-1.79.1l.22.82a5.21,5.21,0,0,1,1.42-.07"/><path class="cls-4" d="M325.68,19.48a6,6,0,0,0-1.1-.57l-.32.85a4.62,4.62,0,0,1,1,.47Z"/><path class="cls-4" d="M326.86,128.55a1.06,1.06,0,1,0-1.07,1.06,1,1,0,0,0,1.07-1.06"/><path class="cls-4" d="M327.75,29.06s-4,3.33-6.85,0c0,0,.86,4.12,4,3.9s2.89-3.9,2.89-3.9"/><path class="cls-4" d="M327.46,142.73s.54-3.79-2.56-4-3.86,4-3.86,4c2.89-3.33,6.42,0,6.42,0"/><path class="cls-4" d="M327.5,91.13l-1.78.57a4.24,4.24,0,0,1-.11,2.09l2,.53a6.51,6.51,0,0,0-.07-3.19"/><path class="cls-4" d="M325,77.19,326.61,76A4.91,4.91,0,0,0,325,74.63c-.11-.07-.25-.1-.36-.17l-.79,1.59A3.74,3.74,0,0,1,325,77.19"/><path class="cls-4" d="M323.51,74c-4.78-1.56-7.17,1.88-6.42,3.94.82,2.23,2.46,2.2,4.27,1.21s.29-3.73.29-3.73a5.32,5.32,0,0,1,1.42.29Z"/><path class="cls-4" d="M320.08,109c-2.92,3-5.38.5-5.38.5s-.36,1.56,1.89,2.34c2.78,1,3.49-2.84,3.49-2.84"/><path class="cls-4" d="M314.13,122.09a.86.86,0,0,0,.89.92c.57,0,.75-.17.79-.74s0-.89-.61-.92-1,.17-1.07.74"/><path class="cls-4" d="M321.51,92.65c-1.82-1-3.46-1-4.28,1.25-.75,2,1.64,5.49,6.42,3.93l-.43-1.7a5.5,5.5,0,0,1-1.42.28s1.49-2.76-.29-3.76"/><path class="cls-4" d="M316.27,117.27c2,.25,2.71-2,2.71-2-2,2.09-4.89-.29-4.89-.29a2.54,2.54,0,0,0,2.18,2.31"/><path class="cls-4" d="M319,132.81l-1.58-1.21,1.32,2c-.28.85-.57,1.6-.78,2.34l-1.35-1.06,1.14,1.73c-1.18,4-1.46,6.74-1.25,8A32.43,32.43,0,0,1,320,122.06s1.18-2.38,2.43-5.43l1.32,1.92.46-.79-1.71-1.3c.28-.68.53-1.39.82-2.13l1,1.56.47-.79L323.44,114c.21-.64.46-1.28.64-2l.89,1.35.46-.78-1.21-1c.21-.75.42-1.49.61-2.2l1,1.49.14-.21a30.43,30.43,0,0,1-3.24,13.37c-1.54,3.23-2.75,6.13-3.67,8.66m6.16-27.71a18.15,18.15,0,0,1,.71,4.83l-1-.79a11.72,11.72,0,0,0,.28-4m-.64-4c-3.46-2.91-8.81-3-10.52.18s.26,5.07.26,5.07c4.63,3.37,5.48-.32,5.48-.32s.36-2-1.17-2.34c-3.57-.78-2.53,2.7-2.53,2.7-2.18-.32-3-5.4,1.64-6.36s6.13,4,6.13,4c2.49,3-6.39,20.74-6.39,20.74a44.21,44.21,0,0,0-2.6,10.64c-.43,2.87-1.82,9.9-4.81,9.26-3.35-.75-2.07-4.43-.17-4.08,0,0-3.14-1.13-2.93,2.48s6.27,3.87,8.09-.49a19.06,19.06,0,0,0,1.82,5.64l1.1-.36a4.34,4.34,0,0,1-.14-.6c-1.71-8.09,4.67-20.15,7.7-26.11,3.17-6.13,2.5-17.12-1-20.07"/><path class="cls-4" d="M319.83,152.17l.75.35.32-.78a4.52,4.52,0,0,1-1-.71l-.5.71c.29.29.46.43.46.43"/><path class="cls-4" d="M318.55,150.86l.68-.47a6.84,6.84,0,0,1-1-1.66l-.86.42a14.07,14.07,0,0,0,1.18,1.71"/></g><polygon class="cls-4" points="319.12 47.22 321.15 45.66 320.69 44.88 319.12 47.22"/><g class="cls-3"><path class="cls-4" d="M315.66,49.6a1,1,0,1,0-2,.1,1,1,0,0,0,2-.1"/><path class="cls-4" d="M313.67,62.54s2.95-3.16,5.88-.14c0,0,0-3.19-3-2.84a3,3,0,0,0-2.88,3"/><path class="cls-4" d="M317.91,55.66s-.22-2.16-2.25-1.91-2.17,2.58-2.17,2.58,2.39-2.76,4.42-.67"/><path class="cls-4" d="M324,60.06l1.42-1.1-.46-.78-1,1.59c-.22-.67-.46-1.34-.71-2l1.6-1.24-.46-.78-1.22,1.81c-.28-.78-.56-1.53-.85-2.23l1.93-1.46-.47-.78-1.5,2.2c-1.21-3.09-2.42-5.46-2.42-5.46a32.65,32.65,0,0,1-3.49-22.56c-.22,1.24.07,4,1.24,8l-1,1.49,1.14-.89c.25.78.5,1.6.82,2.45L317.48,40,318.84,39c.32.86.68,1.74,1,2.7l-.18-.32-1.49,2.52,1.88-1.67c.72,1.71,1.54,3.55,2.46,5.5a30.9,30.9,0,0,1,3.25,13l-1.11,1.67c-.18-.75-.39-1.52-.64-2.34m1,6.7a11.54,11.54,0,0,0-.32-4.11l1-.82a19.13,19.13,0,0,1-.71,4.93m.32-16.07c-3.21-5.85-9.41-18-7.7-26.13a2.79,2.79,0,0,1,.14-.57l-1.1-.36a17.62,17.62,0,0,0-1.82,5.64c-1.82-4.39-7.88-4.11-8.1-.49s2.93,2.44,2.93,2.44c-1.89.36-3.17-3.33.14-4,3-.64,4.39,6.35,4.85,9.22a45.81,45.81,0,0,0,2.57,10.71s8.91,17.67,6.41,20.75c0,0-1.57,5-6.13,4s-3.81-6.07-1.67-6.35c0,0-1.61,2.27,1.17,2.8,1.86.36,1.75-1.84,1.75-1.84s-.36-4-4.67-.92c0,0-2,1.91-.25,5.07s7.06,3.08,10.52.14,4.31-13.94,1-20.08"/></g><polygon class="cls-4" points="320.58 50.09 322.58 48.49 322.11 47.75 320.58 50.09"/><polygon class="cls-4" points="321.62 52.75 323.61 51.19 323.15 50.41 321.62 52.75"/><g class="cls-3"><path class="cls-4" d="M319.09,21.43l-.68-.49a14.11,14.11,0,0,0-1.18,1.7l.86.46a5.66,5.66,0,0,1,1-1.67"/><path class="cls-4" d="M160.1,152.17l-.14.89a5.25,5.25,0,0,0,1.78-.11l-.22-.81a5.22,5.22,0,0,1-1.42,0"/></g><polygon class="cls-4" points="174.68 108.26 174.82 109.04 176.32 107.44 174.68 108.26"/><polygon class="cls-4" points="174.75 113.01 174.93 114.04 176.81 112.02 174.75 113.01"/><polygon class="cls-4" points="174.75 110.35 174.93 111.38 176.81 109.36 174.75 110.35"/><polygon class="cls-4" points="174.93 118.15 175.11 119.15 177.03 117.13 174.93 118.15"/><polygon class="cls-4" points="176.18 125.78 176.39 126.95 178.57 124.61 176.18 125.78"/><g class="cls-3"><path class="cls-4" d="M201.59,66.87s.22-1-1.07-.22h0l.35.64c.47-.28.75-.42.75-.42"/></g><polygon class="cls-4" points="174.68 104.32 174.82 104.93 176 103.69 174.68 104.32"/><polygon class="cls-4" points="174.68 101.84 174.82 102.48 176 101.24 174.68 101.84"/><polygon class="cls-4" points="174.68 106.2 174.82 106.98 176.32 105.43 174.68 106.2"/><polygon class="cls-4" points="219.67 152.38 220.45 152.53 221.23 150.89 219.67 152.38"/><polygon class="cls-4" points="209.51 152.1 210.5 152.28 211.54 150.18 209.51 152.1"/><polygon class="cls-4" points="223.8 152.42 224.41 152.53 225.05 151.25 223.8 152.42"/><polygon class="cls-4" points="163.91 157.77 160.99 165.18 168.8 157.13 163.91 157.77"/><polygon class="cls-4" points="229.97 154.48 230.61 154.58 231.21 153.27 229.97 154.48"/><polygon class="cls-4" points="169.58 163.45 170.22 158.59 162.09 166.36 169.58 163.45"/><polygon class="cls-4" points="231.61 155.08 232.25 155.18 232.86 153.91 231.61 155.08"/><polygon class="cls-4" points="174.93 115.67 175.11 116.7 177.03 114.68 174.93 115.67"/><polygon class="cls-4" points="229.65 17.25 230.93 18.42 230.29 17.14 229.65 17.25"/><polygon class="cls-4" points="223.48 19.31 224.73 20.47 224.12 19.16 223.48 19.31"/><polygon class="cls-4" points="214.32 19.41 216.35 21.29 215.35 19.24 214.32 19.41"/><g class="cls-3"><path class="cls-4" d="M165,20.9l-.64.5a7,7,0,0,1,1,1.66l.85-.45A16.44,16.44,0,0,0,165,20.9"/><path class="cls-4" d="M279.87,41.33l-.88.82,1,.74,1-.81c-.35-.25-.67-.5-1.07-.75"/><path class="cls-4" d="M263.05,65.49c.89-.4.07-.61.07-.61-11.3.39-13.8,8.41-13.8,8.41,7.38-8,12.87-7.38,13.73-7.8"/></g><polygon class="cls-4" points="219.34 19.31 220.95 20.79 220.16 19.16 219.34 19.31"/><g class="cls-3"><path class="cls-4" d="M281.83,42.71l-1.1.78c.5.39,1,.79,1.42,1.18l1.11-.82c-.47-.36-.93-.74-1.43-1.14"/></g><polygon class="cls-4" points="174.97 53.85 177.07 54.88 175.14 52.86 174.97 53.85"/><polygon class="cls-4" points="174.72 65.8 176.35 66.58 174.86 65.03 174.72 65.8"/><polygon class="cls-4" points="174.72 67.69 176.03 68.32 174.86 67.08 174.72 67.69"/><polygon class="cls-4" points="174.72 63.75 176.35 64.56 174.86 62.97 174.72 63.75"/><polygon class="cls-4" points="162.03 5.44 170.15 13.21 169.47 8.35 162.03 5.44"/><polygon class="cls-4" points="163.77 13.99 168.66 14.63 160.85 6.54 163.77 13.99"/><polygon class="cls-4" points="209.19 19.59 211.22 21.5 210.19 19.41 209.19 19.59"/><polygon class="cls-4" points="174.97 56.33 177.03 57.29 175.14 55.31 174.97 56.33"/><polygon class="cls-4" points="221.41 19.31 223.02 20.79 222.2 19.16 221.41 19.31"/><g class="cls-3"><path class="cls-4" d="M227.76,118.58c.78,1.17,2.81-1.91,3-2.8s.07-1.1.07-1.1a1.16,1.16,0,0,1-1.18.35c-.6-.28-2.67,2.38-1.92,3.55"/><path class="cls-4" d="M215.82,114.54c-.68.49.57,5.6,2.49,4.93s-.35-4.26-1-5.4a1.47,1.47,0,0,1-1.18-1s.4,1-.28,1.49"/><path class="cls-4" d="M203.66,116.45c1.93-1.17-2.88-7.77-4-7.45s-2.28-1.41-2.28-1.41a2.37,2.37,0,0,1-.28,2.51c1,2.28,4.67,7.52,6.59,6.35"/><path class="cls-4" d="M159.14,19.73l-.32-.85a5.05,5.05,0,0,0-1.11.57l.4.74a3.91,3.91,0,0,1,1-.46"/><path class="cls-4" d="M157,20c-1.29.22-2.07,6.71.28,7.6,3.92,1.52,4.81-1.6,4.24-3-.35-.86-.5-2.13-2.42-1.07a1.79,1.79,0,0,0-.61,2.52c-.85.35-1.14-.67-1.14-.67-1-2-1-3.66.08-4.68Z"/></g><polygon class="cls-4" points="314.06 163.41 321.51 166.35 313.38 158.59 314.06 163.41"/><g class="cls-3"><path class="cls-4" d="M312.31,164.33l-.57-7.19-1.5-1.6a4.76,4.76,0,0,1,.47-1h0a5.08,5.08,0,0,1,1.08-.53l1.6,1.49,7.27.57,4.71,13.09,0,0Zm-4-10.74c-.72-.64.14-1.35.14-1.35s.78-.85,1.39-.11c.75.89-.82,2.06-1.53,1.46m-2.46-2.34-19.36-20,1.36-.43,19.64,18.8-1.82-.18Zm-18.25-.18s-3.07-3.26-2.78-4.19c.07-.28.32-.39,1-1a16.74,16.74,0,0,1,2.5,2.53c0,.35,1,.21.92-.75a21,21,0,0,0-2.67-2.38c.28-.28.64-.6,1-.92a11.81,11.81,0,0,1,2.57,2.31s1.13.25.92-1.14a19.87,19.87,0,0,0-2.6-2.09,12.88,12.88,0,0,0,.89-1.1,9,9,0,0,1,2.43,2s.67-.1.46-1c-.14-.64-1.46-1.57-2.21-1.85a14.44,14.44,0,0,0,.92-1.49,3.43,3.43,0,0,1,2.89,3.05,9.81,9.81,0,0,1-6.2,8m-29,2.8a23.09,23.09,0,0,0-6.49,1.21L251,154l.64,1.28h0c-.39.14-.75.28-1.14.45l-1-.92.53,1.14c-3.63,1.77-7,5.07-6.45,11.25,0,0-2.53-4.23,1.35-8.87,0,0,3.07-4.83,11.48-6.75l.5,1,.64-.11-1-1a32,32,0,0,1,5-.67c1.07-.07,2.1-.15,3.06-.18l.93,1.88,1-.18-1.82-1.74c.86,0,1.67-.1,2.49-.14s1.82-.14,2.68-.18l1,2,1-.18-2-1.85c1.75-.14,3.35-.28,4.74-.46l1,2.1,1.14-.21-2-1.89c.86-.1,1.64-.21,2.36-.32l1,2,1.17-.21-1.92-1.81A22.42,22.42,0,0,0,280,149l1,2.16,1.18-.21-2.1-2a15,15,0,0,0,3.42-1.57,7.84,7.84,0,0,0,2.75,4.12s-9.28,2.88-27.63,2.34m24.74-26.81c0,.49,1.35,1.34,2.13,1.84-.64.57-1.31,1.17-2,1.74-.56-.57-1.39-1.67-1.67-2-.43-.46-1.11-.18-1,.57,0,.49,1.22,1.45,2,2.05-.74.57-1.49,1.14-2.31,1.71a24.89,24.89,0,0,0-1.79-2.49c-.46-.17-.88,0-.74.92.07.57,1,1.53,1.67,2.13-.78.53-1.6,1.07-2.45,1.57-.61-.75-1.4-2.24-1.64-2.49s-1.22-.39-.9.68a8.69,8.69,0,0,0,1.71,2.3c-.89.5-1.81,1-2.81,1.53-.64-.78-1.43-2.42-1.71-2.74s-.9-.24-.82.54a9.21,9.21,0,0,0,1.67,2.62c-.85.46-1.78.89-2.71,1.31-.53-1-1.24-2.66-1.5-3a.65.65,0,0,0-1.17.25c-.07.39,1,2.13,1.68,3.16-.93.42-1.89.82-2.86,1.17a14,14,0,0,0-1.57-3c-.6-.61-1,.53-1,.53l1.61,2.83c-1.15.43-2.32.86-3.53,1.24a25.16,25.16,0,0,1-1.07-3.19c-.29-.53-1.46-1.06-1.25.22a17.47,17.47,0,0,0,1.21,3.33c-.93.32-1.92.6-2.92.89-.53-1.17-1.21-3.27-1.32-3.59-.14-.49-1.28-1.66-1.18-.21a20.74,20.74,0,0,0,1.46,4.08c-.89.21-1.78.46-2.67.68-1.1-2-1.49-6-1.85-6.46a.54.54,0,0,0-.9-.14c0,2.13,1.15,5.18,1.83,6.81l-1.79.43c-.89-2-2.75-6.71-2.63-9.83,0,0-1.11-.6-1.25,0a55.46,55.46,0,0,0,2.53,10.07,27.55,27.55,0,0,1-1.5-24.8s.25-.17.71-.42c-.61,2.84-1.89,9.36-1.39,12l1-1.85s.54-7.55,1.43-10.53a9.84,9.84,0,0,1,2.38-.46,41.25,41.25,0,0,0-.92,10.57l.82-.32s.39-7.77.93-10.29a18.16,18.16,0,0,1,2.92.25c-.14,1.46-.86,8.87-.54,9.54.47,1,1-.21,1-.21s-.18-7.84.17-9.19c.72.18,1.47.39,2.29.68l.75.21a74.52,74.52,0,0,0,.57,7.55s1,.89.82-.32c-.25-1.49-.43-5.78-.46-7a16.57,16.57,0,0,0,3.1.25c.39,1.7,1.06,6.06,1.06,6.06s1,.43,1-.31-.86-4.19-1.22-5.75c.9,0,1.82-.11,2.78-.21.57,1.31,1.64,4.65,1.64,4.65s1.25.56,1-.54a25.83,25.83,0,0,0-1.82-4.25c1-.18,2-.4,3.07-.68.67,1,2,3.76,2,3.76.54.29,1,0,.89-.67a17.58,17.58,0,0,0-2.07-3.34,27.82,27.82,0,0,0,2.82-1c.57.67,1.68,1.95,1.75,2.69.14,1,1.25,0,.85-.6,0,0-1-1.52-1.71-2.44a30,30,0,0,0,3-1.56,17,17,0,0,1,1.36,2.26c1.71.32.18-1.87-.54-2.73.75-.49,1.5-1,2.21-1.55l1.46,1.77s0,0,0,.05a0,0,0,0,1,0,0l.11.11.21-.29c1.36-.81,6.35-4.39,10.09-14.36,3.64-9.68,1.71,2.8,1.71,2.8s.07,0,.22-.07c0,.18.21.35,1.21.22a5.61,5.61,0,0,0,2.64-1.18c-.14,1-.36,2-.61,3a8.17,8.17,0,0,1-2.85,1s-2.14.64-.43.89a4.75,4.75,0,0,0,3.07-1c-.25.93-.54,1.88-.89,2.88a13,13,0,0,1-2.18.89s-3.49.42-1.35,1a3.59,3.59,0,0,0,3.17-.88,27.55,27.55,0,0,1-1.28,3.08,27.94,27.94,0,0,1-3.39.32c-.43.21-.64.5.11,1,.5.32,1.92-.07,2.85-.36-.36.75-.78,1.53-1.22,2.31a7.67,7.67,0,0,1-2.38-.21s-1.28.32-.89.88c.28.36,1.88.18,2.88,0-.35.61-.74,1.21-1.13,1.85-.9,0-2.5-.21-2.78-.15s-.9.22-.54.68,1.71.36,2.67.36l-1.06,1.49c-1-.12-2.71-.64-3-.68s-1-.21-.75.68c.21.63,2.07.77,3.1.81-.57.68-1.14,1.35-1.74,2a10.45,10.45,0,0,1-2.54-1c-.24-.22-1.56-.53-1,.42.36.64,1.93,1.07,2.89,1.28q-1,1.07-2.13,2.13c-.72-.43-1.72-1.56-2.15-1.77s-.81-.08-.74.6M246,149.65c-1.13-1-4.06-6.52-4.06-14.12,0,0-.39-.92-.64.43s1.25,12.73,3.35,14.75a3.22,3.22,0,0,1-4.42-.7c-2-2.45-7.59-26,1-42.5,0,0,.64-.88.11.82s-2.46,7.52-2,10.29c0,0,2.35-13.06,4.7-11.46a3,3,0,0,1,2.89,3.23s-1.42-3.87-3.21,2.34-1.17,15.18-1.17,15.18,1.06-17.13,2.06-12.56c0,0-2.32,21.89,1.61,32.6,0,0,.39,1.27,1.53,0,0,0-.61,2.77-1.75,1.74m-3.13-49.23c.39,1.28-.93,3.26-.93,3.26a4.27,4.27,0,0,1-1.25-3.29,3.83,3.83,0,0,1-2.82,1.7,26.58,26.58,0,0,0,4-7.88v-.1s0,0,.07,0L242,94c.21,1,1.47,5.78,3.35,8.09a3.75,3.75,0,0,1-2.49-1.64m-25.92,8c-14.93-1.52-21.81-7.8-24-12.59,0,0,6.25,6.18,9.95,7.2a53.9,53.9,0,0,1-7.09-7.3,11.88,11.88,0,0,1,1.46-1.67,27.46,27.46,0,0,0,12.58,7.16c-.25.57-.42,1.14-.21,1.32,0,.32.07.52.32.49.54,0,.71-.89.79-1.59.67.13,1.42.25,2.17.32-.32.81-.64,1.8-.07,1.91.78.07.75-1.06.78-1.85.75.07,1.54.07,2.32.07-.22,1-.46,2.6.43,2.38s.67-1.52.46-2.41c.5,0,1-.07,1.46-.14.33,0,.65-.11,1-.15,0,.93.1,2.95,1,2.49s.24-1.84-.15-2.62a17.85,17.85,0,0,0,2.5-.71c.32,1,1,2.37,1.6,1.73s-.1-1.45-.71-2.09a16,16,0,0,0,9.16-9.93s1.1,4-3.78,8.48c0,0,3.57-.75,7-7.84,0,0,2.1-2.56,3.49.92s-7.84,17.91-22.46,16.42m-6.84.82,0-.6A37.23,37.23,0,0,0,220.77,110a38.33,38.33,0,0,1-10.69-.67m-.5-.11c-.82-.18-1.68-.39-2.53-.64l0-.81c.81.28,1.67.57,2.56.81Zm-3.24-.88c-.75-.25-1.5-.5-2.25-.82l.14-.89c.68.29,1.39.61,2.14.86Zm-2.75-1c-.71-.31-1.39-.63-2.1-1l.21-.85c.64.32,1.29.64,2,1ZM201,106a21.88,21.88,0,0,1-1.89-1.17l0-.85c.6.35,1.28.75,2,1.13Zm-2.49-1.59c-.61-.47-1.21-.93-1.79-1.46l.12-.5c.53.36,1.1.75,1.74,1.14Zm-2.28-1.92a19,19,0,0,1-2-2.09s.75.67,2.1,1.67Zm31.36,34.15s3.54,2.67-2,4.51h-.1a5,5,0,0,0,.39-1.88c0-1.1-.82,0-.82,0l-.64,1.66-1.54-.42.65-1.46c0-1.27-1-.14-1-.14l-.53,1.35-1.89-.61.53-1.17c-.28-.95-.89-.1-.89-.1l-.61,1c-.42-.18-.88-.32-1.35-.5a1.27,1.27,0,0,0,.25-1.06c-.18-.68-.64-.22-.64-.22l-.64.89c-.39-.14-.82-.32-1.25-.5a2.23,2.23,0,0,0,.28-.78c0-.53-.53-.21-.53-.21l-.46.67c-7.42-3.12-16.93-8.69-22.89-18,0,0-.75-2.13,1-.71.92.78,3,4.15,6.94,7.66a8,8,0,0,0,1.22-.74,44.92,44.92,0,0,1-14.87-27.31,29.8,29.8,0,0,1,8.63-26.36l-.82-.85a40.09,40.09,0,0,0-9.55,11.53A32,32,0,0,1,200.2,64.67a4.92,4.92,0,0,1,2.92,2.13s.83.6.36-.82c-.28-.81-1.42-1.42-2.32-1.77.83-.39,1.68-.78,2.57-1.1a5.15,5.15,0,0,1,2.68,2.06s.81.6.35-.85a3.41,3.41,0,0,0-2-1.6,24.48,24.48,0,0,1,2.39-.74,5,5,0,0,1,2.64,2.51s.75.71.46-.78c-.14-.81-1.14-1.56-2-2,.75-.18,1.5-.35,2.29-.5a5.19,5.19,0,0,1,2.13,2.27s.75.71.47-.78a3.07,3.07,0,0,0-1.43-1.7l2.5-.32a5.44,5.44,0,0,1,2,2.2s.71.71.42-.78a2.82,2.82,0,0,0-1.17-1.53l2.24-.1A5,5,0,0,1,219.81,63s.64.81.54-.71a3.09,3.09,0,0,0-1.29-1.84,20.21,20.21,0,0,1,3,.38,5.62,5.62,0,0,1,1.39,2.06s.64.82.54-.7a2,2,0,0,0-.47-1,20.27,20.27,0,0,1,2.5.78,4.4,4.4,0,0,1,.85,2.16s.43.82.61-.53a1.7,1.7,0,0,0-.29-1.13c5.14,2.26,11,7,13.37,17,0,0-1.78,1.91-3.28,1.1s-1.78-9.51-14.76-13.06c0,0,11.19,4.93,11.73,12.49l-1.57-1.35s-6.23-15.78-26.16-8c0,0-10.09,4.19-14.08,13.13,0,0-15.29,39,35.14,52.77m-4.16-4.25s-5.35,1.24-17.22-7.88a37.71,37.71,0,0,1,17.22,7.88m-13.66-16.74,13.12,13.65a22.15,22.15,0,0,1-13.12-13.65m14.76-1-.36,13.65s-4.81-7.3.36-13.65m8.16,20a47.66,47.66,0,0,1,0,10.11c-1.42-.6-2.13-1.28-2.67-5a4.64,4.64,0,0,1,2.67-5.07m-54.93,16.53.14-1.67.15-.14H178v-.07l-.07.1-1.71.15,20.6-19.9.54,1.34Zm15.69-9.93s-.07,0-.11,0a4.4,4.4,0,0,0-2.67,2,.73.73,0,0,0,.49,1,8.57,8.57,0,0,1,2.46-2,.83.83,0,0,1,.51,0l.35.45a1.5,1.5,0,0,1,0,.68,17.88,17.88,0,0,0-2.68,2.13c-.21,1.34,1,1.13,1,1.13a13.13,13.13,0,0,1,2.81-2.52l.32.11a10.74,10.74,0,0,0,.78.75.38.38,0,0,1-.21.17,21.41,21.41,0,0,0-2.81,2.45c-.08,1,.89,1.1.89.78s2.6-2.62,2.6-2.62l.25-.15a5.32,5.32,0,0,1,1.39,1.42c.28.92-2.78,3.9-2.78,3.9a10.38,10.38,0,0,1-6.42-8,3.48,3.48,0,0,1,2.89-3.08c.32.53.61,1,.93,1.49M203.63,149l-2,1.85,1.17.17,1-2c.75.17,1.61.35,2.57.49l-1.82,1.71,1.18.21.89-1.88c.71.11,1.46.21,2.28.32L207,151.67l1.18.21,1-2c1.39.17,3,.32,4.71.42L212,152.1l1,.18,1-2,2.6.22-1.89,1.77,1,.18,1-2c.78,0,1.61.1,2.46.14l-1.75,1.63,1,.18.85-1.81c.93.07,1.89.14,2.89.18l1.14.1-1.49,1.42.78.14.75-1.56c1.42.15,2.7.36,3.88.6l-.89.86.64.1.43-.88c8.31,1.91,11.3,6.67,11.3,6.67,3.89,4.64,1.39,8.9,1.39,8.9.5-6.1-2.74-9.4-6.34-11.21l.64-1.28-1.14,1.07a22.72,22.72,0,0,0-8.2-1.92c-18.32.57-27.48-2.31-27.48-2.31a7.41,7.41,0,0,0,2.63-3.93,13.43,13.43,0,0,0,3.5,1.38m-28.35,4.58c-.78.71-2.13-.75-1.46-1.49s1.36.1,1.36.1.82.79.1,1.39m-3.38,3.55-.57,7.23-13.58,5.22L163,156l7.27-.56,1.6-1.49a3.76,3.76,0,0,1,1,.5h0a4.53,4.53,0,0,1,.57,1.06Zm12.69-19.69a10.17,10.17,0,0,1-8.13-6.24s3.1-3.16,4-2.88a4.51,4.51,0,0,1,1.35,1.28l-.18.25s-2.25,2.59-2.6,2.59-.25,1,.75.89a19.26,19.26,0,0,0,2.46-2.81.69.69,0,0,1,.21-.21c.22.25.47.5.71.78a1.81,1.81,0,0,1,.11.32s-1.64,2.38-2.49,2.8c0,0-.25,1.14,1.14.92a17.36,17.36,0,0,0,2.13-2.62,3.05,3.05,0,0,1,.65,0c.14.14.32.28.5.43a.73.73,0,0,1-.08.46,7.67,7.67,0,0,1-2,2.41.73.73,0,0,0,1,.5,4.22,4.22,0,0,0,2-2.66v0a15.11,15.11,0,0,0,1.6,1,3.47,3.47,0,0,1-3.1,2.84m-11.05-34.79a23.15,23.15,0,0,0-.57-4.12l1-1-1.07.49a12.08,12.08,0,0,0-.36-1.27l.83-.89-1,.46c-.15-.42-.29-.81-.47-1.24l.6-.64-.74.36c-1.68-3.91-5-7.66-11.59-7.1,0,0,4.24-2.55,8.91,1.35,0,0,6.74,4.26,7.49,16.46.07,1.35.14,2.62.25,3.83.25,4.08.5,7.38.82,10l-2.28,1.1.21,1.17,2.07-2.2c.11.85.21,1.67.35,2.41l-2.24,1.07.21,1.17,2-2.16A14.21,14.21,0,0,0,179.7,127a6.81,6.81,0,0,0-3.63,2.52s-3.06-8.59-2.53-26.85m13.58,11.28c-.07-.11-.18-.22-.29-.4l1.15-.88a19.36,19.36,0,0,0,1.07,1.88s-.68.74-1.93-.6m-1.32-2.38,1.22-.92a8.24,8.24,0,0,0,.64,1.34l-1.29.75c-.18-.32-.35-.75-.57-1.17m-.71-1.77,1.21-.79c.14.32.29.64.43,1l-1.29.71c-.1-.28-.21-.6-.35-.92m-.65-1.85,1.26-.71c.1.35.25.75.39,1.14l-1.21.81c-.15-.39-.29-.81-.44-1.24m-.52-1.85,1.24-.56c.11.32.21.67.32,1l-1.24.6Zm-.47-1.94,1.25-.47c.1.39.18.75.28,1.14l-1.25.5c-.1-.4-.21-.78-.28-1.17m-.43-2.28,1.25-.45c.07.45.14,1,.25,1.45l-1.21.53c-.11-.49-.22-1-.29-1.53m-.25-2.12,1.22-.5c0,.46.1,1,.17,1.45l-1.24.36a13.09,13.09,0,0,1-.15-1.31m-.14-2,1.21-.5c0,.36,0,.74.08,1.17l-1.22.46c0-.39,0-.74-.07-1.13m0-1.85s.21-1.49,1.17-.39a8.37,8.37,0,0,0,0,.93,8.81,8.81,0,0,0-1.17.35c0-.29,0-.57,0-.89M183.59,72a6.92,6.92,0,0,1,1.75-.71c-.5,1.42-1,3.26-1.64,5.68a26.06,26.06,0,0,1-.11-5m.33-3.58a8.76,8.76,0,0,1,3.38-1.35A12.77,12.77,0,0,0,185.84,70a6.93,6.93,0,0,0-2.21,1.14c.07-.82.17-1.74.29-2.7m14-10.64c.53-.75,1.14-1.52,1.81-2.41A9.52,9.52,0,0,0,201,57a27.48,27.48,0,0,0-2.1,1.92,13,13,0,0,1-1-1.17m-1.68,4.5a20.46,20.46,0,0,0-2.06,3.87s-1.19-.39,1.17-4.5c.28.21.61.45.89.63m-.43-1.42c.43-.63.89-1.38,1.5-2.19a10.74,10.74,0,0,0,1,.92,25.69,25.69,0,0,0-1.71,2.13,9.55,9.55,0,0,1-.82-.86m12.41-3.22C216,55.87,221.8,56.55,226,58a7.5,7.5,0,0,1-1.07,2c-15.25-4.86-25.69,2.38-25.69,2.38,14.43-17.66,35.86-4.22,35.86-4.22-.36.82.18,3.23.18,3.23-15.94-11.07-27.06-3.76-27.06-3.76m24.24,4.14a13.6,13.6,0,0,1,2.64,3c-1.11-.67-2.14-1.28-3.21-1.84Zm-1.85-1.45c.53.4,1,.75,1.45,1.14l-.49,1.31c-.57-.28-1.15-.56-1.71-.85Zm-3.36.5a18.63,18.63,0,0,0-1.81-.64l.85-2.06c.61.22,1.14.47,1.68.71a14.57,14.57,0,0,1-.72,2m1.22-1.74a10.4,10.4,0,0,1,1.67,1l-.6,1.73c-.54-.24-1.07-.45-1.61-.7ZM184.7,64.45a8.75,8.75,0,0,1,2.85-1s2.1-.6.39-.89a4.6,4.6,0,0,0-3,1c.25-.92.53-1.87.89-2.87a11,11,0,0,1,2.14-.92s3.53-.39,1.39-1a3.89,3.89,0,0,0-3.21.89c.39-1,.82-2,1.29-3.08,1.25-.32,3.13-.19,3.42-.32s.64-.47-.14-1c-.47-.32-1.89.07-2.86.39.39-.79.79-1.56,1.25-2.34a7,7,0,0,1,2.39.25s1.29-.36.89-.89c-.28-.36-1.89-.18-2.89,0,.36-.64.75-1.24,1.14-1.85.9,0,2.5.18,2.75.14s.89-.21.57-.67-1.71-.39-2.68-.39c.32-.46.68-1,1.07-1.45a20.4,20.4,0,0,1,3,.67c.36.07,1,.21.79-.67-.21-.64-2.07-.82-3.11-.82.54-.71,1.15-1.38,1.75-2.06a9.83,9.83,0,0,1,2.5,1c.29.18,1.6.53,1-.42-.35-.68-1.92-1.11-2.89-1.28a28.81,28.81,0,0,1,2.15-2.13c.71.39,1.71,1.56,2.13,1.77s.82.08.75-.64c0-.45-1.35-1.34-2.17-1.8.68-.61,1.35-1.18,2-1.74a17.26,17.26,0,0,1,1.71,2c.43.49,1.11.21,1-.54,0-.53-1.22-1.49-2-2.06a26,26,0,0,1,2.32-1.69,18.38,18.38,0,0,0,1.78,2.44c.47.21.9,0,.75-.88a6.54,6.54,0,0,0-1.68-2.17c.79-.53,1.61-1.06,2.47-1.56.6.75,1.35,2.24,1.6,2.49s1.25.42.89-.68a7.3,7.3,0,0,0-1.67-2.3c.89-.54,1.81-1,2.77-1.53.65.74,1.47,2.45,1.72,2.73s.89.29.85-.53a9.7,9.7,0,0,0-1.67-2.66c.85-.43,1.78-.85,2.71-1.28.53,1,1.24,2.66,1.49,3a.63.63,0,0,0,1.14-.28c.11-.36-1-2.09-1.63-3.16.92-.39,1.85-.78,2.85-1.17a13.71,13.71,0,0,0,1.57,3.05c.6.6.92-.57.92-.57l-1.6-2.84c1.14-.42,2.31-.81,3.56-1.24.5,1,.86,2.77,1.07,3.2s1.46,1.09,1.25-.22a18.17,18.17,0,0,0-1.25-3.33c1-.28,1.93-.57,2.93-.85a33.47,33.47,0,0,1,1.35,3.58c.1.5,1.28,1.63,1.14.21a17,17,0,0,0-1.43-4.07c.86-.25,1.75-.47,2.68-.68,1.1,1.92,1.49,5.92,1.85,6.45a.55.55,0,0,0,.89.15c0-2.17-1.14-5.18-1.81-6.85.56-.14,1.17-.25,1.78-.39.89,2,2.74,6.67,2.64,9.83,0,0,1.1.6,1.24-.08a57.86,57.86,0,0,0-2.53-10,27.57,27.57,0,0,1,1.5,24.79,3.31,3.31,0,0,1-.72.42c.61-2.8,1.9-9.32,1.39-11.95l-1,1.84s-.53,7.53-1.39,10.54a9.84,9.84,0,0,1-2.39.46,43.43,43.43,0,0,0,.93-10.6l-.86.35S231,49.46,230.51,52a14.56,14.56,0,0,1-2.93-.29c.14-1.41.86-8.86.54-9.54-.51-1-1,.22-1,.22s.18,7.87-.18,9.18a16.41,16.41,0,0,1-2.28-.63c-.25-.08-.5-.19-.75-.25.07-1.85-.57-7.56-.57-7.56s-1-.85-.82.36c.25,1.45.43,5.74.47,7a16.61,16.61,0,0,0-3.11-.29c-.39-1.66-1.07-6.06-1.07-6.06s-1-.39-1,.35c0,.57.86,4.19,1.22,5.71a27.57,27.57,0,0,0-2.78.25c-.58-1.34-1.64-4.68-1.64-4.68s-1.26-.53-1,.57a27.87,27.87,0,0,0,1.82,4.26,23.35,23.35,0,0,0-3.1.67c-.65-1-2-3.76-2-3.76-.54-.29-1,0-.89.67a16.28,16.28,0,0,0,2.07,3.3c-1,.29-1.9.64-2.82,1a7.89,7.89,0,0,1-1.79-2.66c-.14-1-1.2,0-.81.57,0,0,1,1.56,1.67,2.48-1,.47-2,1-3,1.53a15.11,15.11,0,0,1-1.36-2.23c-1.71-.32-.18,1.87.54,2.72-.75.47-1.5,1-2.21,1.53l-1.46-1.77,0,0a.11.11,0,0,0-.07,0l-.07-.11-.21.29c-1.36.81-6.35,4.4-10.1,14.32-3.63,9.72-1.71-2.8-1.71-2.8a.54.54,0,0,0-.21.07c0-.14-.25-.31-1.21-.21a5.76,5.76,0,0,0-2.64,1.17c.15-.92.35-1.91.61-3M176,22.11l1.71.17.1.15v-.11h.07l-.07-.11-.18-1.66,19.36,20-1.36.42Zm10.19,15.15A4.5,4.5,0,0,0,184.31,35a.71.71,0,0,0-1,.5,8.53,8.53,0,0,1,2,2.44,13.77,13.77,0,0,0-1.1.89,16.75,16.75,0,0,0-2.11-2.66c-1.39-.22-1.14,1-1.14,1a10.8,10.8,0,0,1,2.32,2.56,12.61,12.61,0,0,0-1,1A23.74,23.74,0,0,0,180,38c-1-.07-1.1.89-.75.89a15.49,15.49,0,0,1,2.5,2.44c-.75.86-1.25,1.49-1.6,1.6-.93.25-3.57-2.48-3.57-2.48,2.6-5.92,7.67-6.7,7.67-6.7a3.49,3.49,0,0,1,3.1,2.87c-.4.21-.75.46-1.11.68m-7.77,10-2-2.16-.22,1.17,2.25,1.06a21.55,21.55,0,0,0-.61,2.59l-1.85-2-.21,1.17,2,1c-.11.7-.22,1.49-.32,2.34l-1.9-2-.2,1.17,2.06,1c-.14,1.39-.32,3-.43,4.72-.07.85-.14,1.74-.21,2.66L175,58l-.17,1,2,1c0,.78-.11,1.6-.18,2.44L175,60.62l-.17,1,1.85.88c-.07,1.17-.14,2.41-.21,3.69a36.49,36.49,0,0,1-.57,4.36l-1-1.06-.14.64,1.1.53c-1.82,8.83-6.88,12-6.88,12-4.67,3.86-8.95,1.34-8.95,1.34,6.53.53,9.88-3.12,11.59-7l1,.45-.78-.81.42-1.17,1.18.57-1-1.07c.1-.42.21-.82.32-1.2l1.28.63-1.14-1.2a23.81,23.81,0,0,0,.57-4.19c-.54-18.23,2.35-27.56,2.35-27.56a8,8,0,0,0,3.92,2.73,14.43,14.43,0,0,0-1.21,2.95m-3.38-27.67s-.79.82-1.4.11.75-2.13,1.53-1.45-.13,1.34-.13,1.34m-2.29-2.3v0a4.1,4.1,0,0,1-1.07.57l-1.6-1.49-7.27-.57L158.14,2.63l0,0h0v0l0,0,13.11,4.82.57,7.24,1.5,1.59a3.14,3.14,0,0,1-.5,1m23.14,3.47S199,24,198.7,24.87c-.06.32-.32.39-1,1a17.11,17.11,0,0,1-2.53-2.48c0-.35-1-.25-.89.74A24.65,24.65,0,0,0,197,26.47c-.28.28-.64.57-1,.92a12.53,12.53,0,0,1-2.56-2.3s-1.14-.25-1,1.13a21.65,21.65,0,0,0,2.64,2.1c-.29.32-.61.67-.9,1.06a8.47,8.47,0,0,1-2.42-1.95s-.68.14-.46,1c.14.67,1.46,1.55,2.21,1.87a15.66,15.66,0,0,0-.93,1.49,3.47,3.47,0,0,1-2.88-3.08,9.77,9.77,0,0,1,6.2-8m28.94-2.79a25.06,25.06,0,0,0,6.52-1.21l1.18,1.09-.64-1.31h0c.39-.1.74-.28,1.13-.42l1,.92-.54-1.13c3.64-1.78,7-5.11,6.45-11.28,0,0,2.5,4.25-1.35,8.9,0,0-3.07,4.79-11.48,6.74l-.5-1.06-.64.13,1,.93a28.32,28.32,0,0,1-4.95.71c-1.07.07-2.1.1-3.06.17L218,19.23l-1,.18,1.86,1.7c-.86.08-1.72.11-2.5.18-.93.07-1.85.11-2.67.18l-1-2.06-1,.18,2,1.88c-1.74.14-3.35.28-4.74.42l-1-2.05-1.14.21,2,1.88c-.85.07-1.63.18-2.35.28l-1-2-1.18.21,1.93,1.81c-1,.18-1.82.35-2.61.53l-1-2.13-1.18.22,2.11,1.95A12.46,12.46,0,0,0,200,24.38a8,8,0,0,0-2.74-4.15s9.27-2.84,27.59-2.3m12.9,3.43c1.14,1,4,6.49,4,14.09,0,0,.46,1,.71-.4s-1.25-12.77-3.35-14.79a3.2,3.2,0,0,1,4.42.75c2,2.44,7.59,26-1,42.52,0,0-.68.86-.11-.81s2.46-7.56,2-10.32c0,0-2.39,13.09-4.7,11.49a3.06,3.06,0,0,1-2.89-3.23s1.42,3.83,3.21-2.37,1.17-15.15,1.17-15.15-1.1,17.1-2.07,12.56c0,0,2.32-22-1.6-32.67,0,0-.39-1.28-1.53.07,0,0,.61-2.76,1.74-1.74m3.29,49.16a9.46,9.46,0,0,1,1-3.44s.64.46,1.14,3.41c0,0,1.39-1.6,3-1.42-2.43,2.41-3.67,6.91-3.89,7.87h-.07c-.32-1-1.75-5.57-3.64-7.87a3.38,3.38,0,0,1,2.54,1.45m25.77-7.94c14.89,1.52,21.81,7.76,23.95,12.55,0,0-6.24-6.13-9.94-7.16a55.56,55.56,0,0,1,7.09,7.27,9.32,9.32,0,0,1-1.5,1.67,27.38,27.38,0,0,0-12.55-7.17c.26-.53.43-1.14.22-1.31,0-.28-.07-.5-.36-.5-.5.07-.67.89-.74,1.63-.72-.14-1.43-.24-2.18-.35.32-.78.64-1.81.07-1.88-.78-.11-.75,1.06-.78,1.81-.75,0-1.54-.07-2.32,0,.21-.95.46-2.62-.43-2.41s-.68,1.56-.46,2.45c-.5,0-1,.07-1.46.14-.32,0-.65.07-1,.14,0-1-.1-2.94-1-2.48s-.22,1.81.17,2.62a23,23,0,0,0-2.49.68c-.32-.92-1-2.38-1.61-1.74s.11,1.46.68,2.09a16,16,0,0,0-9.13,9.93s-1.1-3.93,3.78-8.44c0,0-3.56.75-7,7.84,0,0-2.15,2.52-3.5-1s7.84-17.91,22.46-16.38m6.84-.82,0,.6A38.78,38.78,0,0,0,263,61.05a37.55,37.55,0,0,1,10.69.71m.47.07c.85.18,1.71.43,2.56.68l0,.81a24,24,0,0,0-2.56-.81Zm3.28.89c.74.25,1.49.53,2.24.85l-.14.88c-.68-.31-1.39-.6-2.14-.88Zm2.74,1c.71.32,1.39.67,2.1,1l-.21.89c-.65-.32-1.29-.67-2-1Zm2.56,1.31c.65.35,1.25.75,1.9,1.13l-.08.89c-.6-.39-1.24-.74-2-1.14Zm2.5,1.6c.6.42,1.21.92,1.79,1.41l-.11.53c-.54-.35-1.11-.74-1.75-1.17Zm2.28,1.88a20.58,20.58,0,0,1,2,2.09A24.78,24.78,0,0,0,287.4,69ZM258.7,78c.64.21.21.88.21.88-5.06-.21-5.34,2.8-5.34,2.8l-.82-.32c1-3.65,5.35-3.58,5.95-3.36m8.88-2.45s-1.25,3.19-3.35,3.55c0,0-.22-4.12,3.35-3.55m-11,4.72a4.26,4.26,0,0,1,4.68.46c.42.78.85.74,1.21.53a18.18,18.18,0,0,1-1.86,1.59c-.53.07-4.17,4.94-4.17,4.94,1.11-4.55-1.64-5.43-1.64-5.43,2.18-1.21,3.57,1.24,3.57,1.24.68-3.16-1.79-3.33-1.79-3.33m25.67,10.5c2.25.74,1.64,4.11-1.35,3-2.82-1-4.67-2.2-3.1,1.46S275,97,275,97c-8.84-4.19-6.74-.29-5.27,1.7s-4.43.81-4.43.81a13.41,13.41,0,0,0-6.63-4.18,14.58,14.58,0,0,1-7.16-5l.35-.14a14.27,14.27,0,0,0,6.74,2.73c4.53.25,8,4.86,8,4.86s-1-3.47-4-4.64c0,0,6.95-2.52,12.83,1.91l-4.53-3.69s4.42-3.54,6.06-2a15.47,15.47,0,0,0,3.85,2.51s-4.42-3.54-2.88-4,4.38-2.23,6.84-1.63a8.68,8.68,0,0,0-7.27.42,20.69,20.69,0,0,1,.64-4.32S276,85.88,276,87c0,0-5.95,2.31-6.77,3-.11.11-.14.14-.11.07s.07-.07.11-.07c.54-.74,2.92-4.47,2.18-7.91,0,0-1.93,9.36-8.74,9.36,0,0,1.25-4.32.71-5.67,0,0-1,8.87-10.65,4.08l.42-.15c5.67.57,5.07,0,8.31-4.68s3.42-.92,3.88.82,3.1.88,3.32-3.15,5.85-4.58,5-1.85.64,6.56,1.78,2.2c1.25-4.61,4.56-3.62,4.56-3.62s-1.17,6.56,2.46,4.36S287.82,86,287.82,86a3.89,3.89,0,0,1-3.2,3c-3.18-1.56-4.68,1-2.36,1.78m5.78-8C286,79.92,282,81,282,81c-.82-6.91-6.71-1.63-6.71-1.63-5.09-6.35-8.59,2.9-8.59,2.9-1.06-2.72-2.71-2.16-4-1.17a2.12,2.12,0,0,0,.47-.6,6.63,6.63,0,0,0,5.78-5.78,7.41,7.41,0,0,0-8.53.07c1,.11,2.68,3.13,2.32,4.82s-1.21-.06-1.21-.06c-2.35-7.1-3.1-2.66-3.1-2.66-4.06.71-1-3-1-3C278,63.68,288,82.73,288,82.73m1.14-5.26c.25.86.14,1.53-.54,1.92a8.21,8.21,0,0,0-.64-.81,12.47,12.47,0,0,0,1.18-1.11m-1.46.75c-.25-.21-.5-.5-.79-.78A9,9,0,0,0,288.39,76a6.31,6.31,0,0,1,.5.89c-.32.38-.78,1-1.17,1.38M225,93c-.6-.18-.17-.89-.17-.89,5.06.21,5.35-2.8,5.35-2.8l.81.35c-1,3.62-5.35,3.55-6,3.34m-8.84,2.48s1.25-3.22,3.35-3.54c0,0,.22,4.07-3.35,3.54m11-4.71a4.32,4.32,0,0,1-4.67-.5c-.42-.75-.89-.71-1.21-.5.89-.71,1.6-1.6,1.82-1.6.57-.06,4.2-4.93,4.2-4.93-1.1,4.51,1.64,5.4,1.64,5.4-2.2,1.24-3.56-1.25-3.56-1.25-.68,3.16,1.78,3.38,1.78,3.38M201.49,80.24c-2.25-.71-1.64-4.08,1.35-3,2.82,1,4.67,2.21,3.1-1.41S208.76,74,208.76,74c8.84,4.15,6.74.29,5.27-1.7s4.39-.81,4.39-.81a13.74,13.74,0,0,0,6.67,4.15,15,15,0,0,1,7.16,5.07l-.35.1c-1.47-1-4.14-2.58-6.74-2.69-4.53-.25-7.95-4.86-7.95-4.86s1,3.48,3.95,4.65c0,0-6.91,2.51-12.83-1.92l4.53,3.69s-4.39,3.54-6,2A14.81,14.81,0,0,0,203,79.14s4.38,3.59,2.88,4-4.38,2.27-6.88,1.63a8.66,8.66,0,0,0,7.31-.39,20.27,20.27,0,0,1-.64,4.3s2.07-3.48,2.14-4.65a67.64,67.64,0,0,0,6.77-3c.1-.14.14-.18.07-.07a.4.4,0,0,1-.07.07c-.57.74-2.93,4.44-2.18,7.91,0,0,1.93-9.36,8.74-9.36,0,0-1.25,4.29-.72,5.67,0,0,1-8.87,10.66-4.12l-.43.15c-5.7-.53-5.06.07-8.3,4.72s-3.42.88-3.92-.82-3.07-.89-3.28,3.16-5.85,4.57-5,1.84-.61-6.56-1.79-2.2c-1.21,4.61-4.53,3.62-4.53,3.62S205,85,201.34,87.23s-5.41-2.13-5.41-2.13a3.92,3.92,0,0,1,3.2-3.09c3.18,1.6,4.67-1,2.36-1.77m-5.78,8.09c2,2.8,6,1.7,6,1.7.85,6.88,6.73,1.63,6.73,1.63,5.1,6.35,8.59-2.94,8.59-2.94,1.07,2.73,2.71,2.19,4,1.2a2.53,2.53,0,0,0-.46.57,6.63,6.63,0,0,0-5.77,5.82,7.39,7.39,0,0,0,8.52-.08c-1-.13-2.68-3.15-2.32-4.85s1.21.07,1.21.07c2.35,7.09,3.1,2.66,3.1,2.66,4.06-.67,1,3.08,1,3.08-20.61,10.18-30.7-8.86-30.7-8.86m-1.14,5.21a1.45,1.45,0,0,1,.54-1.88s.21.29.64.82a15.68,15.68,0,0,0-1.18,1.06M196,92.8c.22.24.47.53.75.81a9.33,9.33,0,0,0-1.43,1.45,4.9,4.9,0,0,1-.49-.85c.32-.39.78-1,1.17-1.41m45.67-4.23c-1.18.11-11.16.72-12.09-2a4.89,4.89,0,0,1,2.21-.68V85a2,2,0,0,1-2-1c-.54-1.17,3.81-1.49,11.94-1.56l0,0h.11v0s11.26-.88,12.19,2.06a4.74,4.74,0,0,1-2.17.67v.89a2,2,0,0,1,2,1c.54,1.17-3.7,1.49-11.69,1.6v0Zm45.84,20.15a21.58,21.58,0,0,0,2.06-3.87s1.18.43-1.21,4.51c-.25-.21-.57-.42-.85-.64m-2.11,2.73a19.33,19.33,0,0,0,1.71-2.16c.29.28.58.6.79.85-.39.67-.89,1.38-1.46,2.23a8.81,8.81,0,0,0-1-.92m-.57.6a9.79,9.79,0,0,1,1,1.21c-.53.71-1.1,1.53-1.78,2.38a16.39,16.39,0,0,0-1.28-1.67,20,20,0,0,0,2.1-1.92m-33.57-2.83a14.36,14.36,0,0,1-2.61-3c1.07.67,2.14,1.27,3.17,1.81Zm1.88,1.45a17,17,0,0,1-1.49-1.1l.53-1.35a17,17,0,0,0,1.71.85Zm3.32-.49c.64.25,1.25.46,1.82.67l-.82,2.05a17.3,17.3,0,0,1-1.68-.7c.18-.6.5-1.56.68-2M255.31,112c-.6-.32-1.17-.64-1.67-1l.6-1.74c.54.25,1.07.46,1.61.68Zm-6.8-2.31c15.89,11.07,27,3.76,27,3.76-7.8,1.78-13.61,1.1-17.75-.39a8.12,8.12,0,0,1,1.07-2c15.26,4.82,25.7-2.41,25.7-2.41-14.43,17.69-35.86,4.25-35.86,4.25.36-.85-.17-3.23-.17-3.23m7.59-75.3s-3.49-2.66,2.07-4.5a.24.24,0,0,1,.1,0,4.41,4.41,0,0,0-.43,1.84c.07,1.14.86.07.86.07l.64-1.66c.39.1.93.21,1.53.38L260.23,32c0,1.27,1,.18,1,.18l.53-1.35c.57.18,1.18.35,1.85.6l-.49,1.14c.24,1,.88.1.88.1l.61-.92c.43.14.9.32,1.36.5a1.23,1.23,0,0,0-.29,1c.22.68.68.22.68.22l.61-.85c.42.14.81.31,1.24.5a2.89,2.89,0,0,0-.25.77c0,.5.5.21.5.21l.5-.7c7.42,3.15,16.94,8.76,22.89,18,0,0,.74,2.13-1,.68-.92-.79-3-4.12-6.95-7.63a11.86,11.86,0,0,0-1.21.71,45.32,45.32,0,0,1,14.87,27.31A29.86,29.86,0,0,1,289,98.86l.82.89a40.41,40.41,0,0,0,9.55-11.57,32.11,32.11,0,0,1-15.82,18.2,5.31,5.31,0,0,1-2.93-2.13s-.82-.64-.35.82c.28.81,1.39,1.42,2.32,1.77-.83.39-1.68.74-2.58,1.1a5.2,5.2,0,0,1-2.71-2.06s-.81-.6-.32.82a3.41,3.41,0,0,0,2,1.63c-.79.29-1.57.5-2.39.74a5.33,5.33,0,0,1-2.68-2.51s-.71-.75-.42.74c.14.85,1.14,1.56,2,2.06-.75.18-1.54.35-2.32.5a5.29,5.29,0,0,1-2.14-2.28s-.71-.74-.43.75A3,3,0,0,0,272,110a24.8,24.8,0,0,1-2.54.32,5.38,5.38,0,0,1-2-2.16s-.71-.71-.43.78a2.76,2.76,0,0,0,1.18,1.49c-.75.07-1.5.1-2.24.14a5.06,5.06,0,0,1-2.07-2.62s-.68-.78-.54.71a3.05,3.05,0,0,0,1.29,1.87,16.6,16.6,0,0,1-3-.42,4.84,4.84,0,0,1-1.39-2.06s-.65-.78-.54.71a2,2,0,0,0,.47,1,19.12,19.12,0,0,1-2.5-.82,4.46,4.46,0,0,1-.89-2.16s-.39-.81-.57.53a1.86,1.86,0,0,0,.28,1.17c-5.13-2.27-11-7-13.4-17,0,0,1.78-1.91,3.32-1.09s1.78,9.47,14.76,13.05c0,0-11.2-4.93-11.77-12.52L251,92.37s6.23,15.78,26.16,7.91c0,0,10.09-4.15,14-13.12,0,0,15.33-39-35.14-52.82m4.2,4.33s5.35-1.24,17.22,7.84a37.88,37.88,0,0,1-17.22-7.84M274,55.41,260.84,41.72A22.17,22.17,0,0,1,274,55.41m-14.76.93.35-13.66s4.78,7.31-.35,13.66M251,36.26a44.84,44.84,0,0,1,0-10.11c1.42.6,2.13,1.32,2.67,5.07a4.63,4.63,0,0,1-2.67,5m54.71-15.71-.14,1.66-.14.15.1,0v.11l.08-.11,1.71-.18L286.79,42.08l-.07-.07-.54-1.28ZM290,30.44a.22.22,0,0,0,.13,0,4.41,4.41,0,0,0,2.68-1.95c.18-.85-.5-1-.5-1a8,8,0,0,1-2.46,1.95.63.63,0,0,1-.5.07c-.11-.18-.25-.32-.35-.46a1.46,1.46,0,0,1,0-.67,18.93,18.93,0,0,0,2.67-2.13c.22-1.39-1-1.14-1-1.14a13,13,0,0,1-2.82,2.49l-.32-.11c-.24-.25-.53-.5-.78-.74a.52.52,0,0,1,.22-.15,21,21,0,0,0,2.81-2.48c.07-1-.89-1.1-.89-.75s-2.6,2.59-2.6,2.59l-.25.18c-.75-.67-1.32-1.1-1.39-1.45-.29-.92,2.78-3.87,2.78-3.87a10.32,10.32,0,0,1,6.41,8A3.42,3.42,0,0,1,291,31.93c-.32-.53-.64-1-1-1.49m-10.13-7.66,2-1.84-1.18-.22-1,2c-.75-.22-1.6-.36-2.56-.54l1.81-1.7-1.17-.17-.9,1.84c-.71-.11-1.45-.18-2.28-.29l1.89-1.77-1.17-.21-1,1.95c-1.39-.14-3-.28-4.71-.43l1.89-1.73-1-.18-1,1.91c-.82,0-1.71-.1-2.6-.17l1.89-1.78-1-.18-.92,2c-.79,0-1.61-.11-2.47-.15l1.75-1.63-1-.18-.86,1.78c-.93,0-1.89-.11-2.88-.18a10.45,10.45,0,0,1-1.15-.07l1.5-1.42-.78-.14-.75,1.56a28.54,28.54,0,0,1-3.88-.64l.88-.81-.64-.11-.43.88c-8.3-1.94-11.3-6.69-11.3-6.69-3.88-4.65-1.38-8.87-1.38-8.87-.51,6.1,2.74,9.4,6.34,11.17l-.64,1.31L250.36,16a23.89,23.89,0,0,0,8.2,1.93c18.32-.57,27.48,2.3,27.48,2.3a7.48,7.48,0,0,0-2.64,3.94,12.87,12.87,0,0,0-3.49-1.39m28.34-4.61c.78-.68,2.1.78,1.46,1.53s-1.35-.15-1.35-.15-.86-.74-.11-1.38m3.38-3.51.58-7.24,13.58-5.21-5.28,13.55-7.24.56-1.6,1.49a1.93,1.93,0,0,1-1.53-1.59ZM299,34.34A10.09,10.09,0,0,1,307,40.62s-3.07,3.12-4,2.88a4.63,4.63,0,0,1-1.36-1.28l.18-.25s2.25-2.59,2.6-2.59.22-1-.74-.88a21,21,0,0,0-2.5,2.79.34.34,0,0,1-.18.22l-.71-.82a1.33,1.33,0,0,1-.1-.28s1.63-2.41,2.49-2.8c0,0,.25-1.17-1.14-1a18,18,0,0,0-2.14,2.66,2.15,2.15,0,0,1-.64,0,5.34,5.34,0,0,0-.5-.43.62.62,0,0,1,.07-.42,7.93,7.93,0,0,1,2-2.45s-.1-.71-1-.5a4.31,4.31,0,0,0-2,2.66v.07c-.5-.35-1-.67-1.6-1a3.45,3.45,0,0,1,3.1-2.88m11,34.8a22.72,22.72,0,0,0,.58,4.15l-1,1,1.07-.49c.11.39.22.85.36,1.27l-.82.86,1-.47c.14.43.29.85.46,1.28l-.6.64.71-.36c1.71,3.91,5.06,7.66,11.62,7.09,0,0-4.24,2.53-8.91-1.34,0,0-6.73-4.26-7.49-16.5-.07-1.34-.14-2.58-.24-3.79l2.07-1-.19-1-1.88,2c-.25-4-.51-7.33-.83-10l2.29-1.1L308,50.2l-2.07,2.2c-.1-.89-.21-1.67-.35-2.41l2.21-1.1-.18-1.14-2,2.13a14.45,14.45,0,0,0-1.71-5.07,6.56,6.56,0,0,0,3.63-2.52s3.07,8.62,2.53,26.85m-13.36-12a1.51,1.51,0,0,1,.25.35l-1.11.89c-.35-.6-.71-1.24-1.07-1.88,0,0,.68-.75,1.93.64m1.28,2.34-1.18.92c-.21-.43-.39-.89-.64-1.35l1.28-.74c.19.35.36.74.54,1.17m.71,1.77-1.21.81c-.11-.31-.25-.67-.39-1l1.25-.75a6.86,6.86,0,0,1,.35.93m.65,1.84-1.22.75c-.1-.39-.25-.75-.39-1.14l1.22-.81c.14.39.28.78.39,1.2m.57,1.88-1.25.57-.32-1.07,1.25-.6c.1.36.21.71.32,1.1m.46,2-1.25.43c-.1-.35-.17-.75-.29-1.14L300,65.7c.11.39.22.81.29,1.2m.43,2.27-1.25.47c-.07-.47-.18-1-.25-1.46l1.21-.53c.11.5.22,1,.29,1.52m.25,2.1-1.22.5c0-.43-.1-.93-.17-1.46l1.24-.32c.08.42.11.85.15,1.28m.1,2-1.17.5c0-.36,0-.75-.07-1.17l1.21-.5c0,.39,0,.78,0,1.17m0,1.81s-.21,1.53-1.17.43a7.29,7.29,0,0,0,0-.93,11.38,11.38,0,0,0,1.21-.38,6.7,6.7,0,0,0,0,.88M300.16,99a8.63,8.63,0,0,1-1.75.75c.47-1.46,1-3.3,1.64-5.68a30.67,30.67,0,0,1,.11,4.93m-.36,3.59a7.69,7.69,0,0,1-3.35,1.34,14,14,0,0,0,1.46-2.91,7.35,7.35,0,0,0,2.21-1.13c-.07.85-.18,1.73-.32,2.7m-2.5,32c.26.67,1.26,2.09,1.93,2.27a.73.73,0,0,0,1-.5,8.72,8.72,0,0,1-2-2.41c.39-.28.75-.6,1.1-.89a16.31,16.31,0,0,0,2.1,2.63c1.39.21,1.14-1,1.14-1a9.85,9.85,0,0,1-2.31-2.52c.36-.35.64-.67.92-1a21.47,21.47,0,0,0,2.39,2.66c1,.07,1.11-.89.75-.89a16.89,16.89,0,0,1-2.5-2.48c.75-.85,1.25-1.46,1.61-1.56.93-.29,3.56,2.44,3.56,2.44-2.6,5.93-7.66,6.68-7.66,6.68a3.5,3.5,0,0,1-3.1-2.88c.39-.21.75-.42,1.1-.6m7.78-10,2,2.17.21-1.14-2.24-1.1c.21-.74.42-1.59.6-2.58l1.85,2,.19-1.17-2-1c.1-.71.21-1.49.32-2.31l1.89,2,.21-1.17-2.06-1c.13-1.39.28-3,.42-4.72l1.89,2,.18-1-2.07-1c.07-.81.14-1.7.22-2.62l1.85,2,.18-1-2-1c0-.78.1-1.63.14-2.48l1.71,1.81.18-1-1.86-.93c.07-1.17.15-2.37.22-3.69a36.62,36.62,0,0,1,.57-4.36l1,1.07.14-.61-1.1-.53c1.81-8.83,6.87-12,6.87-12,4.67-3.9,8.91-1.35,8.91-1.35-6.48-.57-9.83,3.12-11.55,6.95l-1-.46.79.85c-.15.39-.29.78-.43,1.17l-1.18-.57,1,1.07c-.11.39-.21.82-.32,1.2l-1.28-.63,1.14,1.2a22.21,22.21,0,0,0-.57,4.15c.53,18.27-2.35,27.6-2.35,27.6a7.79,7.79,0,0,0-3.93-2.74,14.49,14.49,0,0,0,1.22-3m22.81,47-6.59-16.78-7.74-.5-15.33-15a13.87,13.87,0,0,0,9.95-6.34s2.32.78,1-2c0,0,3-6.85,2.31-24.54C310.85,89,321.26,87.58,324,89.18l1.46-1.42A5.82,5.82,0,0,0,321.4,86c-5.45,0-10.94,2-14,13.13-2.93,10.74-.32,18.47-5.21,27.76,0,0-2.38,6.21-8.87,7.88l-5.49-5.57.5-.5c10-9.39,17-23.12,13.33-43,0,0,5.95-24.55-14.15-43l5.63-5.57c6.2,2.24,9.34,8.12,9.34,8.12,4.24,9.68,1.85,16.78,4.77,27.56,3,11.11,8.52,13,14,13.12a5.8,5.8,0,0,0,4.1-1.81l-1.46-1.45c-2.78,1.6-13.19.25-12.55-17.31s-2.11-24.43-2.11-24.43c.9-2.13-1.1-2-1.1-2a14.32,14.32,0,0,0-10.05-6.45l15.33-15,7.73-.49L327.82.15,311,6.78l-.5,7.7-15,15.29a13.58,13.58,0,0,0-6.28-10s.14-2.52-2.1-1.14c0,0-6.92-2.76-24.67-2.09s-19-9.72-17.4-12.49L243.52,2.6a5.75,5.75,0,0,0-1.79,4.11c0,5.43,2,10.86,13.15,13.88,10.84,2.9,18.79.42,28.13,5.28a15.31,15.31,0,0,1,7.74,8.76l-5.67,6-.18-.14,0-.11c-7.16-5.75-17.18-10.71-31.12-13.9,0,0-2.38-3.69-3.7-2.17s-.43,13.52.32,13.84,2.57-1.74,2.57-1.74,1.85-1.95,7.09.6c0,0-4-.71-5.67.32a5.27,5.27,0,0,1,3.6,2.76s-4.81-2.26-6.06,1.85,4.53,3.9,4,.81c0,0-1.25,2-2.5.54s2.89-4.44,3.82-.54-4.42,5.64-6.7,2.28c0,0,0,3.79,3.81,3.58,0,0-7.52,5.42-3.71,9.61a2.09,2.09,0,0,0,2.68.21s-7.31-1.52,4.63-12l-2,4.82,2.28-3.09s.32,8.94,0,10,6.92-3.8,3.28-13.76a57.89,57.89,0,0,1,3.21,6.38l.6-.42a25.52,25.52,0,0,0-1.64-4.22S275.67,59.38,277,59.6c0,0-1.46-8.2-4.85-12.31,0,0,5,3.3,7.2,6.67l.64-.6s-3.2-4.51-4.13-5.15,10.8.93,14.62,20.29c0,0-23.56-19.15-42.53-1.63,0,0-2,1.84-1-.39s3.7-4.82,4.95-5.14c0,0-4.85.21-7.95,6.34,0,0-1.21-2.05-1.92-2.05a4.68,4.68,0,0,0-1.61,2.05A17.61,17.61,0,0,0,238.56,65s4.81,1,5.92-1.91,9.12-25-.61-44c0,0-7-3.7-9.16,4.32,0,0-21,3.51-36.75,16.6h0l-5.2-5.39c1.67-6.46,7.91-8.65,7.91-8.65,9.34-4.83,17.11-2.45,27.91-5.36,11.16-3.05,13.12-8.48,13.19-13.91a5.8,5.8,0,0,0-1.82-4.08l-1.46,1.42c1.64,2.81.25,13.16-17.36,12.49-17.78-.64-25,2.24-25,2.24-2.56-1.39-1.78,1-1.78,1a13.71,13.71,0,0,0-6.31,10L173,14.52l-.5-7.7L155.65.15l0,.07,0,0L162.24,17l7.74.49,15.33,15a13.88,13.88,0,0,0-9.95,6.35s-2.32-.78-1,2c0,0-3,6.89-2.32,24.55s-9.77,18.94-12.58,17.3L158,84.07a5.84,5.84,0,0,0,4.1,1.81c5.46-.07,11-2,14-13.13C179,62,176.43,54.28,181.31,45c0,0,2.39-6.21,8.88-7.92l5.13,5.26v0c-9.95,9.4-16.93,23.16-13.26,43,0,0-6,24.8,14.47,43.24l-6.2,6.06c-6.17-2.2-9.31-8.09-9.31-8.09-4.23-9.71-1.85-16.8-4.77-27.55-3-11.14-8.52-13.09-14-13.13a5.86,5.86,0,0,0-4.09,1.81l1.46,1.42c2.78-1.59,13.19-.21,12.54,17.31-.67,17.7,2.11,24.44,2.11,24.44-.89,2.16,1.11,2,1.11,2a14.36,14.36,0,0,0,10,6.42l-15.32,15-7.74.49-6.66,16.85L172.58,165l.5-7.69,15-15.26a13.57,13.57,0,0,0,6.27,10s-.14,2.48,2.11,1.1c0,0,6.91,2.77,24.66,2.13s19,9.68,17.4,12.48l1.46,1.42a5.45,5.45,0,0,0,1.75-4.08c0-5.43-2-10.86-13.12-13.87-10.84-2.94-18.79-.46-28.13-5.29a15.23,15.23,0,0,1-7.73-8.75l6.1-6.46h.1c7.17,5.67,17.15,10.61,31,13.8,0,0,2.36,3.69,3.71,2.16s.39-13.51-.32-13.83-2.56,1.77-2.56,1.77-1.86,1.88-7.1-.64c0,0,4,.71,5.67-.28a5.38,5.38,0,0,1-3.64-2.76s4.85,2.23,6.1-1.85-4.53-3.9-4-.85c0,0,1.25-1.92,2.49-.5s-2.88,4.4-3.81.5,4.42-5.6,6.67-2.24c0,0,0-3.79-3.78-3.58,0,0,7.48-5.42,3.7-9.64a2.07,2.07,0,0,0-2.67-.22s7.31,1.56-4.67,12l2-4.79-2.24,3s-.32-8.9,0-9.93-6.92,3.8-3.32,13.72a58,58,0,0,1-3.17-6.34l-.64.42a22.45,22.45,0,0,0,1.67,4.19s-11.94-13.23-13.29-13.41c0,0,1.46,8.2,4.84,12.28,0,0-4.95-3.27-7.19-6.68l-.65.64s3.21,4.51,4.14,5.11-10.81-.92-14.62-20.29c0,0,23.56,19.19,42.53,1.64,0,0,2-1.85,1,.42s-3.71,4.82-4.95,5.11c0,0,4.59-.11,8.09-6.49a6,6,0,0,0,2,2.16v.07h0l.11.11v-.11a4.74,4.74,0,0,0,1.47-2.23,12.9,12.9,0,0,0,1.67,2.84s-4.85-1-5.92,1.91-9.16,25,.61,43.94c0,0,7,3.7,9.16-4.28,0,0,20.57-3.48,36.22-16.18l5.56,5.71c-1.68,6.46-7.91,8.66-7.91,8.66-9.35,4.85-17.12,2.48-27.92,5.39-11.15,3-13.12,8.44-13.19,13.9a5.8,5.8,0,0,0,1.82,4.08l1.46-1.45c-1.63-2.77-.24-13.13,17.36-12.49,17.79.68,25-2.2,25-2.2,2.57,1.39,1.78-1,1.78-1a13.65,13.65,0,0,0,6.31-10l15,15.26.53,7.69,16.83,6.67,0,0Z"/></g><polygon class="cls-4" points="314.88 157.17 322.69 165.22 319.76 157.81 314.88 157.17"/><polygon class="cls-4" points="163.42 42.33 165.38 44.03 163.88 41.54 163.42 42.33"/><polygon class="cls-4" points="159.96 51.37 161.95 52.93 160.43 50.59 159.96 51.37"/><g class="cls-3"><path class="cls-4" d="M161.38,19.62l.22-.81a5,5,0,0,0-1.78-.11l.1.85a5.49,5.49,0,0,1,1.46.07"/><path class="cls-4" d="M163.7,19.62l-.78-.35-.29.78a5.1,5.1,0,0,1,1,.67l.49-.67c-.28-.28-.46-.43-.46-.43"/><path class="cls-4" d="M164.52,39l1.57,1.24-1.32-2c.28-.81.57-1.59.79-2.34l1.35,1-1.14-1.71c1.18-4,1.46-6.78,1.24-8a32.58,32.58,0,0,1-3.49,22.56s-1.17,2.38-2.42,5.43l-1.32-2-.46.78L161,55.34c-.29.68-.54,1.42-.82,2.13l-1-1.56-.46.78,1.39,1.1c-.21.64-.46,1.27-.64,1.91l-.89-1.31-.46.78,1.21.93c-.22.77-.43,1.52-.61,2.23l-1-1.49-.14.21a30.54,30.54,0,0,1,3.24-13.4c1.53-3.2,2.74-6.11,3.67-8.66m-6.16,27.74a18.66,18.66,0,0,1-.72-4.82l1,.77a11.56,11.56,0,0,0-.28,4.05m.64,4c3.46,3,8.8,3.06,10.51-.14s-.25-5.07-.25-5.07c-4.63-3.37-5.49.29-5.49.29s-.35,2,1.18,2.34c3.56.77,2.53-2.66,2.53-2.66,2.18.28,3,5.35-1.64,6.34s-6.13-4-6.13-4c-2.5-3.09,6.38-20.75,6.38-20.75a44.44,44.44,0,0,0,2.6-10.68c.43-2.91,1.82-9.89,4.81-9.25,3.35.7,2.07,4.39.18,4,0,0,3.14,1.13,2.92-2.45s-6.27-3.9-8.09.5a18.67,18.67,0,0,0-1.82-5.64l-1.1.35a4,4,0,0,1,.14.57c1.71,8.12-4.67,20.18-7.69,26.14-3.18,6.17-2.5,17.17,1,20.07"/></g><polygon class="cls-4" points="273.35 152.35 274.35 152.17 272.32 150.29 273.35 152.35"/><polygon class="cls-4" points="162.42 45.84 164.45 47.4 162.88 45.05 162.42 45.84"/><polygon class="cls-4" points="160.99 48.71 162.99 50.27 161.46 47.93 160.99 48.71"/><polygon class="cls-4" points="261.34 152.59 262.12 152.45 260.52 150.96 261.34 152.59"/><g class="cls-3"><path class="cls-4" d="M212.39,133.51c-.24-.1-.53-.25-.85-.42l-.22.35.93.32Z"/><path class="cls-4" d="M210.65,132.63c-.39-.22-.79-.43-1.22-.68l-.46.57c.46.18.93.39,1.43.57Z"/><path class="cls-4" d="M208.62,131.46c-.4-.25-.79-.47-1.18-.75l-.57.78c.39.21.79.39,1.21.61Z"/><path class="cls-4" d="M205.91,131l.71-.75-1.18-.85-.78.85c.39.25.82.5,1.25.75"/><path class="cls-4" d="M196.71,70.31l-.64-.71c-.46.32-1,.71-1.46,1.13l.75.82,1.35-1.24"/><path class="cls-4" d="M212.93,133.76l-.11.18c.54.17,1.07.35,1.64.49a15.77,15.77,0,0,1-1.53-.67"/><path class="cls-4" d="M198.63,68.78l-.39-.71-1.39,1,.57.71c.43-.35.82-.67,1.21-1"/><path class="cls-4" d="M203.87,129.72l.89-.85-1-.71-1,.81c.32.25.68.5,1.07.75"/><path class="cls-4" d="M220.66,105.53c-.85.42,0,.64,0,.64,11.26-.43,13.8-8.41,13.8-8.41-7.39,8-12.88,7.38-13.77,7.77"/></g><polygon class="cls-4" points="259.41 152.59 260.05 152.49 258.81 151.32 259.41 152.59"/><g class="cls-3"><path class="cls-4" d="M200.27,67.65l-.35-.64c-.29.18-.64.39-1.07.67l.43.64c.35-.25.71-.49,1-.67"/></g><polygon class="cls-4" points="253.24 154.65 253.88 154.55 252.6 153.38 253.24 154.65"/><polygon class="cls-4" points="268.18 152.56 269.21 152.38 267.18 150.5 268.18 152.56"/><polygon class="cls-4" points="263.37 152.59 264.19 152.45 262.59 150.96 263.37 152.59"/><g class="cls-3"><path class="cls-4" d="M201.91,128.3l1.07-.78c-.46-.36-.92-.74-1.39-1.17l-1.1.81c.46.39.93.79,1.42,1.14"/></g><polygon class="cls-4" points="241.8 94.22 241.8 94.25 241.88 94.07 241.8 94.22"/><g class="cls-3"><path class="cls-5" d="M407.91,328.48l4.2-25.39-2.23-.37-4.19,25.4ZM396.45,313.7l2.59.42a5.94,5.94,0,0,1,2.15.73,3.38,3.38,0,0,1,1.2,1.27,4.22,4.22,0,0,1,.44,1.74,9.75,9.75,0,0,1-.15,2.11,11.71,11.71,0,0,1-.5,2.06,4.06,4.06,0,0,1-.94,1.58,3.51,3.51,0,0,1-1.54.92,5.31,5.31,0,0,1-2.31,0l-2.66-.44Zm.78,13a7.84,7.84,0,0,0,3.26,0,4.79,4.79,0,0,0,2.22-1.2,5.92,5.92,0,0,0,1.41-2.21,14.32,14.32,0,0,0,.8-3,13.06,13.06,0,0,0,.19-2.93,5.76,5.76,0,0,0-.65-2.43,4.81,4.81,0,0,0-1.78-1.81A8.66,8.66,0,0,0,399.5,312l-2.7-.45,1.77-10.73-2.22-.36-4.2,25.39Zm-15.29-28.07a4.56,4.56,0,0,0-1.95,1.18,5.71,5.71,0,0,0-1.24,2,11,11,0,0,0-.66,2.52l-1.89,13.44a6.13,6.13,0,0,0,.82,4.57,5.62,5.62,0,0,0,4,2.12,5.26,5.26,0,0,0,6.44-4.84l-2.26-.73a4.37,4.37,0,0,1-1.38,2.92,3.25,3.25,0,0,1-2.54.6,3.55,3.55,0,0,1-1.56-.56,2.89,2.89,0,0,1-.91-1,3.68,3.68,0,0,1-.41-1.34,6.1,6.1,0,0,1,0-1.48l1.92-13.63a7.46,7.46,0,0,1,.41-1.56,4,4,0,0,1,.78-1.29,3,3,0,0,1,1.18-.83,3.12,3.12,0,0,1,1.64-.14,3.18,3.18,0,0,1,2.39,1.36,4.35,4.35,0,0,1,.42,3.1l2.33-.11a5.15,5.15,0,0,0-4.81-6.4,6,6,0,0,0-2.76.16m-11.45,24.07.27-2.05-8.44-1.09,1.29-9.94,7.37.95.27-2.06-7.38-.95,1.22-9.42,8.44,1.09.26-2.06-10.67-1.38-3.3,25.53Zm-13.22-25.53.22-2.06L346,293.91l-.22,2.06,4.6.48L347.86,320l2.32.25,2.49-23.54Zm-20.67-.41.6,6.22.84,7.59-5.6-.53,2.25-7.22,1.8-6.07Zm4.67,22.5-3.21-26.15-2.28-.22L327.83,318l2.14.2,1.9-6.06,6.37.61.78,6.31Zm-28.59-2.43.87-12.1,2.32.17a7.25,7.25,0,0,1,1.38.24,3,3,0,0,1,1.2.69,4.17,4.17,0,0,1,.95,1.3,7.5,7.5,0,0,1,.6,2.15l1.16,8.16,2.29.16-1.25-8.48a10.87,10.87,0,0,0-1-3.34,3.91,3.91,0,0,0-2.25-1.94,3.94,3.94,0,0,0,2.17-1.55,10.1,10.1,0,0,0,1.49-3.07l2.2-7.32-2.06-.15-2.35,7.37a6.33,6.33,0,0,1-.94,1.95,4.31,4.31,0,0,1-1.19,1.09,3.25,3.25,0,0,1-1.3.47,6.5,6.5,0,0,1-1.24,0l-2.06-.14.82-11.36-2.26-.17-1.84,25.67ZM303.23,296,302,316.15l2.26.14,1.55-25.69-2.17-.13L295,310.28l-.15,0L296,290l-2.25-.13-1.56,25.69,2.1.13,8.8-19.74Zm-24.85-4.63,6.28.25-.92,23.64,2.26.09,1-25.71-10.61-.42-.56,14.34a44.81,44.81,0,0,1-.37,4.58,12.66,12.66,0,0,1-.74,2.85,5.72,5.72,0,0,1-1.09,1.72,8,8,0,0,1-1.41,1.14l1,1.71A9.13,9.13,0,0,0,275.3,314a6.39,6.39,0,0,0,1.41-2.33,18.38,18.38,0,0,0,.83-3.72q.29-2.25.42-5.72ZM267.8,314.65l0-2.07-8.51-.14.17-10,7.43.12,0-2.07-7.43-.13.16-9.5,8.5.14,0-2.07-10.76-.18L257,314.48Zm-28.38-2.31a9.73,9.73,0,0,0,1.28-3.65,41.63,41.63,0,0,0,.44-5.31l.4-12.7,6.7,0-.13,21.67Zm-1.89,2,12.16.06,0,4.88h2l0-6.87h-1.37l.13-23.74-11-.06L239,303.35c-.06,1.43-.13,2.63-.23,3.61a14.92,14.92,0,0,1-.38,2.45,5.51,5.51,0,0,1-.65,1.65,7.32,7.32,0,0,1-1,1.19l-1.29.14,0,6.8,2,0Zm-17.34-20,.55,20.21,2.26-.06-.71-25.72-2.18.05-6.91,20.5-.15,0L212.49,289l-2.25.07.7,25.72,2.11-.05,7-20.43Zm-24.66,8.32,2.58-.1a5.84,5.84,0,0,1,2.27.28,3.4,3.4,0,0,1,1.45,1,4.1,4.1,0,0,1,.78,1.61,10.33,10.33,0,0,1,.29,2.11,12,12,0,0,1-.09,2.1,4,4,0,0,1-.6,1.75,3.41,3.41,0,0,1-1.34,1.2,5.18,5.18,0,0,1-2.27.51l-2.66.1Zm3.39,12.59a7.94,7.94,0,0,0,3.18-.67,4.78,4.78,0,0,0,2-1.63,6.36,6.36,0,0,0,.92-2.44,15.42,15.42,0,0,0,.18-3.12,13.7,13.7,0,0,0-.41-2.91,5.71,5.71,0,0,0-1.13-2.24,4.73,4.73,0,0,0-2.11-1.42,8.83,8.83,0,0,0-3.35-.41l-2.7.11L195,289.65l-2.26.09,1,25.72Zm-24.33-24.46.55,9a8.26,8.26,0,0,0,.57,2.73A4.48,4.48,0,0,0,177,304.3a4.42,4.42,0,0,0,1.84.87,9.16,9.16,0,0,0,2.4.15,13.32,13.32,0,0,0,1.79-.26,7.54,7.54,0,0,0,1.7-.55l.72,11.41,2.25-.14-1.56-25.69-2.25.13.76,12.48a7.55,7.55,0,0,1-1.56.54,8.51,8.51,0,0,1-1.43.23,4.51,4.51,0,0,1-3.16-.69,4.24,4.24,0,0,1-1.15-3.12l-.55-9Zm-7.75,6.07L168.29,317l2.25-.16-1.85-25.67-2.17.16-6,20.78-.15,0-1.45-20.22-2.25.17,1.85,25.67,2.1-.16,6.11-20.72ZM152.3,318.33l-2.42-25.62-2.25.21,1.09,11.52-7,.67-1.09-11.52-2.25.21,2.42,25.63,2.25-.22-1.14-12.11,7-.66,1.15,12.11ZM133,296.44l-.24-2.05-11.5,1.35.25,2.06,4.59-.55,2.76,23.51,2.31-.27L128.37,297ZM116.63,316.1a5.56,5.56,0,0,1-.41,3.11,3,3,0,0,1-2.58,1.61,3.88,3.88,0,0,1-1.66-.12,3.16,3.16,0,0,1-1.21-.74,3.75,3.75,0,0,1-.78-1.17,5.17,5.17,0,0,1-.39-1.41l-1.72-13.31a8.2,8.2,0,0,1,0-1.58,5.2,5.2,0,0,1,.37-1.59,3.47,3.47,0,0,1,1-1.3,3.06,3.06,0,0,1,1.69-.68,3.58,3.58,0,0,1,1.7.13,2.91,2.91,0,0,1,1.2.78,3.68,3.68,0,0,1,.75,1.22,6.77,6.77,0,0,1,.38,1.52Zm.53-13.49a10.94,10.94,0,0,0-.63-2.62,5.49,5.49,0,0,0-1.22-1.93,4.17,4.17,0,0,0-1.94-1.09,7.19,7.19,0,0,0-2.82-.1,6.57,6.57,0,0,0-2.66.86,4.76,4.76,0,0,0-1.61,1.64,5.82,5.82,0,0,0-.69,2.24,11.35,11.35,0,0,0,0,2.6l1.74,13.43a6.35,6.35,0,0,0,2,4.21,6.66,6.66,0,0,0,8.68-1.21,7.22,7.22,0,0,0,.81-5.08ZM103.74,324l-7.28-12.4,3.12-13-2.41.36-2.11,10.62-5.23-9.49-2.38.36L94.22,312l-3.13,14,2.34-.36,2.34-11.35,5.59,10.14Zm-20.21-3a5.58,5.58,0,0,1-.3,3.13,3,3,0,0,1-2.53,1.69,3.63,3.63,0,0,1-1.66-.07,3,3,0,0,1-1.24-.69,3.78,3.78,0,0,1-.82-1.14,5.1,5.1,0,0,1-.43-1.39l-2.19-13.24a8.87,8.87,0,0,1-.1-1.58,5.36,5.36,0,0,1,.32-1.61,3.57,3.57,0,0,1,.9-1.33,3.15,3.15,0,0,1,1.66-.74,3.74,3.74,0,0,1,1.72.07,2.87,2.87,0,0,1,1.21.74,3.61,3.61,0,0,1,.8,1.2,6.38,6.38,0,0,1,.44,1.5Zm0-13.5a11.56,11.56,0,0,0-.72-2.6A5.84,5.84,0,0,0,81.58,303a4.44,4.44,0,0,0-2-1,7.38,7.38,0,0,0-2.82,0,6.58,6.58,0,0,0-2.62,1,4.56,4.56,0,0,0-1.55,1.7,5.53,5.53,0,0,0-.62,2.25,11,11,0,0,0,.13,2.61l2.2,13.35A6.44,6.44,0,0,0,76.44,327a5.56,5.56,0,0,0,4.57.86,5.55,5.55,0,0,0,4.07-2.38,7.41,7.41,0,0,0,.63-5.11Z"/><path class="cls-4" d="M476.19,282.48l-3.59-.87,13.58-55.91,3.59.87.35-1.44L477.18,222l-.35,1.43,3.6.88-13.58,55.91-3.6-.87-.34,1.44,12.93,3.14ZM462.6,220l3.59.87.35-1.43-12.93-3.14-.35,1.43,3.59.87-13.58,55.92-3.59-.87-.35,1.43,13.08,3.18c5.18,1.26,10.29-1,11.69-6.75L467,259.4c1.39-5.75-2.12-10.1-7.29-11.35l-3.74-.91Zm-13.4,55.2,6.28-25.88,3.74.91a3.83,3.83,0,0,1,2.83,4.64l-4.47,18.4a3.82,3.82,0,0,1-4.65,2.83Zm-4.61-60.86L416.4,209l-2.65,13.94,5.09,1,2-10.32a1.48,1.48,0,0,1,1.72-1.17l4.66.88-10.6,55.8-4-.76-.27,1.45,13.8,2.63.28-1.46-4-.75L433,214.36l4.65.89a1.49,1.49,0,0,1,1.18,1.73l-2,10.32,5.09,1Zm-51.95,47a3.85,3.85,0,1,1-7.61-1.16l7.63-49.86a3.84,3.84,0,1,1,7.6,1.17Zm12.87-45a9.77,9.77,0,1,0-19.3-3l-6.42,42a9.76,9.76,0,1,0,19.3,3Zm-26.46-13.15-11.91-1.39-.17,1.46,2.35.28-2.81,23.94a3.85,3.85,0,0,1-7.64-.89l2.82-24,2.35.28.17-1.47-11.9-1.4-.18,1.47,3.68.43-2.35,20a9.69,9.69,0,0,0,4.1,9.49,9.84,9.84,0,0,0-6.34,8.27L348.94,259l-3.52-.41-.17,1.46,11.89,1.41.18-1.48-2.36-.27,2.75-23.36a3.85,3.85,0,0,1,7.64.9l-2.74,23.36-2.35-.28-.17,1.47,11.89,1.4.17-1.47-3.52-.42,2.28-19.39a9.81,9.81,0,0,0-4.25-9.51,9.69,9.69,0,0,0,6.19-8.28l2.35-20,3.67.43ZM333.34,253.9a3.84,3.84,0,1,1-7.65-.72L330.43,203a3.85,3.85,0,0,1,7.66.73Zm10.26-45.68a9.76,9.76,0,1,0-19.43-1.84l-4,42.26a9.77,9.77,0,1,0,19.44,1.84Zm-46.37,46.46-3.69-.14,2.21-57.5,3.7.14.06-1.47-13.45-.52c-5.32-.21-9.89,3-10.12,8.94l-.51,13.37a8.78,8.78,0,0,0,4.49,8.39,8.78,8.78,0,0,0-5.12,8l-.72,18.4a1.48,1.48,0,0,1-1.53,1.42l-2.22-.08-.05,1.48,6.65.25a2.87,2.87,0,0,0,3.07-2.84l.83-21.66a3.82,3.82,0,0,1,4-3.69l3.85.15-1,27-3.33-.13-.06,1.48,12.94.5ZM284.91,225a3.81,3.81,0,0,1-3.7-4L282,201.1a3.81,3.81,0,0,1,4-3.69l3.85.14-1.07,27.57ZM254.8,253.36l-2.59,0v1.48l12,.07v-1.48l-3.7,0,.32-57.54,3.7,0v-1.48l-12-.06v1.48h2.59l-.06,9.91L246.77,234l.21-38.23h2.59v-1.48l-12-.07v1.48l3.69,0L241,253.28h-3.7v1.47l12,.07v-1.48h-2.58l.05-9.84L255,215.12Zm-32.92.1-3.69.1-.11-3.84c7.81-1.18,13.44-6.59,13.2-15.16L230.74,215c-.23-8.57-6.14-13.67-14-14.41l-.12-4.58,3.69-.11,0-1.48-13.3.37,0,1.48,3.7-.1.13,4.58C203,202,197.39,207.38,197.62,216l.54,19.52c.23,8.58,6.15,13.67,14,14.41l.11,3.85-3.7.1,0,1.48,13.31-.37Zm-9.77-5.8c-4.76-.68-7.81-4.22-8-9.32l-.71-25.58c-.14-5.1,2.72-8.8,7.43-9.75Zm4.69-44.81c4.75.68,7.8,4.22,7.95,9.32l.7,25.58c.14,5.1-2.72,8.81-7.43,9.75Zm-32.87,48.53a3.84,3.84,0,1,1-7.67.47l-3.06-50.34a3.84,3.84,0,1,1,7.67-.47ZM187,204.67a9.77,9.77,0,1,0-19.49,1.18l2.58,42.37A9.77,9.77,0,1,0,189.6,247Zm-29.34,1.87a9.77,9.77,0,1,0-19.44,1.84l4,42.26a9.77,9.77,0,1,0,19.44-1.84l-.49-5.15-5.89.56.87,9.13a3.85,3.85,0,1,1-7.66.72l-4.75-50.21a3.85,3.85,0,1,1,7.66-.73l.86,9.13,5.89-.56ZM127.8,256.23a3.85,3.85,0,1,1-7.64.9L114.27,207a3.85,3.85,0,0,1,7.65-.89Zm.46-46.82a9.77,9.77,0,1,0-19.39,2.28l4.95,42.17a9.76,9.76,0,1,0,19.39-2.28Zm-20.07,52.82-3.65.56-8.7-56.88,3.65-.56-.23-1.46L72.66,208l.22,1.46,3.65-.55,7.74,50.51c.71,4.68-.83,5.89-3,6.21l-2,.32.33,2.19,3.51-.54c4.68-.71,8-2.71,6.72-10.83l-7.35-48,7.61-1.16,8.59,56.14-3.66.56.23,1.46,13.16-2Zm-43.92,7.34-2.54.49.28,1.45,11.77-2.24-.28-1.45-3.63.69L59.13,212l3.63-.69-.27-1.45-11.78,2.23.28,1.46,2.54-.49,1.85,9.74-2.7,29.35-7.14-37.57,2.54-.48-.27-1.46L36,214.86l.27,1.46,3.63-.69,10.75,56.52-3.63.69.27,1.46,11.77-2.24-.27-1.45-2.55.48-1.83-9.66L57.14,232Zm-32.2,6.91-3.59.87-.91-3.74C35,270.83,39.33,264.36,37.3,256l-4.61-19c-2-8.33-8.87-12.08-16.71-11.16l-1.08-4.45,3.59-.87-.35-1.45L5.21,222.26l.34,1.45,3.6-.88,1.08,4.46c-7.39,2.78-11.76,9.24-9.74,17.58l4.61,19c2,8.34,8.87,12.08,16.72,11.17l.91,3.74-3.6.87.35,1.44,12.94-3.14Zm-10.78-3.62c-4.79.32-8.52-2.5-9.72-7.47l-6-24.86c-1.21-5,.81-9.18,5.22-11.09ZM16.5,228.05c4.79-.33,8.52,2.5,9.73,7.45l6,24.87c1.2,5-.82,9.18-5.23,11.09Z"/></g></g></g></svg>