<svg xmlns="http://www.w3.org/2000/svg" viewBox="0 0 527.4 529.02"><defs><style>.cls-1{fill:#dd9a63;}.cls-2{fill:#940b1c;}</style></defs><title>Монтажная область 3</title><g id="Objects"><path class="cls-1" d="M200.79,342.78c20.53,0,37.57-15.5,40.9-34.5h-81.8C163.22,327.28,180.26,342.78,200.79,342.78Z"/><circle class="cls-1" cx="175.17" cy="277.89" r="9.61" transform="translate(-73.01 62.68) rotate(-16.85)"/><circle class="cls-1" cx="227.17" cy="277.89" r="9.61" transform="translate(-70.78 77.75) rotate(-16.85)"/><path class="cls-1" d="M394.3,212.36c3.05-6.35,11.47-9.41,11.47-9.41-6.83-2-11.75-.26-15,2,1-7.57-.45-18.24-12.91-25.67,0,0,10.69,13.27,1.9,27.33a82.87,82.87,0,0,0-101,51.44,82.81,82.81,0,0,0-92.68-53.38c-.26-10.81-4.65-32.4-34.42-40.46-40.29-10.91-65.14,22.7-63.18,58.9,1.3,24.14-19.74,28.07-29.39,18.62,0,0,1.3,12.85,17.78,21.66,14.06,7.52,43.12,9.24,51.79-38,4-22,26.12-33.22,36.71-14.09A82.93,82.93,0,1,0,278.77,314.51,82.93,82.93,0,1,0,394.3,212.36ZM200.79,358.22A71.95,71.95,0,0,1,132,265.35c4-4.32,14.24-12.22,37.76-15.07l5.45-18,3.68,16.79s55.6-12.2,91.25,18a71.9,71.9,0,0,1-69.31,91.17Zm156,0a71.89,71.89,0,0,1-69.9-88.9c18.25-3.14,71.89-14.78,96.28-46,0,0,14.91,38,44.89,53.37a71.22,71.22,0,0,1,.67,9.63A72,72,0,0,1,356.76,358.22Z"/><path class="cls-1" d="M356.76,342.78c20.53,0,37.57-15.5,40.9-34.5h-81.8C319.19,327.28,336.23,342.78,356.76,342.78Z"/><circle class="cls-1" cx="330.76" cy="277.89" r="9.61" transform="translate(-15.69 535.95) rotate(-76.72)"/><circle class="cls-1" cx="382.76" cy="277.89" r="9.61" transform="translate(24.37 586.56) rotate(-76.72)"/><path class="cls-2" d="M21,213.16c-.93-1.72-.66-2.91-.07-5.44.29-1.27,3.73-4.57,6-2.61,1.26.29,2.32,1.87,3.08,4.72C30.44,213.85,23,216.31,21,213.16Z"/><path class="cls-2" d="M57.61,177.3c-1.72,4.06-1.94,6.84-4.13,9.74a2.86,2.86,0,0,1-2,.17c-.46-1.2-.46-1.2.22-2.78-.42-1.18-2.58-1.46-3.78-2-5.31-2.21-9.08-4.08-13.18-5.81A67.19,67.19,0,0,0,28.54,174c-1.85-.6-2.81-1.24-6.15-2.61-1.16-.49-2.15-1.18-2.78-.54-.85.83-.55,1.5-1.68,2-1.52,1.22-1.76-.38-2.17-1.56,1-4.24,2.69-7.75,4.4-11.77.34-.82,0-.55.7-1.67,1.85-2.95,7.27-3.58,11.67-2.67,2.44,1,4.83,2.05,6.15,3.57,2.11,1.8,2.7,4.93,3.58,7.26.17,2-.51,3.57-1.54,6a.87.87,0,0,0,.47,1.15c.68.34,2.44,1,3.21,1.36,3.25,1.38,6.17,3.62,9.74,4.13C55.17,176.27,56.66,175,57.61,177.3Zm-20.52-5.82a3.18,3.18,0,0,0,1.83-2.92,8.89,8.89,0,0,0-3.11-5.25,13.91,13.91,0,0,0-4.48-2.57,17.56,17.56,0,0,0-7.18-1.45c-.36.85-1.56,1.3-2.23,2.88l-1,2.44c3.7,2.57,8.16,3.46,12.18,5.16Z"/><path class="cls-2" d="M37.45,132.91c-.81.51-.81.51-1.6,1.08-.83,1.51-2.05,3.72-2.11,5.65.28,1.16,1.48,1.68,3.17,2.61,2.1,1.15,3.14,1.87,4.62,2.68,2.28,1.26,4.21,1.31,5.3,2.92,1.12-.39,2.35-2.64,3.16-4.11-.69-.38-2.2-1.21-1.78-2s.41-.73,1.57-1.1c1,1.58,6.44,2.58,5.61,4.09,0,0-1.6,1.09-2.34.68l-.77-.42c-.39.7-1.64,3-2.05,3.71,1.86,2,5.29,3.2,7.5,4.42s5.31,2.63,6.78,3.44a19.19,19.19,0,0,0,4-5.59c.09-1.92-3-1.64-2.89-3.56.83-1.51,3-.29,4.55.54.77.42,1.08,1.6,1.45,2.76l-2.09,3.79a76.13,76.13,0,0,1-7.37,11.58l-1.51-.83,1.66-3c-4.06-3.24-8.17-4.5-12.73-7l-1.51-.83-7.55-4.15-3-1.64-6.73-3.7-1.66,3-1.51-.83c.89-3.44,2.53-6.42,3.45-9.84l4.13-7.51a2.87,2.87,0,0,1,1.93.06c1.51.83,5.33,1,3.67,4C39.66,134.12,38.57,132.52,37.45,132.91Z"/><path class="cls-2" d="M57.75,117.56c.94,1.67,1.82,3.35,2.73,5,.72.5.72.5,1.2-.19,1.19-.25,2.82-1.11,4-1.36,4.25-.17,8.47,2.74,12.44,4.46,1.41,1,2.28,2.61,3.48,2.42.7.48,2.42-.68,3.14-.18a3.33,3.33,0,0,1,1,1.41c-1.45,2.11-3.38,5.12-4.34,6.5a1.37,1.37,0,0,1-1.57-.68l-.44-2.39c-1-1.64-2.76-1.92-4.18-2.9L71,126.74l-.69-.48c-2.07-1.43-5.38-2.7-7.06-1.76a5.53,5.53,0,0,0-2.91,4.21c.44,2.4,5.12,4.56,7.88,6.48,1.42,1,1.64,2.2,3.06,3.18l2.76,1.91c1.67-.94,3.56-.7,3.3,1.21-2.16,1.57-1.72,4-3.85,5.57-1.22.22-1.22.22-1.88-.24-.22-1.22.23-1.88-.46-2.36l-3.49-2.41-5.59-3.87s0-.09-.72-.6l-.7-.38c-.66-.45-1.57-2.16-3-3.14-4.18-2.89-9-6.26-13.08-8l-2.07-1.44c-.45.66-1,1.39-1.68.88-.48.7-1.9-.49-2.05-1.31s.84-1.36,1.82-2.78,2.8-5.52,4.87-4.09c.69.48.19,1.21.43,2.4,2.77,1.91,5.39,2.7,8.15,4.61.73.5,1.63,2.15,2.8,1.94C58.11,123,56.3,119.67,54,117c-1.42-1-2.27-2.63-3.68-3.61l-1,1.41c-.73-.5-1.23.23-1.92-.25-.88-1.68,1.27-3.31,1.53-5.17,2.15-1.63,3.76.55,2.8,1.93A26.3,26.3,0,0,1,57.75,117.56Z"/><path class="cls-2" d="M97.24,113.94A9.68,9.68,0,0,1,85.66,122a40.87,40.87,0,0,1-6.27-2,41.84,41.84,0,0,1-8.29-6.09c-1.3-1.13-2.4-1.59-3.9-3.39A21.53,21.53,0,0,0,65,108c-1.09-1.5-2.48-2.65-2.53-3.87-.89-4.16-3.66-8.85,1-12.84,2.2-2.53,4-3.28,7.06-2.87,3-.84,7.25.23,10.86,2.8a42.05,42.05,0,0,1,3.53,2.85,38.3,38.3,0,0,1,11.93,16.37A7.71,7.71,0,0,1,97.24,113.94Zm-7.19-7.42a24.35,24.35,0,0,0-5.28-5.7c-1.3-1.13-1.84-2-3.11-3.08s-2.72-2-4-3.12c-1.86-.49-3.16-1.62-5-2.08s-4.16-1.5-5.92-.75C65.61,93,65.41,93,64.28,94.31a13.56,13.56,0,0,0,2.24,6.51,10.66,10.66,0,0,0,3.32,4.06,65.91,65.91,0,0,0,14.82,11.7c1.85.49,3.15,1.62,4.39,1.54.55-.64.82.21,1.65.15,1.84-.13,4-3.83,3.26-5.35A60.2,60.2,0,0,0,90.05,106.52Z"/><path class="cls-2" d="M99.8,75.53c-1.09-1.79-1.49-2.94-3-5.68a21.35,21.35,0,0,0-2.56-4.46,3.73,3.73,0,0,1,.35-4.86l3.86-3.43c.66-.59,1.22,0,2.46.11-.07,1.25-.2,2.43-2,3,1,2.5,2.85,3.2,4.58,5.15l2.31,2.6,2.87,3.24,4.61,5.18a55.78,55.78,0,0,0,4,4.52c2.69,2.39,4,4.56,5.75,6.47,2-1.73,4.93-1.46,4.23.34-.66.59-.89.45-1.55,1s-.56.89-1.21,1.48l-1.33.78c.18-.55-.61.83-2,2.11-.59-.66-.93.22-1.49-.41s.7-1.81.77-3c-4.67-3.94-8.6-8.93-13.34-14.39-.83-.94-2.19-3.1-3.31-4.36l-2.31-2.61a3,3,0,0,0-1.34-1c-.53-.59-.39-.94-1.64-1a3.41,3.41,0,0,1,1.08,1.41c.81,2.31,2.79,5.55,4.45,8.74,0,0,.73,1.71,1.19,2.48,2.65,4.44,2.66,4.38,4,6.75.83,1.51,3.26,4.18,2.6,4.77s-1.87.48-2.47,1a14.2,14.2,0,0,0-3.53-2.65c-2.35-1.51-4.33-2.84-6.65-4.26-1.47-.89-2.7-1.65-4.78-2.72a6.64,6.64,0,0,0-2.85-1.18l4,4.52c1.31,1.48,2.83,4.45,4.53,6.37l2.9,3.26,5.16,5.81c.63-.56,1.29-1.14,1.88-.48,1.73,2-3.38,5.3-4.67,6.45-.66.58-1.22-.05-2.46-.12.07-1.24-.51-1.9,1.39-2.42l-5.75-6.47-7.47-8.41-1.14-1.29-5.75-6.47-4-4.52c-.66.59-.37.73-1,1.26s-1,.5-1.64,1.06c-1.25-.08-1.25-.08-2.39-1.37,1.36-2.38,5.15-4.57,7.68-5.7,1.8.76,3.58,1.43,5.38,2.13l.59.66a92.5,92.5,0,0,1,10.75,5.85,21.59,21.59,0,0,0,4.15,1.82A60.38,60.38,0,0,0,99.8,75.53Z"/><path class="cls-2" d="M120.79,45.52c-1,.1-1,.1-1.91.25-1.42,1-3.49,2.41-4.41,4.12-.27,1.16.57,2.16,1.67,3.75,1.36,2,2,3.07,2.93,4.45,1.48,2.15,3.19,3.06,3.44,5,1.18.15,3.29-1.3,4.67-2.26-.46-.65-1.44-2.07-.71-2.57s.69-.48,1.89-.29c.23,1.88,4.61,5.19,3.2,6.17,0,0-1.92.25-2.4-.44l-.5-.73-3.49,2.42c.75,2.64,3.3,5.22,4.73,7.29s3.58,4.73,4.53,6.11a19.08,19.08,0,0,0,6.11-3.2c.94-1.67-1.93-2.8-1-4.47,1.41-1,2.85,1.09,3.83,2.51.5.73.25,1.92.06,3.12l-3.56,2.46a76.76,76.76,0,0,1-11.76,7.06l-1-1.42,2.83-2c-2.19-4.72-5.3-7.67-8.26-12l-1-1.41c-1.48-2.15-2.94-4.25-4.89-7.09l-1.94-2.79-4.37-6.33-2.83,2-1-1.41c2.33-2.69,5.13-4.62,7.48-7.27l7-4.87a3,3,0,0,1,1.71.91c1,1.42,4.33,3.24,1.49,5.2C122.23,47.59,122,45.67,120.79,45.52Z"/><path class="cls-2" d="M149.6,36.87l3.67,6.71,3.29,6c2.06,3.76,5.32,7.86,7.36,11.58,1.14.34,1.91-.09,2.33.69l.83,1.51a.46.46,0,0,0-.82.25,2.67,2.67,0,0,1-1,.81c-.77.43-1.16.59-2.67,1.42-.77.42-1.05.62-1.75,1-1.14-.34-.88-.57-.55-1.71-.42-.78,1.05-1.58.65-2.32-2.56-6.41-7-12.71-10.28-18.75a.87.87,0,0,0-1.2-.35c-2.61.48-5.19,2.85-7.48,4.1-.68,2.34.15,3.85,1.4,6.13l4.5,8.22,1.26,2.28c1.6,1.09,1.21,2.21,2.81,3.3.73-.41,3.07.27,2,1.84-3,1.65-4,3.21-7.48,4.1,0,0-1.6-1.09-1.23-2.25l1.51-.83c-.43-.77-.83-1.51-1.64-3l-9.47-17.28-.82-1.51-.41-.73c-.42-.78-.8-1.48-1.21-2.21l-.42-.78c-1.6-1.08-2.06-3.75-3.66-4.84a2.71,2.71,0,0,1-1.94,0,1.2,1.2,0,0,1-.82-1.51l3-1.65c1.51-.83,3.31-2.78,5.23-2.87a1.85,1.85,0,0,1,2.33.68c.43.78-1.08,1.6-1.82,2-.37,1.16.83,1.51,1.66,3s1.28,4.18,2.86,5.23a21.07,21.07,0,0,0,9-4.93c-1.21-2.21-3.29-6-5.29-7.82-1.13-.39-2.21,1.21-3.38.84l-.82-1.51a7.86,7.86,0,0,1,4.05-3.18,13.54,13.54,0,0,0,2.28-1.25c1.92-.09,3.17,2.19,1.66,3C147.11,32.34,148.34,34.59,149.6,36.87Z"/><path class="cls-2" d="M192.09,58.29c.48,1.16-.37,1.52-2.08,1.77-1.18-.43-1.65-3.46-2.71-4.16-.56-.36-.8-.49-1.16-.38-1.73.66-3.61,1.39-5.07,2l-.11,0c-1.52.62-7.81,3-10.81,4.31.47,1,2.84,4.78,2.39,5.78-2.88,2.19-3.22-2.4-5-4.41-.35-.86-1.46-2.22-.68-2.54l.85-.35a6.46,6.46,0,0,1,1.63-.8c.17-1.89-.59-3.08-1.11-5-1.34-5.13-2-11.13-2.82-16a102.08,102.08,0,0,0-4.27-16.77l.44-1.13c2.09-1.77,3.75-2.37,5.45-.34,5.46,10.06,13.39,22,19.47,32.18a2.15,2.15,0,0,1,1.86-.13,2.2,2.2,0,0,1,.68.13l.33.45.19.15,0,.17A20,20,0,0,1,192.09,58.29Zm-19.93.12L181,54.88a2.92,2.92,0,0,0-.34-.82c-3.74-8-7.95-13.8-11.46-21.67-.6-1.34-1.91-3.3-2.72-3C169,38.61,169.38,49.34,172.16,58.41Z"/><path class="cls-2" d="M206.54,47.59a9.67,9.67,0,0,1-14.11.47A41.35,41.35,0,0,1,188.26,43a41.72,41.72,0,0,1-3.64-9.62c-.47-1.66-1.15-2.65-1.43-5a20.71,20.71,0,0,0-.46-3.28c-.09-1.85-.63-3.57,0-4.62,1.52-4,1.75-9.42,7.81-10.25,3.23-.92,5.11-.59,7.49,1.44,3,.93,5.95,4.14,7.57,8.27A36.93,36.93,0,0,1,207,24.25a36.38,36.38,0,0,1,1.83,9,36.37,36.37,0,0,1-.74,11.27A7.83,7.83,0,0,1,206.54,47.59Zm-2-10.14a24.54,24.54,0,0,0-1.32-7.66c-.48-1.65-.46-2.66-.93-4.28s-1.21-3.15-1.68-4.8c-1.29-1.42-1.76-3.08-3.09-4.49s-2.67-3.52-4.55-3.85c-1.58.45-1.75.33-3.4.8a13.57,13.57,0,0,0-1.67,6.69,10.79,10.79,0,0,0,.58,5.21A66.09,66.09,0,0,0,194.55,43c1.28,1.42,1.76,3.08,2.85,3.68.81-.23.57.63,1.3,1,1.61.89,5.48-1,5.64-2.71A59,59,0,0,0,204.55,37.45Z"/><path class="cls-2" d="M226,19a13.61,13.61,0,0,1,5,8.67c1.92,5.76.59,13-3.17,16.26-1.55,1.13-3.25,1.43-5.77,1.88-1.69.3-3.54-.23-5.23.07s-2.52.45-2.82-1.25l-.16-.87,2.52-.44c.12-4.38-1.64-9.27-1.67-14.51l-.29-1.65c-.3-1.7-.46-2.56-.75-4.22l-1.5-8.48c-.45-2.52-.89-5-1.19-6.74-1.7.3-3.4.6-3.7-1.09.68-1,2.38-1.27,4.08-1.58,4.21-.74,8.43-1.49,10.43-.09,1.12,1.54,2.14,2.22,2.59,4.74,1.27,2.38.17,6.07-1.18,8.06C223.35,18.59,224.17,18.45,226,19Zm-10.23-8.63c.45,2.52.75,4.21,1.88,5.76,1,.68,1.54-1.16,2.22-2.14.42-2.67.79-5.38-.33-6.89-1-.72-2.71-.42-3.54-.27C215.35,7.85,215.49,8.68,215.79,10.38Zm11.15,28.47c.68-1,.38-2.66.23-3.49.67-1,.67-1,.53-1.84.56-1.85-.9-5.09-1.2-6.78s-.09-1.91-1.21-3.46c0,0,.05-.18-.19-.82,0,0-.46-.64-.93-1.41a8.18,8.18,0,0,0-5.91-1.56c-.67,1-.37,2.71-.23,3.54l2.4,13.52c.29,1.66.75,4.22,1,5.87,1.65-.29,3.35-.59,4.07-1.57Z"/><path class="cls-2" d="M247.75,22.83c-1.68.13-4.43-.53-7-.33-.86,1-.71,2.72-.56,4.6-.68,3.59-.34,7.87,0,12.43,1,.72,1.89-.15,2.75.58a13.68,13.68,0,0,1,0,1.77c-2.53,2.06-5.19.37-7.67,1.54l-2-1.61a4.49,4.49,0,0,1,2.5-1.93c.92-.07.85-1,.77-1.87.41-5.43.66-13.37,1-19.68a15.62,15.62,0,0,1,1.28-7.18A27.63,27.63,0,0,1,242.53,2s1.7-2,3.45-1.2c2,.77,4,4.1,4.18,5.9a14.14,14.14,0,0,1,1.72,4.63c1.39,6.88,2.44,14.68,3.87,22.48l.43,5.36c.06.8,2,1.61.21,2.64l-1.11-.16c-1.76.14-3.25.51-5.05.65-.91.16-2.31.65-2.37-.14S249,38.78,250,38.71C249.52,33.35,249,27.19,247.75,22.83ZM241,15.41c.06.79-.52,3.54-.44,4.54a23.77,23.77,0,0,0,7,.24l-.42-5.28a30.67,30.67,0,0,0-2.38-8.74.88.88,0,0,0-1-.8l-.85,1C242.25,9,241.55,11.82,241,15.41Z"/><path class="cls-2" d="M280.52,10.53l-.22,7.64c-.05,1.72-.12,4.32-.19,6.84-.12,4.28.61,9.47.49,13.71.82.86,1.7.89,1.67,1.77l0,1.72a.46.46,0,0,0-.84-.19,2.81,2.81,0,0,1-1.31.17c-.88,0-1.3-.08-3-.13-.88,0-1.22,0-2,0-.82-.86-.48-.94.38-1.76,0-.88,1.71-.83,1.73-1.67,1-6.82.41-14.48.61-21.36a.87.87,0,0,0-.86-.91c-2.5-.91-5.92-.17-8.52-.24-1.77,1.67-1.82,3.39-1.89,6l-.27,9.36c0,.89-.05,1.72-.07,2.61.83,1.74-.08,2.52.76,4.26.84,0,2.51,1.79.76,2.59-3.44-.1-5.1.73-8.52-.25,0,0-.83-1.74.08-2.56l1.72,0c0-.88,0-1.72.09-3.4l.56-19.69c0-.88,0-.88.05-1.72l0-.84c0-.88.05-1.67.07-2.51l0-.89c-.83-1.74.12-4.28-.71-6a2.73,2.73,0,0,1-1.7-.93,1.22,1.22,0,0,1,.05-1.73l3.44.1c1.73,0,4.27-.72,6,.17a1.86,1.86,0,0,1,1.68,1.77c0,.88-1.75.83-2.59.81-.9.81-.05,1.72-.1,3.44s-1,4.26-.17,6a21.06,21.06,0,0,0,10.25.29c.07-2.52.19-6.84-.62-9.42-.77-.91-2.52-.08-3.33-1L274,.85a7.91,7.91,0,0,1,5.1-.7,14,14,0,0,0,2.6.08c1.7.88,1.63,3.49-.09,3.44C280.67,5.36,280.59,7.93,280.52,10.53Z"/><path class="cls-2" d="M300.45,43.22a9.67,9.67,0,0,1-13.08-5.31,40.15,40.15,0,0,1-1.74-6.35,41.64,41.64,0,0,1,.59-10.27c.24-1.7,0-2.88.72-5.11a21.87,21.87,0,0,0,.91-3.18c.66-1.73.87-3.53,1.86-4.24,3-3,5.44-7.89,11.3-6.18,3.33.47,4.92,1.54,6.26,4.36,2.34,2.07,3.76,6.21,3.56,10.63a40.27,40.27,0,0,1-.46,4.52,36.48,36.48,0,0,1-2,8.93,36.15,36.15,0,0,1-5.26,10A7.68,7.68,0,0,1,300.45,43.22Zm2.3-10.07a24.34,24.34,0,0,0,1.91-7.53c.23-1.71.66-2.62.89-4.29s.18-3.36.42-5.07c-.6-1.82-.36-3.53-1-5.36s-1-4.3-2.6-5.37c-1.62-.22-1.72-.41-3.43-.65a13.66,13.66,0,0,0-4.24,5.43,10.72,10.72,0,0,0-1.59,5,66,66,0,0,0-1.74,18.79c.59,1.83.35,3.53,1.1,4.53.84.11.27.8.77,1.46,1.11,1.47,5.42,1.31,6.26-.18A58.27,58.27,0,0,0,302.75,33.15Z"/><path class="cls-2" d="M348.77,63.4c-.42,1.19-1.3.88-2.74-.08-.59-1.1,1.09-3.67.77-4.9-.18-.64-.26-.89-.61-1.06-1.72-.66-3.61-1.38-5.13-1.87l-.11,0c-1.55-.55-7.81-3-10.92-4-.34,1.08-1.1,5.45-2.1,5.89-3.59-.3-.78-3.93-.8-6.66.31-.87.4-2.62,1.19-2.34l.87.31a6.49,6.49,0,0,1,1.75.49c1.39-1.29,1.62-2.68,2.52-4.45,2.43-4.71,6-9.61,8.61-13.79a102.07,102.07,0,0,0,8-15.33l1.08-.54c2.74.08,4.37.75,4.28,3.39-2.67,11.13-4.79,25.35-7,36.94a2.19,2.19,0,0,1,1.46,1.15,2.44,2.44,0,0,1,.43.55l-.07.56.05.24-.09.14A20.3,20.3,0,0,1,348.77,63.4Zm-14.9-13.24,8.91,3.26a3.25,3.25,0,0,0,.3-.83c2.56-8.45,3.31-15.58,6-23.77.46-1.4.8-3.73,0-4C344.73,33.3,337.87,41.56,333.87,50.16Z"/><path class="cls-2" d="M356.49,53.3c2.93-4.41,7-8.9,10.06-12.77a102.83,102.83,0,0,0,9.66-14.37l1.14-.43c2.71.38,4.26,1.23,3.88,3.84-3.86,10.78-7.52,24.69-11,36,.79.39,1.55.75,1.59,2.69a1,1,0,0,1-1.18.41c-2.26-.54-5-3.41-7.71-3.74,0-1.91,1.13-2.34,2.28-2.67,1.95-8.86,5.74-14.77,8.51-23,0-1.14,0-1.87-.82-2.26-5.18,8-11.68,13.72-16.59,21.84.8.38.41,1.18,1.17,1.54l-.37.76a.85.85,0,0,1-1.14.43,37,37,0,0,0-5.14-2.49,4.41,4.41,0,0,1,.33-1.75c.39-.8.8-.59,2.35.16C355,56.33,355.41,55,356.49,53.3Z"/><path class="cls-2" d="M408.51,48.1c-2.4,3.85-4.13,6.69-6.41,9.71-1.21,1.63-7,11.85-3.84,6.72l-8.12,13A3.44,3.44,0,0,1,392,79.67c-1.76,1.08-2.48.63-4-.35-1-1.69-4.22-2.92-5.71-3.86-.75-.46-.29-1,.2-1.75s2,.24,2.44-.51A12.48,12.48,0,0,0,388.48,69c1.73-2.78,4.44-6.88,6.53-10.63-1-1.74-2.25-2-4.37-1.73-1.9.2-3.28,2-4.61,4.15l-3.16,5.06c-.91,1.46-2.46,2.42-2.69,4.31l.55,2.37a1.39,1.39,0,0,1-1.18,1.25c-1.42-.89-4.7-3.09-6.88-4.45a3.46,3.46,0,0,1,.37-1.7c.47-.75,2.51-.36,2.95-1.08,1.18-.3,2.14-2.62,3.05-4.09,2.6-3.37,4.87-7,8.49-8.76a15,15,0,0,1,2.06-.29,12.38,12.38,0,0,1-.2-6.27c.47-2.57,2.78-5.24,4.05-6.48,3.82-3.75,11.06-1.46,15.2,2.21.71.44.7,1,1.45,1.49,2.31,1.45,3.29,2.11,1.89,4.35C411.49,49.52,410,49,408.51,48.1ZM397,55.65l1.29-1.42c2.75-3.93,4.83-7,6.86-10.28-.72-.44-2.89-2-3.9-2.08a5.41,5.41,0,0,0-4,2.24c-.94,1.49-1.13,1.17-2.16,3.45-.59,1.27-1.26,5-.43,6.72C395.48,54.78,396.3,55.29,397,55.65Z"/><path class="cls-2" d="M422.75,114.69c-.86.91-1.53.28-2.47-1.18-.09-1.24,2.47-2.92,2.67-4.18.1-.65.12-.92-.12-1.21-1.32-1.3-2.76-2.71-3.95-3.78l-.09-.08c-1.19-1.13-5.94-5.89-8.38-8.08-.74.86-3.19,4.56-4.29,4.56-3.17-1.72.86-3.92,1.95-6.42.63-.67,1.42-2.24,2-1.66l.67.63a6.08,6.08,0,0,1,1.4,1.15c1.8-.62,2.56-1.8,4.1-3.06,4.12-3.33,9.32-6.4,13.43-9.17a102.2,102.2,0,0,0,13.52-10.79l1.22-.07c2.47,1.17,3.7,2.45,2.55,4.83-6.92,9.11-14.58,21.29-21.31,31a2.16,2.16,0,0,1,.88,1.64,2.19,2.19,0,0,1,.17.68l-.28.48-.05.24-.15.09A19.81,19.81,0,0,1,422.75,114.69Zm-8.32-18.12,6.85,6.57a2.91,2.91,0,0,0,.61-.64c5.74-6.71,9.3-12.93,15-19.37,1-1.1,2.22-3.1,1.58-3.7C431.16,85.5,421.56,90.3,414.43,96.57Z"/><path class="cls-2" d="M466.6,99.18c-.2-.94-.2-.94-.46-1.88-1.13-1.3-2.78-3.21-4.57-3.93-1.18-.15-2.08.8-3.54,2.06-1.81,1.57-2.85,2.3-4.12,3.4-2,1.71-2.69,3.5-4.57,4,0,1.19,1.65,3.13,2.75,4.4.6-.53,1.91-1.65,2.48-1s.55.64.49,1.86c-1.84.43-4.65,5.14-5.78,3.84,0,0-.46-1.88.17-2.43l.67-.58-2.78-3.2c-2.54,1-4.83,3.85-6.73,5.5s-4.32,4.06-5.59,5.16a19.3,19.3,0,0,0,3.85,5.73c1.76.75,2.57-2.23,4.33-1.48,1.13,1.31-.77,3-2.07,4.08-.67.58-1.88.46-3.1.41l-2.83-3.28a75.69,75.69,0,0,1-8.3-10.92l1.3-1.13,2.26,2.6c4.45-2.69,7.05-6.1,11-9.51l1.31-1.13,6.5-5.64,2.58-2.22,5.81-5-2.26-2.6,1.3-1.13c2.93,2,5.15,4.6,8,6.66l5.61,6.47a3,3,0,0,1-.72,1.8c-1.3,1.13-2.75,4.65-5,2C464.7,100.83,466.58,100.37,466.6,99.18Z"/><path class="cls-2" d="M483.2,121.85c.22-1.22-2-2.85-3-4.26-2,.32-3.61,2.54-5,3.55l-13.54,9.52-5.77,4.06-1.45,1c-1.41,1-2.91,1.49-3.57,2.52-.46.73,1.5,2.13.09,3.12a3.12,3.12,0,0,1-1.74-.94L444.64,134c-.51-.72.21-1.23.94-1.74.5.73,1.67.93,2.18,1.65,2.85-2,6.37-4.38,8.63-6.06,2.88-2.18,5.63-4,8.55-6l3.58-2.51,1.44-1c2.85-2,5-3.5,6.67-5.77-1.28-3.36-4.49-6.39-7.61-3.17a1.17,1.17,0,0,1-1-1.41c1.4-1,3.1-3.26,5.05-3.55a11.84,11.84,0,0,1,4.66,4c1.5,2.13,3.73,4.93,5.32,7.2s4,5.7,3.09,7.38c-1.63,2.22-4.55,4.27-6,2.14C480.28,123.91,482.23,123.61,483.2,121.85Z"/><path class="cls-2" d="M496,143.47c0-1,0-1-.07-1.94-.85-1.5-2.08-3.7-3.69-4.77-1.13-.38-2.2.37-3.89,1.31-2.08,1.18-3.25,1.68-4.71,2.5-2.27,1.28-3.34,2.89-5.28,3-.26,1.16,1,3.4,1.81,4.86.7-.39,2.2-1.23,2.63-.46s.41.73.11,1.91c-1.89,0-5.6,4.1-6.44,2.6,0,0-.07-1.93.66-2.35l.77-.43-2.07-3.7c-2.7.51-5.51,2.8-7.71,4s-5,3.12-6.51,3.94a19,19,0,0,0,2.62,6.39c1.57,1.09,3-1.67,4.54-.58.84,1.5-1.36,2.74-2.86,3.58-.77.43-1.93.07-3.11-.23l-2.12-3.77a76.09,76.09,0,0,1-5.92-12.38l1.5-.84,1.68,3c4.9-1.73,8.14-4.56,12.68-7.1l1.5-.84,7.51-4.21,3-1.67c2.23-1.25,4.51-2.52,6.7-3.76l-1.68-3,1.5-.84c2.46,2.57,4.12,5.54,6.54,8.13l4.18,7.47a2.91,2.91,0,0,1-1.07,1.62c-1.5.84-3.62,4-5.31,1C493.76,144.7,495.69,144.63,496,143.47Z"/><path class="cls-2" d="M475.89,188.31l-.81.35c-.39.16-.57,0-.95-.51a2.94,2.94,0,0,1-.71-1.11c-.34-.81-.95-2.33-1.63-3.92-.35-.81-.52-1.1-.83-1.84.44-1.1.65-.82,1.75-.38.81-.35,1.47,1.19,2.25.86,6.62-1.92,13.31-5.7,19.65-8.42l3.93-1.68c1.35-.58,3.32-1.43,5.11-2.37l-8.92.39s-.63,0-1.45,0a38.56,38.56,0,0,0-5.37.15c-5.79.79-9.3.28-14.59.72-.11,0-4.86.17-5,.09-3.87-.08-3.24-2.77.08-4.19l3.12-1.34c6.3-2.7,8.79-2.53,14-5.59l5.83-2.5.77-.33,2.32-1,.81-.34c1.23-1.49,3.94-1.69,5.17-3.18a2.66,2.66,0,0,1,.14-1.93,1.21,1.21,0,0,1,1.58-.68l1.35,3.17c.85,2,2,2.45,1.87,4.36a1.85,1.85,0,0,1-.9,2.26c-.81.35-1.49-1.23-1.82-2-1.12-.48-7.79,3.25-9.38,3.93-2,.88-11.06,4.47-8.09,3.19l-7.54,3.1c1.6,0,3.79-.35,4.43-.35a6.52,6.52,0,0,0,2.72-.25,62.86,62.86,0,0,0,6.37-.08c2,0,12.57-.4,16.66-.56a2.08,2.08,0,0,1,2.86,1,27.14,27.14,0,0,0,1.5,3.51c-.09,1.91-2.48,2.94-3.16,1.36-1.93-.14-4.29.87-6.68,1.9l-7,3-6.29,2.7c-3.94,1.68-8.34,4.53-12.24,6.2C476.35,187.15,476.7,188,475.89,188.31Zm35.17-30.52c.72,1.89,1.26,3.26,2.8,4.2l-.06.07c.66.13,1.25.24,1.58.79-.18.76.08,1.37-.89,2a7.51,7.51,0,0,1-2.37-1.05l-.82-.42a7.26,7.26,0,0,1-2.59-5.2,5.24,5.24,0,0,1,2.33-4.38,3,3,0,0,1,2.06,1.41C513,156.34,511.21,156.64,511.06,157.79Z"/><path class="cls-2" d="M504.67,205c1.6,1.13,1.87,2.32,2.46,4.86.29,1.27-1.35,5.74-4.28,5-1.27.29-2.91-.67-4.85-2.89C495.87,208.49,501.46,203,504.67,205Z"/><path class="cls-2" d="M1.17,254c-.75-1.77-.66-3.49-.52-6.05.09-1.72,1-3.39,1.12-5.11s.13-2.56,1.85-2.47l.88,0L4.37,243c4.23,1.11,9.39.51,14.5,1.66l21.4,1.16c.09-1.72.18-3.44,1.9-3.35.8.88.7,2.6.61,4.32-.05,1-.11,2-.2,3h0l-.43,8a1.78,1.78,0,0,1-1.77,1.59l-4.28-.24.09-1.67c.89-.84,2.6-.75,3.44-.7l.33-6.12-.17.07c-.76-.67-1.6-.72-3.15-.8l-7.68-.41c-.07.5.06,1.22-.06,1.89A9.61,9.61,0,0,1,27.53,255a13.73,13.73,0,0,1-2.89,3.71,12.77,12.77,0,0,1-7,2.82,18.31,18.31,0,0,1-2.23.05A15.34,15.34,0,0,1,1.17,254Zm13,2.72c1.09-.07,2.15-.1,2.86-.14l1.23-.1a18.87,18.87,0,0,0,3.11-.8,3.32,3.32,0,0,1,1.17-.62c1.81-1.62,2.91-3.16,3-4.88-.84-.89-2.56-1-3.39-1l-4.87-.26v0l-13.21-.71c-.09,1.68-.18,3.4.61,4.32l1.62,1.81a5,5,0,0,0,3.13,1.35,3.3,3.3,0,0,0,1.9.61A5.66,5.66,0,0,0,14.19,256.71Z"/><path class="cls-2" d="M3.28,294.28,2,294.36a5.62,5.62,0,0,1-.35-.82,2.93,2.93,0,0,1-.29-1.28c0-.88-.06-1.68-.24-4.66,0-.88-.11-1.21-.16-2,.78-.89.89-.56,1.78.23.88-.06,1,1.62,1.82,1.57,6.88.42,14.46-.89,21.33-1.31l4.28-.26c1.47-.09,3.6-.22,5.61-.51l-8.54-2.63s-.6-.18-1.37-.47a38.92,38.92,0,0,0-5.11-1.66c-5.71-1.21-8.84-2.87-14-4.24-.08-.08-4.63-1.48-4.72-1.6-3.62-1.38-2.12-3.7,1.48-3.92l3.4-.21c6.83-.42,10.38.46,16.33-.62l5.07-.31.84,0,2.51-.15.88-.06c1.67-1,4.28-.26,5.94-1.24a2.7,2.7,0,0,1,.78-1.78,1.2,1.2,0,0,1,1.72-.1l.21,3.44c.13,2.13,1,3,.29,4.73a1.87,1.87,0,0,1-1.62,1.83c-.88.05-1-1.67-1-2.51-.9-.83-8.43.43-10.15.54-2.22.13-11.92.48-8.69.28L11.9,275c1.5.54,3.67.95,4.27,1.17a7,7,0,0,0,2.66.72,62.71,62.71,0,0,0,6,2c1.89.64,12,3.85,15.88,5.09a2.08,2.08,0,0,1,2.35,1.92,29,29,0,0,0,.26,4.23c-.74,1.77-3.34,1.93-3.44.21-1.77-.78-4.33-.62-6.93-.46l-7.63.47-6.83.41c-4.28.27-9.38,1.46-13.61,1.72C4.1,293.35,4.16,294.23,3.28,294.28Z"/><path class="cls-2" d="M7.1,318.48A9.67,9.67,0,0,1,8,304.39a40,40,0,0,1,5.47-3.66A41.38,41.38,0,0,1,23.38,298c1.69-.32,2.74-.9,5.08-1a20.84,20.84,0,0,0,3.3-.14c1.86.08,3.62-.29,4.61.43,3.81,1.9,9.2,2.65,9.44,8.75.61,3.31.1,5.15-2.14,7.32-1.22,2.87-4.7,5.53-9,6.74a40.45,40.45,0,0,1-4.43,1,36.88,36.88,0,0,1-9.09,1,36.69,36.69,0,0,1-11.14-1.82A7.82,7.82,0,0,1,7.1,318.48Zm10.28-1a24.16,24.16,0,0,0,7.75-.58c1.69-.31,2.69-.2,4.34-.51s3.25-.9,5-1.21c1.54-1.14,3.23-1.46,4.76-2.64s3.76-2.32,4.27-4.17c-.3-1.61-.16-1.76-.47-3.45a13.58,13.58,0,0,0-6.49-2.3,10.77,10.77,0,0,0-5.24.07A65.9,65.9,0,0,0,12.87,307c-1.54,1.14-3.23,1.45-3.94,2.48.15.83-.67.51-1.15,1.2-1,1.51.48,5.55,2.16,5.88A60.74,60.74,0,0,0,17.38,317.47Z"/><path class="cls-2" d="M10.52,355.16c-1.2.36-1.47-.52-1.56-2.25.54-1.13,3.6-1.31,4.4-2.3.41-.52.56-.74.49-1.12-.5-1.78-1-3.72-1.54-5.23l0-.12C11.79,342.57,10,336.08,9,333c-1.07.37-5,2.36-6,1.81-1.89-3.06,2.7-3,4.89-4.59.88-.27,2.34-1.24,2.59-.44l.26.89a6,6,0,0,1,.65,1.69c1.86.35,3.11-.29,5.08-.62,5.23-.84,11.26-.92,16.2-1.27a102.47,102.47,0,0,0,17.11-2.65l1.08.55c1.56,2.25,2,4-.18,5.46C40.16,338.27,27.46,345,16.8,350.09a2.17,2.17,0,0,1-.05,1.86,2.62,2.62,0,0,1-.19.67l-.49.28-.17.18h-.17A20.13,20.13,0,0,1,10.52,355.16Zm1.79-19.86L15,344.41a3,3,0,0,0,.84-.26c8.32-3,14.5-6.59,22.67-9.33,1.39-.47,3.47-1.58,3.21-2.43C32.33,334,21.61,333.4,12.31,335.3Z"/><path class="cls-2" d="M29.49,382.91l-1.15.51a5.25,5.25,0,0,1-.61-.65,2.83,2.83,0,0,1-.72-1.11c-.36-.81-.64-1.55-1.85-4.28-.35-.81-.53-1.1-.85-1.83.43-1.1.64-.83,1.75-.4.8-.36,1.48,1.18,2.25.84,6.6-2,13.25-5.87,19.55-8.65l3.92-1.74c1.34-.59,3.3-1.46,5.08-2.43l-8.92.5s-.62.05-1.45.05a37.75,37.75,0,0,0-5.37.21c-5.78.86-9.29.39-14.58.9-.11,0-4.86.22-5,.14-3.87,0-3.27-2.73,0-4.19l3.11-1.38c6.26-2.77,9.89-3.18,15.1-6.26l4.64-2.06.77-.34,2.3-1,.81-.36c1.22-1.5,3.92-1.73,5.14-3.24a2.67,2.67,0,0,1,.11-1.93,1.19,1.19,0,0,1,1.57-.69l1.39,3.14c.87,2,2,2.43,1.93,4.34a1.87,1.87,0,0,1-.88,2.28c-.81.35-1.51-1.22-1.85-2-1.12-.47-7.75,3.34-9.32,4-2,.9-11,4.59-8.06,3.28l-7.5,3.19c1.6,0,3.78-.39,4.42-.4a7,7,0,0,0,2.74-.24c2.28-.05,3.66.07,6.34-.19,2-.06,12.57-.56,16.66-.76a2.07,2.07,0,0,1,2.87,1,30.59,30.59,0,0,0,1.72,3.88c-.07,1.91-2.45,3-3.15,1.39-1.93-.11-4.28.93-6.66,2l-7,3.1-6.26,2.77c-3.91,1.73-8.28,4.63-12.16,6.34C29.94,381.74,30.3,382.55,29.49,382.91Z"/><path class="cls-2" d="M69.62,392.44l-6.56,3.93-5.87,3.53c-3.67,2.2-7.65,5.61-11.28,7.8-.29,1.15.16,1.9-.59,2.36l-1.48.88s.52-.6-.29-.8a2.9,2.9,0,0,1-.85-1c-.45-.76-.63-1.14-1.52-2.62-.45-.75-.66-1-1.07-1.7.29-1.16.53-.91,1.68-.62.76-.46,1.62,1,2.34.55,6.31-2.8,12.43-7.45,18.33-11a.87.87,0,0,0,.31-1.21c-.58-2.59-3.05-5.07-4.39-7.31-2.36-.59-3.84.3-6.07,1.64l-8,4.82L42.05,393c-1,1.64-2.17,1.29-3.19,2.94.43.72-.16,3.08-1.76,2-1.77-2.95-3.37-3.9-4.39-7.31,0,0,1-1.64,2.2-1.31l.88,1.47,2.92-1.75L55.6,379l1.48-.89.72-.43,2.16-1.3.75-.45c1-1.64,3.68-2.2,4.7-3.84a2.73,2.73,0,0,1-.13-1.94,1.21,1.21,0,0,1,1.48-.88l1.77,2.95c.88,1.48,2.9,3.21,3.07,5.12a1.86,1.86,0,0,1-.59,2.36c-.76.45-1.65-1-2.08-1.75-1.17-.32-1.48.89-3,1.77s-4.13,1.45-5.12,3.07a21.21,21.21,0,0,0,5.28,8.79c2.16-1.3,5.87-3.52,7.61-5.6.35-1.13-1.3-2.16-1-3.33l1.47-.89a8,8,0,0,1,3.34,3.93,12.55,12.55,0,0,0,1.34,2.23c.16,1.91-2.07,3.25-3,1.77C74,389.78,71.85,391.1,69.62,392.44Z"/><path class="cls-2" d="M72.73,417.22c-1-1.33-2-4-3.56-6.06-1.26-.19-2.66.89-4.15,2-3.39,1.39-6.78,4-10.4,6.81,0,1.25,1.15,1.49,1,2.61a12.72,12.72,0,0,1-1.47,1c-3.11-1-3.15-4.15-5.48-5.59l.26-2.54c1.25.1,2.5.41,3,1s1.27.19,2-.38c4.77-2.62,11.56-6.74,17-9.87a15.56,15.56,0,0,1,6.71-2.85,27.94,27.94,0,0,1,9.69-2s2.62.31,2.89,2.23-1.24,5.62-2.67,6.73a13.83,13.83,0,0,1-2.93,4c-5,4.93-11,10.06-16.73,15.51l-4.26,3.29c-.63.49-.26,2.54-2.09,1.62l-.47-1c-1.08-1.4-2.2-2.44-3.31-3.87-.63-.68-1.8-1.58-1.17-2.07s3.44-.84,4-.11C64.89,424.44,69.77,420.67,72.73,417.22Zm2.52-9.74c-.64.49-3.25,1.5-4,2.11a23.65,23.65,0,0,0,3.63,6L79,412.37a30.44,30.44,0,0,0,6-6.77.87.87,0,0,0,.13-1.27l-1.26-.2C81.34,405.06,78.58,406,75.25,407.48Z"/><path class="cls-2" d="M100.46,436c1.71-1.2,2.84-1.68,5.47-3.34a21,21,0,0,0,4.28-2.85,3.75,3.75,0,0,1,4.88,0l3.68,3.62c.63.62,0,1.22,0,2.47-1.25,0-2.44,0-3.11-1.82-2.42,1.21-3,3.05-4.83,4.91l-2.44,2.48-3,3.09-4.86,4.94a54,54,0,0,0-4.24,4.31c-2.21,2.84-4.28,4.34-6.07,6.17,1.85,1.82,1.79,4.82-.06,4.24-.63-.61-.51-.85-1.14-1.47s-.92-.5-1.55-1.12l-.87-1.27c.56.15-.87-.56-2.25-1.85.62-.63-.27-.92.32-1.52s1.84.58,3.09.57c3.62-4.93,8.33-9.19,13.46-14.28.89-.89,3-2.4,4.13-3.59l2.45-2.49a3,3,0,0,0,.91-1.4c.56-.57.91-.45.9-1.7a3.36,3.36,0,0,1-1.32,1.17c-2.25,1-5.35,3.16-8.43,5,0,0-1.66.84-2.39,1.35-4.26,2.95-4.2,2.95-6.47,4.42-1.45.93-4,3.54-4.58,2.92s-.61-1.84-1.18-2.4a14.37,14.37,0,0,0,2.4-3.7c1.35-2.45,2.55-4.51,3.81-6.92.79-1.53,1.46-2.81,2.4-4.95a6.76,6.76,0,0,0,1-2.92l-4.24,4.31c-1.38,1.4-4.25,3.12-6,4.95l-3.06,3.11c-1.83,1.86-3.66,3.71-5.45,5.54.59.59,1.22,1.21.6,1.84-1.82,1.85-5.51-3-6.74-4.23-.63-.62,0-1.22-.05-2.46,1.25,0,1.86-.64,2.5,1.23l6.07-6.17,7.9-8L87.53,427l6.07-6.17,4.24-4.32c-.63-.61-.74-.32-1.31-.88s-.58-1-1.17-1.56c0-1.24,0-1.24,1.19-2.47,2.48,1.2,4.91,4.83,6.21,7.29-.64,1.84-1.19,3.66-1.77,5.5l-.62.63c-1.21,3.7-3.38,7.63-5.11,11.12a22.44,22.44,0,0,0-1.54,4.26A56.53,56.53,0,0,0,100.46,436Z"/><path class="cls-2" d="M118.78,483.65l-.75,1a5.71,5.71,0,0,1-.85-.26,3,3,0,0,1-1.17-.6c-.71-.53-1.33-1-3.73-2.81-.7-.52-1-.69-1.64-1.16-.18-1.18.14-1,1.32-1.22.52-.71,1.87.29,2.37-.39,4.74-5,8.61-11.65,12.7-17.19l2.54-3.45c.88-1.18,2.15-2.9,3.21-4.63l-7.5,4.85s-.51.35-1.23.76a38.46,38.46,0,0,0-4.56,2.85c-4.59,3.6-7.88,4.94-12.22,8-.12,0-4.11,2.6-4.27,2.6-3.38,1.89-4.19-.75-2-3.66l2-2.73c4.07-5.51,7-7.67,10-12.92l3-4.09.5-.67,1.5-2,.52-.71c.31-1.91,2.55-3.45,2.86-5.36a2.62,2.62,0,0,1-.86-1.73,1.2,1.2,0,0,1,1-1.38l2.77,2c1.72,1.27,2.93,1.12,3.82,2.82a1.85,1.85,0,0,1,.36,2.41c-.52.71-1.91-.31-2.58-.81-1.21.15-5.09,6.74-6.11,8.12-1.32,1.79-7.29,9.45-5.37,6.85l-4.94,6.48c1.38-.81,3.09-2.21,3.65-2.54a6.68,6.68,0,0,0,2.25-1.57,61.79,61.79,0,0,0,5.42-3.3c1.71-1,10.64-6.71,14.1-8.91a2.07,2.07,0,0,1,3-.57,31,31,0,0,0,3.42,2.52c.88,1.7-.66,3.79-2.05,2.77-1.73.86-3.25,2.92-4.8,5l-4.54,6.15-4.07,5.5c-2.54,3.45-4.9,8.13-7.42,11.54C118.59,482.41,119.3,482.94,118.78,483.65Z"/><path class="cls-2" d="M146.11,499.5l-1.49.94a2.78,2.78,0,0,1-1.24-.45c-.77-.44-2.69-1.56-4.19-2.41-.77-.43-1.08-.56-1.77-.95-.33-1.14,0-1.05,1.15-1.37.44-.77,1.9.05,2.31-.68,4.09-5.55,3-5.31,6.37-11.31a10.35,10.35,0,0,1,1.19-1.6c-2.18.95-5.42-.06-7.39-1.6l-.56-.46a6.67,6.67,0,0,1-1.57-1.85,8.31,8.31,0,0,1-.61-6.7c-.18-1.74,1.36-5.41,2.64-7.43l1.34-2.14c.91-1.51,2.31-3.57,2.5-5.54a2.64,2.64,0,0,1-1-1.66,1.21,1.21,0,0,1,.92-1.46l2.92,1.83c1.46.92,4,1.56,5,3.2a1.81,1.81,0,0,1,.54,2.38c-.47.75-1.93-.17-2.64-.62-1.14.23-1.37,1.16-2.27,2.58a30.54,30.54,0,0,1-3.63,4.65c-1.53,2.47-1.75,4.23-2.37,6.19-.56,1.66-.55,4.22.84,4.67a7.41,7.41,0,0,0,6.25,1.83c.87-2.41,7.84-13.09,8-16-.26-1.16-2.19-1.23-2.49-2.41l.84-1.51a9.21,9.21,0,0,1,4.84,1.77,34.82,34.82,0,0,0,3.85,2.16c1.09,1.57-.19,3.84-1.69,3-1.62,1.07-2.87,3.3-4.15,5.57-1.83,2.39-2.54,5.37-4,8a52.33,52.33,0,0,0-3.72,5.76c-2.1,3.73-3.25,7.57-5.33,11.27C145.78,498.3,146.55,498.73,146.11,499.5Z"/><path class="cls-2" d="M182.58,475.25c-.6-.75-.6-.75-1.24-1.48-1.59-.67-3.91-1.66-5.84-1.52-1.12.39-1.51,1.64-2.27,3.42-.93,2.2-1.54,3.32-2.19,4.86-1,2.4-.88,4.33-2.37,5.57.51,1.08,2.86,2.08,4.41,2.73.31-.73,1-2.32,1.8-2s.77.33,1.25,1.44c-1.46,1.21-1.91,6.67-3.5,6,0,0-1.24-1.48-.91-2.26l.35-.81-3.91-1.65c-1.83,2.05-2.64,5.58-3.62,7.9s-2.08,5.55-2.74,7.1a19,19,0,0,0,6,3.44c1.91-.1,1.32-3.13,3.24-3.23,1.58.67.6,3-.07,4.58-.35.81-1.49,1.24-2.6,1.72l-4-1.69a75.86,75.86,0,0,1-12.26-6.15l.67-1.59,3.17,1.35c2.82-4.37,3.64-8.59,5.67-13.38l.68-1.59c1-2.39,2-4.75,3.36-7.92L167,477l3-7.08-3.17-1.34.67-1.59c3.52.53,6.65,1.86,10.15,2.43l7.89,3.34a2.94,2.94,0,0,1,.14,1.93c-.68,1.59-.42,5.39-3.59,4.05C181.59,477.57,183.08,476.33,182.58,475.25Z"/><path class="cls-2" d="M207.61,484.27c-.52,1.73-1.27,4.18-2.15,3.91-1.65-.5.17-3.59-.38-4.68a9.88,9.88,0,0,0-6.67-2c-1.14.58-2.71,2.86-3.8,3.41a2.73,2.73,0,0,1-1.32,1.44c-1.89,3.07-2.66,5.6-3.93,9.78l-1.52,5c-.64,5.29-.77,11.62,2,14.36,1.44,1.32,3.33,1,5.29.64,1.31-1.4,1.27-4.17,2.59-5.62,1.73.53,1.46,1.41,2.26,1.66L198.24,518c-3,3.63-10-.35-13.83-2.45-1.2-2.12-2.66-3.53-3.5-6.55.42-4.39.26-9.93,1.78-14.91,2.07-3.93,3.82-8.23,6.34-11.77,1.06-.59,1.13-1.41,2.38-2a12.15,12.15,0,0,1,10.71-2.18c2.29,1.57,4,2.09,5.1,4.31C207,483.2,207.86,483.47,207.61,484.27Z"/><path class="cls-2" d="M225.71,495.8c-1.14,1.54-2.31,3-3.44,4.53-.16.87-.16.87.66,1,.72,1,2.18,2.11,2.89,3.09,1.91,3.81,1,8.85,1,13.18-.31,1.69-1.43,3.15-.77,4.17-.15.83,1.61,1.92,1.45,2.79a3.39,3.39,0,0,1-.87,1.5c-2.52-.46-6-1-7.71-1.29a1.38,1.38,0,0,1,0-1.71l2-1.38c1.1-1.55.61-3.31.92-5l.93-5,.15-.83c.46-2.48.25-6-1.29-7.15a5.53,5.53,0,0,0-5-.93c-2,1.38-2.05,6.54-2.66,9.84-.31,1.7-1.34,2.41-1.65,4.1l-.61,3.3c1.54,1.14,2.1,3,.25,3.51-2.32-1.32-4.32.06-6.65-1.22-.71-1-.71-1-.56-1.82,1-.7,1.81-.56,2-1.39l.77-4.17c.31-1.69.77-4.17,1.23-6.69,0,0,.09,0,.25-.89l.06-.8c.15-.79,1.33-2.32,1.64-4,.92-5,2-10.83,1.9-15.2l.45-2.48c-.78-.14-1.65-.3-1.49-1.17-.83-.15-.33-1.94.36-2.41s1.58.21,3.28.52,6.18.28,5.72,2.76c-.15.82-1,.67-2,1.38-.61,3.31-.26,6-.86,9.32-.16.87-1.29,2.37-.62,3.35,3.5-.21,5.81-3.25,7.25-6.44.31-1.69,1.47-3.14,1.79-4.84l-1.7-.31c.16-.87-.71-1-.55-1.85,1.17-1.5,3.54-.21,5.34-.73,2.37,1.29,1,3.65-.62,3.35A26.37,26.37,0,0,1,225.71,495.8Z"/><path class="cls-2" d="M260.61,527.35l-.07,1.26a6,6,0,0,1-.86.25,2.86,2.86,0,0,1-1.31.13c-.88-.06-1.68-.15-4.66-.33-.88,0-1.21,0-2-.08-.79-.89-.45-1,.44-1.74.05-.88,1.73-.78,1.78-1.62,1.25-6.78.88-14.46,1.29-21.34l.26-4.27c.09-1.47.22-3.61.17-5.63L252,502.13s-.24.58-.62,1.31a37.93,37.93,0,0,0-2.28,4.87c-1.89,5.53-3.91,8.43-5.9,13.36-.08.08-2,4.43-2.16,4.5-1.81,3.43-3.93,1.66-3.71-1.95l.2-3.39c.42-6.84,1.72-10.25,1.37-16.29l.3-5.08.05-.83.15-2.52.06-.88c-.78-1.77.26-4.28-.52-6.05a2.68,2.68,0,0,1-1.67-1,1.2,1.2,0,0,1,.11-1.71l3.44.2c2.13.13,3.07-.65,4.73.29a1.85,1.85,0,0,1,1.62,1.82c0,.88-1.77.78-2.61.73-.93.78-.59,8.42-.7,10.14-.13,2.22-1,11.89-.77,8.67l-.62,8.12c.72-1.43,1.39-3.53,1.68-4.1a6.92,6.92,0,0,0,1-2.55,60.72,60.72,0,0,0,2.75-5.73c.87-1.8,5.28-11.42,7-15.15a2.07,2.07,0,0,1,2.19-2.09,30.38,30.38,0,0,0,4.24.25c1.67.94,1.51,3.54-.21,3.44-1,1.66-1.14,4.22-1.3,6.82l-.46,7.63-.41,6.84c-.26,4.28.31,9.49.06,13.72C259.78,526.42,260.66,526.47,260.61,527.35Z"/><path class="cls-2" d="M293.25,525.72l.05.88c0,.42-.22.52-.79.72a2.76,2.76,0,0,1-1.29.29c-.88.06-2.52.12-4.23.23-.88.06-1.22.12-2,.17-.89-.78-.56-.89.22-1.78-.06-.88,1.62-1,1.57-1.82.4-6.89-.92-14.47-1.36-21.34l-.27-4.28c-.1-1.46-.23-3.6-.53-5.6L282,501.73s-.17.6-.46,1.38a37.54,37.54,0,0,0-1.65,5.11c-1.2,5.71-2.85,8.85-4.21,14-.07.09-1.47,4.64-1.59,4.73-1.37,3.62-3.69,2.13-3.92-1.48l-.22-3.39c-.43-6.84.56-9.13-.58-15.07l-.4-6.33-.06-.84-.16-2.52-.05-.88c-1-1.66-.27-4.27-1.26-5.94a2.65,2.65,0,0,1-1.78-.77,1.2,1.2,0,0,1-.11-1.71l3.44-.22c2.14-.14,3-1,4.74-.31a1.85,1.85,0,0,1,1.82,1.61c.06.88-1.66,1-2.5,1.05-.82.89.45,8.43.56,10.15.15,2.22.51,11.92.31,8.69l.39,8.14c.53-1.51.94-3.68,1.16-4.28a6.65,6.65,0,0,0,.67-2.66,62.61,62.61,0,0,0,2.06-6c.63-1.89,3.82-12,5-15.89a2.08,2.08,0,0,1,1.92-2.36,24.81,24.81,0,0,0,3.81-.24c1.77.73,1.94,3.33.22,3.44-.77,1.77-.61,4.33-.44,6.93l.48,7.63.44,6.83c.27,4.28,1.48,9.38,1.75,13.61C292.31,524.89,293.19,524.84,293.25,525.72Zm-17-43.36c2-.05,3.49-.1,4.89-1.24l.05.08c.34-.57.64-1.09,1.26-1.22.66.42,1.33.38,1.57,1.5a7.36,7.36,0,0,1-1.77,1.88l-.68.64a7.28,7.28,0,0,1-5.76.7,5.26,5.26,0,0,1-3.35-3.66,3,3,0,0,1,2-1.47C275.53,480.09,275.22,481.83,276.26,482.36Z"/><path class="cls-2" d="M344.47,506.57c.47,1.61,1.5,5.12,2.78,6.49.22.77,1.65-.48,2.12,1.13-3.2,2.08-7,2-10.56,3.1,0,0-.47-1.62.37-1.87l.77-.22c-1.06-6.74-3.5-15.08-5.64-22.38l-2.37-8.1c-.71-2.42-.42-4.26-1.66-5.65L323,481.21c2.17,7.55,3.61,15.31,5.83,22.89l2.37,8.11c.24.8.6,2.18.94,3.35.47,1.62,2.58.74,2.56,2.62,0,1.28-4.7,2.48-7.13,2.71-.85.07-.93-.34-1.15-1.11s.51-1.07,1.14-2.09l-2.63-8.94c-.22-.77-.47-1.62-.69-2.38l-2.38-8.11c-.24-.84-.48-1.65-.72-2.46-1.19-4.07-1.84-9.13-4-13.78-.84.24-2.45.72-2.68,0,.38-1.86,3-1.79,4.59-2.26l2.46-.72L336,474.72c1.66-.48,1.53,2.23-.08,2.7Z"/><path class="cls-2" d="M367.52,506.92c-4,1.74-6.14,3.59-9.73,4.16a2.88,2.88,0,0,1-1.54-1.26c.5-1.17.5-1.17,2.08-1.85.52-1.13-.84-2.83-1.35-4-2.3-5.28-3.72-9.24-5.47-13.33-.67-1.58-1.36-3.71-2.65-6.22-.92-1.71-1.17-2.83-2.63-6.14-.49-1.16-.72-2.34-1.63-2.32-1.18,0-1.43.71-2.61.3-1.95-.18-1-1.49-.48-2.63,3.64-2.38,7.31-3.72,11.33-5.43.81-.35.38-.39,1.66-.71,3.38-.85,7.72,2.46,10.26,6.17,1,2.43,2.06,4.82,2,6.83.27,2.76-1.47,5.43-2.46,7.72-1.26,1.54-2.84,2.22-5.27,3.26a.87.87,0,0,0-.47,1.15c.26.71,1,2.44,1.37,3.21,1.39,3.24,1.94,6.89,4.16,9.73C366.48,504.49,368.41,504.63,367.52,506.92ZM356.77,488.5a3.19,3.19,0,0,0,3.35-.83,8.86,8.86,0,0,0,1.39-5.94,14,14,0,0,0-1.43-5,18,18,0,0,0-4.18-6c-.85.36-2-.14-3.6.54l-2.44,1c.89,4.42,3.48,8.15,5.2,12.16Z"/><path class="cls-2" d="M398.6,490.07A9.68,9.68,0,0,1,385,493.9a39.42,39.42,0,0,1-5.27-3.95,42,42,0,0,1-5.84-8.47c-.85-1.49-1.75-2.29-2.57-4.48a21.72,21.72,0,0,0-1.23-3.07c-.53-1.77-1.47-3.32-1.12-4.49.52-4.22-.56-9.56,5.13-11.81,2.91-1.67,4.82-1.8,7.61-.4,3.12.2,6.78,2.6,9.34,6.22a37.67,37.67,0,0,1,2.4,3.85,35.71,35.71,0,0,1,3.92,8.25,36.16,36.16,0,0,1,2,11.12A7.94,7.94,0,0,1,398.6,490.07Zm-4.36-9.37a24.48,24.48,0,0,0-3.12-7.12c-.86-1.49-1.09-2.48-1.92-3.93s-1.93-2.77-2.79-4.26c-1.59-1.08-2.45-2.57-4.07-3.62s-3.43-2.78-5.34-2.65c-1.42.82-1.62.73-3.11,1.59a13.61,13.61,0,0,0,0,6.89,10.79,10.79,0,0,0,1.81,4.92,65.53,65.53,0,0,0,10.16,15.91c1.59,1.08,2.44,2.57,3.65,2.9.73-.42.7.46,1.51.68,1.77.48,5.08-2.29,4.83-4A61.45,61.45,0,0,0,394.24,480.7Z"/><path class="cls-2" d="M402.16,442.78c-1,.12-1,.12-1.91.3-1.39,1-3.43,2.51-4.3,4.23-.24,1.17.63,2.15,1.77,3.7,1.42,1.94,2.06,3,3,4.38,1.54,2.11,3.27,3,3.57,4.89,1.18.12,3.25-1.39,4.61-2.38-.47-.65-1.49-2-.78-2.56s.68-.49,1.89-.34c.28,1.88,4.74,5.07,3.35,6.08,0,0-1.91.31-2.4-.37l-.52-.71-3.43,2.5c.83,2.63,3.44,5.14,4.93,7.17s3.7,4.63,4.69,6a19,19,0,0,0,6-3.37c.9-1.69-2-2.74-1.11-4.44,1.39-1,2.88,1,3.89,2.41.53.71.31,1.91.15,3.12l-3.49,2.55a76.08,76.08,0,0,1-11.57,7.37l-1-1.38,2.78-2c-2.31-4.66-5.5-7.53-8.58-11.73l-1-1.39-5.08-6.95-2-2.75-4.54-6.2-2.78,2-1-1.39c2.26-2.74,5-4.75,7.29-7.46l6.91-5.06a2.92,2.92,0,0,1,1.73.87c1,1.39,4.42,3.12,1.64,5.15C403.65,444.81,403.34,442.9,402.16,442.78Z"/><path class="cls-2" d="M424.59,434.7c.54,1.84,1,3.68,1.54,5.48.59.66.59.66,1.21.09,1.22,0,3-.46,4.21-.44,4.19.79,7.65,4.57,11.13,7.13,1.16,1.28,1.65,3.05,2.86,3.14.57.62,2.5-.13,3.1.52a3.4,3.4,0,0,1,.67,1.61c-1.89,1.73-4.44,4.23-5.68,5.36a1.36,1.36,0,0,1-1.38-1l.11-2.44c-.58-1.8-2.27-2.48-3.43-3.75l-3.46-3.78-.57-.62c-1.7-1.86-4.64-3.84-6.48-3.29a5.52,5.52,0,0,0-3.78,3.45c-.11,2.44,4,5.59,6.24,8.07,1.16,1.27,1.1,2.52,2.26,3.79l2.27,2.48c1.84-.54,3.62.1,2.95,1.92-2.46,1-2.57,3.48-5,4.56-1.25-.06-1.25-.06-1.79-.65.06-1.24.65-1.78.08-2.4l-2.86-3.13-4.59-5s0-.09-.56-.74l-.6-.54c-.54-.58-1.05-2.45-2.21-3.72-3.43-3.75-7.43-8.13-11-10.69l-1.7-1.86c-.59.54-1.24,1.13-1.84.48-.62.56-1.74-.91-1.7-1.74s1.12-1.14,2.39-2.3,4-4.76,5.66-2.9c.57.62-.08,1.21-.11,2.43,2.27,2.48,4.65,3.84,6.91,6.32.6.65,1.11,2.46,2.3,2.51,1.94-2.91.92-6.59-.76-9.67-1.16-1.27-1.61-3.07-2.77-4.34L417,430.17c-.6-.65-1.25-.06-1.82-.68-.48-1.83,2-2.94,2.65-4.69,2.46-1.11,3.54,1.37,2.3,2.51A26.52,26.52,0,0,1,424.59,434.7Z"/><path class="cls-2" d="M436.6,409.65c-1.24.07-2.34,2.59-3.49,3.87.75,1.86,3.27,3,4.58,4.14L450,428.75l5.23,4.73,1.31,1.18c1.28,1.15,2.09,2.51,3.24,2.93.82.28,1.75-1.94,3-.78a3.1,3.1,0,0,1-.53,1.9L457,444.57c-.59.65-1.25.06-1.9-.53.59-.65.53-1.84,1.12-2.49-2.59-2.34-5.68-5.25-7.83-7.07-2.76-2.33-5.11-4.62-7.76-7l-3.24-2.93-1.31-1.18c-2.59-2.34-4.52-4.08-7.11-5.23-3,2-5.23,5.8-1.4,8.13a1.17,1.17,0,0,1-1.15,1.28c-1.28-1.15-3.86-2.3-4.58-4.14a11.93,11.93,0,0,1,2.87-5.44c1.75-1.93,4-4.72,5.84-6.78s4.68-5.17,6.52-4.64c2.52,1.09,5.17,3.48,3.43,5.41C439.25,412,438.53,410.21,436.6,409.65Z"/><path class="cls-2" d="M494,390.7a9.66,9.66,0,0,1-9.79,10.17,39,39,0,0,1-6.54-.74,42,42,0,0,1-9.31-4.36c-1.5-.86-2.67-1.09-4.49-2.57a20.64,20.64,0,0,0-2.61-2c-1.36-1.27-2.95-2.13-3.24-3.31-1.68-3.91-5.31-8-1.54-12.78,1.67-2.92,3.26-4,6.37-4.2,2.79-1.4,7.16-1.18,11.2.65a40.34,40.34,0,0,1,4,2.11,38.35,38.35,0,0,1,14.88,13.74A7.66,7.66,0,0,1,494,390.7Zm-8.49-5.88a24.35,24.35,0,0,0-6.29-4.56c-1.5-.86-2.19-1.59-3.65-2.43s-3.06-1.41-4.55-2.27c-1.92-.12-3.41-1-5.34-1.07s-4.37-.66-5.95.42c-.82,1.42-1,1.45-1.88,2.94a13.53,13.53,0,0,0,3.47,5.95,10.64,10.64,0,0,0,4,3.34,65.9,65.9,0,0,0,16.81,8.6c1.91.12,3.4,1,4.61.65.42-.73.84.05,1.64-.17,1.78-.48,3.23-4.54,2.16-5.88A59,59,0,0,0,485.46,384.82Z"/><path class="cls-2" d="M515.07,360.52c1.15.5.79,1.35-.27,2.72-1.14.51-3.59-1.33-4.84-1.09-.65.13-.91.2-1.1.53-.77,1.68-1.61,3.51-2.21,5l0,.11c-.65,1.5-3.51,7.59-4.74,10.63,1.06.41,5.37,1.45,5.74,2.49-.54,3.56-4,.52-6.7.34-.84-.36-2.59-.57-2.25-1.34l.37-.85a5.85,5.85,0,0,1,.6-1.71c-1.19-1.47-2.57-1.79-4.28-2.81-4.53-2.74-9.18-6.59-13.18-9.52a102.9,102.9,0,0,0-14.76-9l-.47-1.12c.26-2.72,1-4.31,3.67-4,10.93,3.41,25,6.48,36.4,9.51a2.2,2.2,0,0,1,1.24-1.39,2.63,2.63,0,0,1,.59-.39l.55.11.24,0,.14.11A20.08,20.08,0,0,1,515.07,360.52Zm-14.22,14,3.86-8.68a4,4,0,0,0-.81-.35c-8.26-3.12-15.33-4.35-23.33-7.54-1.37-.55-3.67-1.05-4-.24C484.75,362.53,492.53,369.93,500.85,374.5Z"/><path class="cls-2" d="M480.47,321.22c2.31,3.59,7.63,6.54,12.33,10.35-.18-.1,5.42,3.07,5.42,3.21,3.61,2.8,10.73,6.23,14,8,.8.25,1.25-1.32,2.36-1.9.76.24,2,.88,1.75,1.7a21.08,21.08,0,0,1-1.09,2.91,4.94,4.94,0,0,0-.92,2L513.9,349c-.29.79.49,1,.27,1.81s-1.78.36-1.78.36c-.82-.21-1.93-1-.89-3.89-3.88-2.94-6.41-3.56-9.49-5.54l-7.84.84c-2.65.31-14.78-.34-17.47,0-.9.07-2.19-.29-2.43.47l-.51,1.6c-1.06.59-1.28,1.4-2.08,1.15-.3-1.85,1.36-7.1,2-9.06a1.56,1.56,0,0,1,2-.78c-.85,3.12,14.15,2.33,16.56,2,1.14-.13,2.49-.23,3.83-.29-2-1-4.68-2.32-5.63-3.49l-3.71-2.49c-1.27-1.28-4.92-4.24-7.31-4.77-.62,2-2,1.19-2.81,1.1-.74-.89.89-2.41.9-3.28l.34-2.05c.13-1.68-.45-4.2,2-3.95C480.71,318.79,480.51,320.4,480.47,321.22Z"/><path class="cls-2" d="M498.84,303.05a13.63,13.63,0,0,1,9.87-1.63c6.06.23,12.33,4,14.11,8.68.51,1.85.19,3.54-.28,6.06-.31,1.69-1.45,3.23-1.76,4.93s-.47,2.52-2.16,2.2l-.87-.16c.15-.82.31-1.69.47-2.52-4.05-1.65-9.25-1.71-14.17-3.52l-1.65-.31-4.21-.78-8.47-1.57L483,313.18c-.31,1.69-.63,3.39-2.32,3.07-.67-1-.36-2.67,0-4.36.78-4.21,1.56-8.42,3.57-9.8,1.84-.52,2.83-1.23,5.35-.76,2.67-.36,5.74,2,7.13,3.93C497.5,305.41,497.66,304.58,498.84,303.05Zm-14.91,5.09c.71,1,1.54,1.14,3.23,1.46,2.52.46,4.21.78,6.06.27,1-.68-.56-1.86-1.23-2.84-2.36-1.33-4.76-2.63-6.57-2.11-1,.71-1.34,2.4-1.49,3.22Zm33.81,1c-.68-1-2.37-1.29-3.2-1.44-.71-1-.71-1-1.54-1.14-1.53-1.19-5.07-.95-6.77-1.26s-1.81-.59-3.65-.08c0,0-.15-.11-.84-.11,0,0-.76.2-1.65.38a8.22,8.22,0,0,0-3.53,5c.72,1,2.41,1.3,3.23,1.45l13.51,2.51,5.86,1.08c.31-1.65.62-3.34,0-4.36Z"/><path class="cls-2" d="M507.32,281.66c-.14,1.68-1.24,4.28-1.45,6.88.81,1,2.56,1.14,4.45,1.29,3.44,1.25,7.71,1.59,12.27,2,.87-.89.15-1.88,1-2.61a14.49,14.49,0,0,1,1.75.27c1.62,2.83-.47,5.19.29,7.82l-1.91,1.7a4.57,4.57,0,0,1-1.5-2.78c.07-.92-.8-1-1.73-1.07-5.28-1.27-13.08-2.79-19.25-4.18a15.57,15.57,0,0,1-6.88-2.41,27.86,27.86,0,0,1-8.48-5.07s-1.73-2-.63-3.59c1.07-1.81,4.69-3.33,6.49-3.18a14.12,14.12,0,0,1,4.84-.95c7-.28,14.88-.06,22.81-.21l5.36.43c.79.07,1.91-1.7,2.64.22l-.34,1.06c-.15,1.76,0,3.29-.16,5.09,0,.93.27,2.38-.53,2.31s-3.11-1.68-3-2.6C518,281.6,511.83,281.1,507.32,281.66Zm-8.41,5.51c.79.07,3.41,1.08,4.41,1.16a23.73,23.73,0,0,0,1.36-6.88l-5.27-.43a30.31,30.31,0,0,0-9,1,.89.89,0,0,0-1,.85l.81,1C492.77,284.86,495.46,286,498.91,287.17Z"/><path class="cls-2" d="M495.19,247.76l7.64-.26,6.84-.24c4.28-.14,9.42-1.2,13.66-1.35.81-.87.78-1.75,1.66-1.78l1.72-.06a.46.46,0,0,0-.14.85,2.81,2.81,0,0,1,.25,1.29c0,.88,0,1.3.07,3,0,.88.08,1.21.11,2-.81.87-.91.54-1.78-.28-.88,0-.94-1.64-1.78-1.62-6.87-.6-14.48.5-21.36.73a.87.87,0,0,0-.85.92c-.76,2.54.2,5.91.29,8.52,1.78,1.66,3.5,1.6,6.1,1.51l9.36-.32,2.6-.09c1.69-.94,2.52-.08,4.21-1,0-.84,1.64-2.62,2.54-.93.11,3.44,1,5.05.29,8.52,0,0-1.69.94-2.56.09l-.06-1.72-3.4.11-19.69.68-1.72.06-.84,0-2.52.09-.88,0c-1.69.94-4.28.15-6,1.09a2.72,2.72,0,0,1-.83,1.75,1.2,1.2,0,0,1-1.72.06l-.11-3.45c-.06-1.72-1-4.21-.21-6a1.85,1.85,0,0,1,1.66-1.78c.89,0,.94,1.69,1,2.53.87.86,1.72-.06,3.44-.11s4.32.73,6-.21a21.24,21.24,0,0,0-.35-10.24c-2.52.09-6.85.23-9.38,1.2-.85.83.09,2.52-.76,3.39l-1.73.06a8,8,0,0,1-1-5,13.05,13.05,0,0,0-.09-2.6c.78-1.75,3.39-1.84,3.45-.12C490,247.93,492.59,247.84,495.19,247.76Z"/></g></svg>