<svg id="Слой_1" data-name="Слой 1" xmlns="http://www.w3.org/2000/svg" viewBox="0 0 120.49 119.74"><defs><style>.cls-1{fill:#c96;}</style></defs><title>Монтажная область 2</title><path class="cls-1" d="M58.53,2.26a.13.13,0,0,0,.13-.08,7.19,7.19,0,0,0,1.4-.12A6.55,6.55,0,0,0,59,3a.13.13,0,0,0-.14,0,.48.48,0,0,0,0,.39.48.48,0,0,0,.39,0,.13.13,0,0,0,0-.14,6.74,6.74,0,0,0,.9-1.08A6.23,6.23,0,0,0,60,3.55a.14.14,0,0,0-.07.13c0,.07.19.28.28.28s.28-.21.28-.28a.15.15,0,0,0-.08-.13,6.12,6.12,0,0,0-.13-1.38,7.27,7.27,0,0,0,.9,1.07.13.13,0,0,0,0,.14.48.48,0,0,0,.39,0,.48.48,0,0,0,0-.39.13.13,0,0,0-.14,0,6.55,6.55,0,0,0-1.08-.89,7.19,7.19,0,0,0,1.4.12.13.13,0,0,0,.13.08c.07,0,.28-.2.28-.28S62,1.7,62,1.7a.13.13,0,0,0-.13.08,7.19,7.19,0,0,0-1.4.12A6.06,6.06,0,0,0,61.51,1a.13.13,0,0,0,.15,0,.58.58,0,0,0,0-.39.51.51,0,0,0-.4,0,.15.15,0,0,0,0,.15,6.35,6.35,0,0,0-.9,1.07A6.23,6.23,0,0,0,60.45.41a.13.13,0,0,0,.08-.13c0-.07-.2-.28-.28-.28S60,.21,60,.28A.14.14,0,0,0,60,.41a6.23,6.23,0,0,0,.13,1.39,6.74,6.74,0,0,0-.9-1.08.13.13,0,0,0,0-.14.48.48,0,0,0-.39,0,.48.48,0,0,0,0,.39A.13.13,0,0,0,59,1a6.55,6.55,0,0,0,1.08.89,7.11,7.11,0,0,0-1.4-.12.13.13,0,0,0-.13-.08c-.07,0-.28.2-.28.28S58.46,2.26,58.53,2.26ZM60.2,2h0v0l0,0a0,0,0,0,0,0,0V2h0l0,0s0,0,0,0h0V2l0,0V2h0s0,0,0,0S60.21,2,60.2,2Z"/><path class="cls-1" d="M54,2.57a.13.13,0,0,0,.12-.09,6,6,0,0,0,1.39-.23,6.44,6.44,0,0,0-1,1,.13.13,0,0,0-.14,0,.53.53,0,0,0,0,.39.47.47,0,0,0,.4,0,.12.12,0,0,0,0-.14,6.27,6.27,0,0,0,.81-1.14,6.77,6.77,0,0,0,0,1.39.13.13,0,0,0-.07.14c0,.07.22.26.3.25s.26-.23.26-.3A.14.14,0,0,0,56,3.71a6.4,6.4,0,0,0-.23-1.37,6.23,6.23,0,0,0,1,1,.13.13,0,0,0,0,.15.53.53,0,0,0,.39,0,.55.55,0,0,0,0-.4A.14.14,0,0,0,57,3a6.82,6.82,0,0,0-1.14-.81,6,6,0,0,0,1.4,0,.13.13,0,0,0,.13.06c.07,0,.27-.22.26-.3s-.23-.26-.3-.25a.12.12,0,0,0-.12.08,6.63,6.63,0,0,0-1.39.24,6.16,6.16,0,0,0,1-1,.13.13,0,0,0,.14,0,.51.51,0,0,0,0-.4.52.52,0,0,0-.39,0,.13.13,0,0,0,0,.15A6.27,6.27,0,0,0,55.74,2a6.85,6.85,0,0,0,0-1.4.11.11,0,0,0,.07-.13.55.55,0,0,0-.3-.26c-.08,0-.26.24-.26.3a.16.16,0,0,0,.09.13A6.53,6.53,0,0,0,55.58,2a6.19,6.19,0,0,0-1-1,.12.12,0,0,0-.05-.14.53.53,0,0,0-.39,0,.52.52,0,0,0,0,.39.13.13,0,0,0,.15,0,7.27,7.27,0,0,0,1.14.81,6,6,0,0,0-1.4,0A.16.16,0,0,0,54,2c-.07,0-.27.22-.26.3S53.92,2.57,54,2.57Zm1.67-.45h0v0h0s0,0,0,0h0a0,0,0,0,0,0,0l0,0,0,0v0a0,0,0,0,0,0,0s0,0,0,0,0,0,0,0h0Z"/><path class="cls-1" d="M49.48,3.23a.13.13,0,0,0,.12-.09A6.54,6.54,0,0,0,51,2.8,6,6,0,0,0,50,3.85a.13.13,0,0,0-.14.06.51.51,0,0,0,.06.38.48.48,0,0,0,.39-.06.14.14,0,0,0,0-.15,7,7,0,0,0,.72-1.19,5.79,5.79,0,0,0,.09,1.39.14.14,0,0,0-.06.14.51.51,0,0,0,.32.23c.09,0,.25-.25.24-.32a.12.12,0,0,0-.1-.11,6.72,6.72,0,0,0-.34-1.36,6.38,6.38,0,0,0,1,.92.16.16,0,0,0,.06.14.53.53,0,0,0,.39-.06.48.48,0,0,0-.06-.39.14.14,0,0,0-.15,0,6.43,6.43,0,0,0-1.2-.71,6.49,6.49,0,0,0,1.4-.09.13.13,0,0,0,.14.05.51.51,0,0,0,.23-.32c0-.08-.25-.24-.32-.23a.14.14,0,0,0-.12.1,6.26,6.26,0,0,0-1.36.34,6.33,6.33,0,0,0,.93-1,.14.14,0,0,0,.14-.06.5.5,0,0,0-.07-.39.53.53,0,0,0-.39.06.14.14,0,0,0,0,.15,6.37,6.37,0,0,0-.72,1.2,6.37,6.37,0,0,0-.09-1.39.13.13,0,0,0,0-.14c0-.07-.24-.25-.32-.23s-.24.25-.23.32a.15.15,0,0,0,.09.11A6.45,6.45,0,0,0,51,2.52,7.15,7.15,0,0,0,50,1.6a.11.11,0,0,0-.06-.13.5.5,0,0,0-.39.06.53.53,0,0,0,.06.39.14.14,0,0,0,.15,0,7,7,0,0,0,1.21.72,5.84,5.84,0,0,0-1.4.09.14.14,0,0,0-.14-.06c-.07,0-.25.24-.24.32A.55.55,0,0,0,49.48,3.23Zm1.63-.57h0a0,0,0,0,0,0,0s0,0,0,0,0,0,0,0,0,0,0,0h0a0,0,0,0,0,0,0h0l0,0v0h0l0,0s0,0,0,0h0A0,0,0,0,0,51.11,2.66Z"/><path class="cls-1" d="M45.05,4.25a.14.14,0,0,0,.1-.11,6.12,6.12,0,0,0,1.33-.44,5.92,5.92,0,0,0-.83,1.12.13.13,0,0,0-.14.07.54.54,0,0,0,.1.38A.56.56,0,0,0,46,5.18.12.12,0,0,0,46,5a6.51,6.51,0,0,0,.63-1.25,6.21,6.21,0,0,0,.2,1.38.13.13,0,0,0,0,.14.55.55,0,0,0,.34.21.54.54,0,0,0,.21-.34.15.15,0,0,0-.11-.11,6.08,6.08,0,0,0-.45-1.32,6.87,6.87,0,0,0,1.13.83.14.14,0,0,0,.07.14.56.56,0,0,0,.39-.1.52.52,0,0,0-.1-.38.14.14,0,0,0-.15,0,7,7,0,0,0-1.25-.62,6.13,6.13,0,0,0,1.38-.2.13.13,0,0,0,.15,0,.49.49,0,0,0,.2-.33c0-.08-.27-.22-.33-.21a.14.14,0,0,0-.11.11,6.12,6.12,0,0,0-1.33.44,6.32,6.32,0,0,0,.84-1.12c.05,0,.09,0,.13-.07a.49.49,0,0,0-.09-.38A.58.58,0,0,0,47.3,2a.16.16,0,0,0,0,.15,6.33,6.33,0,0,0-.62,1.25A6.78,6.78,0,0,0,46.48,2a.13.13,0,0,0,0-.14.55.55,0,0,0-.34-.21A.49.49,0,0,0,46,2c0,.07.05.09.1.11a6.08,6.08,0,0,0,.45,1.32,6.92,6.92,0,0,0-1.13-.84c0-.05,0-.09-.07-.13a.57.57,0,0,0-.38.09.53.53,0,0,0,.09.39.14.14,0,0,0,.15,0,6.66,6.66,0,0,0,1.26.62,6.2,6.2,0,0,0-1.39.2.12.12,0,0,0-.14,0,.47.47,0,0,0-.21.33A.54.54,0,0,0,45.05,4.25Zm1.57-.71,0,0v0s0,0,0,0,0,0,0,0a0,0,0,0,1,0,0s0,0,0,0h0s0,0,0,0a0,0,0,0,0,0,0v0s0,0,0,0h0v0l0,0h0Z"/><path class="cls-1" d="M40.53,5.07a.5.5,0,0,0-.18.36.53.53,0,0,0,.35.17.13.13,0,0,0,.1-.11,5.81,5.81,0,0,0,1.29-.55,7.5,7.5,0,0,0-.75,1.18.14.14,0,0,0-.12.08.54.54,0,0,0,.12.38.58.58,0,0,0,.38-.12.13.13,0,0,0,0-.15A7,7,0,0,0,42.23,5a5.79,5.79,0,0,0,.31,1.36.13.13,0,0,0,0,.15.54.54,0,0,0,.35.18A.52.52,0,0,0,43,6.35a.13.13,0,0,0-.11-.1A6.09,6.09,0,0,0,42.37,5a7.11,7.11,0,0,0,1.19.74.12.12,0,0,0,.08.12A.46.46,0,0,0,44,5.71a.49.49,0,0,0-.12-.37.13.13,0,0,0-.15,0,7.25,7.25,0,0,0-1.3-.52,6.49,6.49,0,0,0,1.36-.31.13.13,0,0,0,.15,0,.47.47,0,0,0,.18-.35A.52.52,0,0,0,43.79,4a.13.13,0,0,0-.1.12,6.18,6.18,0,0,0-1.29.54,6.64,6.64,0,0,0,.75-1.18.12.12,0,0,0,.12-.08.52.52,0,0,0-.12-.37.51.51,0,0,0-.38.12.13.13,0,0,0,0,.15,6.94,6.94,0,0,0-.52,1.29A6.49,6.49,0,0,0,42,3.25a.13.13,0,0,0,0-.14.47.47,0,0,0-.35-.18.52.52,0,0,0-.18.35.13.13,0,0,0,.11.1,6.8,6.8,0,0,0,.55,1.28,6.53,6.53,0,0,0-1.18-.74.16.16,0,0,0-.08-.13.53.53,0,0,0-.38.12.5.5,0,0,0,.12.38.13.13,0,0,0,.15,0A7.25,7.25,0,0,0,42,4.8a5.9,5.9,0,0,0-1.36.31A.14.14,0,0,0,40.53,5.07Zm1.69-.29h0v0s0,0,0,0h0s0,0,0,0h0s0,0,0,0h0a0,0,0,0,0,0,0s0,0,0,0h0v0h0S42.22,4.79,42.22,4.78Z"/><path class="cls-1" d="M36.26,6.78a.53.53,0,0,0-.15.36.48.48,0,0,0,.37.15.13.13,0,0,0,.09-.11,6.3,6.3,0,0,0,1.24-.65,6.46,6.46,0,0,0-.65,1.23.15.15,0,0,0-.12.09.48.48,0,0,0,.15.37.54.54,0,0,0,.37-.15.15.15,0,0,0,0-.15A6.09,6.09,0,0,0,38,6.59a6.71,6.71,0,0,0,.42,1.33.13.13,0,0,0,0,.15.54.54,0,0,0,.37.15.56.56,0,0,0,.15-.37.15.15,0,0,0-.12-.09,6.46,6.46,0,0,0-.65-1.23,6.3,6.3,0,0,0,1.24.65.14.14,0,0,0,.09.12.52.52,0,0,0,.36-.16c0-.07-.08-.33-.15-.36a.16.16,0,0,0-.15,0,5.83,5.83,0,0,0-1.34-.41A6.56,6.56,0,0,0,39.49,6a.13.13,0,0,0,.15,0,.44.44,0,0,0,.15-.36.47.47,0,0,0-.36-.15.13.13,0,0,0-.09.12,6.3,6.3,0,0,0-1.24.65A6.62,6.62,0,0,0,38.75,5a.15.15,0,0,0,.12-.09.55.55,0,0,0-.15-.36.5.5,0,0,0-.37.15.13.13,0,0,0,0,.15A6.71,6.71,0,0,0,38,6.19a5.93,5.93,0,0,0-.41-1.33.16.16,0,0,0,0-.15.5.5,0,0,0-.37-.15.51.51,0,0,0-.15.36.15.15,0,0,0,.12.09,7,7,0,0,0,.65,1.24,6.3,6.3,0,0,0-1.24-.65.14.14,0,0,0-.09-.12.48.48,0,0,0-.37.15.51.51,0,0,0,.15.36.13.13,0,0,0,.15,0,7,7,0,0,0,1.34.42,6.13,6.13,0,0,0-1.34.41A.13.13,0,0,0,36.26,6.78Zm1.66-.42h0s0,0,0,0a0,0,0,0,1,0,0h0a0,0,0,0,0,0,0h0s0,0,0,0,0,0,0,0h0v0s0,0,0,0h0v0s0,0,0,0h0Z"/><path class="cls-1" d="M32.08,8a.15.15,0,0,0,.15,0,7.11,7.11,0,0,0,1.37.31,6,6,0,0,0-1.3.51.14.14,0,0,0-.15,0,.53.53,0,0,0-.13.38.54.54,0,0,0,.38.12.13.13,0,0,0,.08-.13,6.16,6.16,0,0,0,1.19-.74,6.19,6.19,0,0,0-.55,1.28.15.15,0,0,0-.12.1.52.52,0,0,0,.18.35.5.5,0,0,0,.36-.18.12.12,0,0,0,0-.14,6.68,6.68,0,0,0,.32-1.36,5.57,5.57,0,0,0,.52,1.29.14.14,0,0,0,0,.15.49.49,0,0,0,.37.12c.08,0,.16-.31.13-.37a.15.15,0,0,0-.13-.08A6.27,6.27,0,0,0,34,8.42,7.28,7.28,0,0,0,35.24,9a.14.14,0,0,0,.1.11c.07,0,.33-.1.35-.18a.47.47,0,0,0-.18-.35.14.14,0,0,0-.14,0A7.28,7.28,0,0,0,34,8.27a6,6,0,0,0,1.3-.51.16.16,0,0,0,.15,0,.58.58,0,0,0,.13-.38.54.54,0,0,0-.38-.12.13.13,0,0,0-.08.13,6.16,6.16,0,0,0-1.19.74,6.19,6.19,0,0,0,.55-1.28.17.17,0,0,0,.12-.1.52.52,0,0,0-.18-.35.49.49,0,0,0-.36.18.12.12,0,0,0,0,.14,6.68,6.68,0,0,0-.32,1.36,5.57,5.57,0,0,0-.52-1.29.14.14,0,0,0,0-.15.5.5,0,0,0-.38-.12.5.5,0,0,0-.12.37A.14.14,0,0,0,32.9,7a6.27,6.27,0,0,0,.75,1.18,6.6,6.6,0,0,0-1.29-.55.14.14,0,0,0-.1-.11.52.52,0,0,0-.36.18A.57.57,0,0,0,32.08,8Zm1.69.23h0s0,0,0,0v0h0v0h0s0,0,0,0v0h0s0,0,0,0,0,0,0,0h0v0h0Z"/><path class="cls-1" d="M28.08,10.38a.12.12,0,0,0,.14,0,6.2,6.2,0,0,0,1.39.2,7.3,7.3,0,0,0-1.26.62.14.14,0,0,0-.15,0,.53.53,0,0,0-.09.39.58.58,0,0,0,.38.09.13.13,0,0,0,.07-.14,6.07,6.07,0,0,0,1.13-.83A6.69,6.69,0,0,0,29.24,12s-.09,0-.1.11a.49.49,0,0,0,.2.34.51.51,0,0,0,.34-.21.11.11,0,0,0,0-.14,6.78,6.78,0,0,0,.2-1.38A7,7,0,0,0,30.46,12a.16.16,0,0,0,0,.15.53.53,0,0,0,.39.09.49.49,0,0,0,.09-.38.12.12,0,0,0-.13-.07A6.22,6.22,0,0,0,30,10.63a6.32,6.32,0,0,0,1.33.44.14.14,0,0,0,.11.11.54.54,0,0,0,.34-.21.47.47,0,0,0-.21-.33.11.11,0,0,0-.14,0,6.27,6.27,0,0,0-1.39-.2,6.62,6.62,0,0,0,1.26-.62.14.14,0,0,0,.15,0,.56.56,0,0,0,.09-.38.55.55,0,0,0-.39-.1.14.14,0,0,0-.07.14,6.28,6.28,0,0,0-1.12.83A6.69,6.69,0,0,0,30.38,9a.14.14,0,0,0,.1-.11c0-.07-.13-.32-.21-.33a.46.46,0,0,0-.33.2.11.11,0,0,0,0,.14,6.21,6.21,0,0,0-.2,1.38,7,7,0,0,0-.62-1.25.14.14,0,0,0,0-.15.54.54,0,0,0-.38-.09.49.49,0,0,0-.09.38.12.12,0,0,0,.13.07,5.87,5.87,0,0,0,.84,1.12A6.54,6.54,0,0,0,28.32,10a.15.15,0,0,0-.11-.11.54.54,0,0,0-.34.21A.47.47,0,0,0,28.08,10.38Zm1.69.1h0v0s0,0,0,0l0,0a0,0,0,0,0,0,0h0l0,0v0h0v0s0,0,0,0l0,0s0,0,0,0h0l0,0S29.78,10.49,29.77,10.48Z"/><path class="cls-1" d="M24.27,13a.13.13,0,0,0,.14,0,6.46,6.46,0,0,0,1.4.09,6.37,6.37,0,0,0-1.21.72.11.11,0,0,0-.14,0,.52.52,0,0,0-.07.39.5.5,0,0,0,.39.06.12.12,0,0,0,.06-.14,6.66,6.66,0,0,0,1.06-.91,6,6,0,0,0-.34,1.35.14.14,0,0,0-.1.11c0,.07.15.31.23.32a.51.51,0,0,0,.32-.23.13.13,0,0,0-.05-.14,6.37,6.37,0,0,0,.09-1.39,7,7,0,0,0,.72,1.2.14.14,0,0,0,0,.15.52.52,0,0,0,.39.06.54.54,0,0,0,.06-.39.13.13,0,0,0-.14-.06,6.89,6.89,0,0,0-.92-1,6,6,0,0,0,1.36.34.14.14,0,0,0,.11.1c.07,0,.31-.15.32-.23s-.16-.31-.23-.32a.13.13,0,0,0-.14.05A6.43,6.43,0,0,0,26.2,13a6.76,6.76,0,0,0,1.21-.71.14.14,0,0,0,.15,0,.52.52,0,0,0,.06-.39.54.54,0,0,0-.39-.06.13.13,0,0,0-.06.14,6.13,6.13,0,0,0-1.06.92,6.1,6.1,0,0,0,.34-1.36.12.12,0,0,0,.1-.11c0-.07-.15-.31-.23-.32a.51.51,0,0,0-.32.23.13.13,0,0,0,.05.14A6.37,6.37,0,0,0,26,12.84a6.7,6.7,0,0,0-.72-1.2.12.12,0,0,0,0-.14.55.55,0,0,0-.4-.07.54.54,0,0,0-.06.39.13.13,0,0,0,.14.06,6.42,6.42,0,0,0,.92,1,6.54,6.54,0,0,0-1.36-.34c0-.05,0-.08-.11-.1a.51.51,0,0,0-.32.24C24,12.81,24.2,13,24.27,13ZM26,13h0s0,0,0,0,0,0,0,0h0s0,0,0,0h0s0,0,0,0h0v0s0,0,0,0h0v0h0l0,0Z"/><path class="cls-1" d="M20.68,16a.14.14,0,0,0,.14-.06,6,6,0,0,0,1.4,0,6.44,6.44,0,0,0-1.14.81.14.14,0,0,0-.15,0,.5.5,0,0,0,0,.4.53.53,0,0,0,.39,0,.14.14,0,0,0,.05-.14,6.63,6.63,0,0,0,1-1,6.53,6.53,0,0,0-.23,1.37.14.14,0,0,0-.09.12c0,.07.18.3.26.3s.29-.18.3-.25a.14.14,0,0,0-.07-.14,6.77,6.77,0,0,0,0-1.39,5.8,5.8,0,0,0,.81,1.14.12.12,0,0,0,0,.14.51.51,0,0,0,.4,0,.56.56,0,0,0,0-.4.14.14,0,0,0-.14-.05,6.44,6.44,0,0,0-1-1,6.38,6.38,0,0,0,1.39.24.12.12,0,0,0,.12.08.49.49,0,0,0,.3-.25c0-.09-.19-.3-.26-.3a.12.12,0,0,0-.13.06,6.16,6.16,0,0,0-1.41,0A6.81,6.81,0,0,0,23.75,15a.14.14,0,0,0,.15,0,.55.55,0,0,0,0-.4.55.55,0,0,0-.4,0,.12.12,0,0,0,0,.14,6.63,6.63,0,0,0-1,1,6.53,6.53,0,0,0,.23-1.37.15.15,0,0,0,.09-.13c0-.06-.18-.29-.26-.29a.47.47,0,0,0-.3.25.13.13,0,0,0,.07.14,6.77,6.77,0,0,0,0,1.39,6.27,6.27,0,0,0-.81-1.14.13.13,0,0,0,0-.15.52.52,0,0,0-.39,0,.51.51,0,0,0,0,.4.13.13,0,0,0,.14,0,6.63,6.63,0,0,0,1,1,6.39,6.39,0,0,0-1.38-.24.12.12,0,0,0-.12-.08c-.07,0-.3.17-.3.25S20.62,16,20.68,16Zm1.69-.16h0v0l0,0v0h0v0h0v0s0,0,0,0l0,0s0,0,0,0h0Z"/><path class="cls-1" d="M17.34,19.21a.13.13,0,0,0,.13-.07,6.33,6.33,0,0,0,1.4-.13,6.55,6.55,0,0,0-1.08.89.13.13,0,0,0-.14,0,.51.51,0,0,0,0,.4.58.58,0,0,0,.39,0,.15.15,0,0,0,0-.15,6.35,6.35,0,0,0,.9-1.07,6.16,6.16,0,0,0-.13,1.39.14.14,0,0,0-.08.13c0,.07.2.28.28.28s.28-.21.28-.28a.13.13,0,0,0-.07-.13,6.23,6.23,0,0,0-.13-1.39,6.35,6.35,0,0,0,.9,1.07.15.15,0,0,0,0,.15.58.58,0,0,0,.39,0,.51.51,0,0,0,0-.4.13.13,0,0,0-.14,0A7.13,7.13,0,0,0,19.24,19a6.33,6.33,0,0,0,1.4.13.13.13,0,0,0,.13.07c.07,0,.28-.19.28-.27s-.21-.28-.28-.28a.13.13,0,0,0-.13.07,6.33,6.33,0,0,0-1.4.13A6.55,6.55,0,0,0,20.32,18a.13.13,0,0,0,.14,0,.51.51,0,0,0,0-.4.53.53,0,0,0-.39,0,.13.13,0,0,0,0,.14,6.35,6.35,0,0,0-.9,1.07,6.16,6.16,0,0,0,.13-1.39.13.13,0,0,0,.07-.13c0-.07-.19-.28-.28-.28s-.27.21-.27.28a.13.13,0,0,0,.07.13A6.16,6.16,0,0,0,19,18.75a6.35,6.35,0,0,0-.9-1.07.15.15,0,0,0,0-.15.58.58,0,0,0-.39,0,.51.51,0,0,0,0,.4.13.13,0,0,0,.14,0,7.13,7.13,0,0,0,1.08.89,6.33,6.33,0,0,0-1.4-.13.13.13,0,0,0-.13-.07c-.07,0-.28.19-.28.27S17.27,19.21,17.34,19.21ZM19,18.92h0v0l0,0v0h0a0,0,0,0,0,0,0h0v0a0,0,0,0,0,0,0,0,0,0,0,0,0,0v0h0a0,0,0,0,0,0,0Z"/><path class="cls-1" d="M14.26,22.68a.14.14,0,0,0,.13-.08,6.39,6.39,0,0,0,1.38-.24,6.19,6.19,0,0,0-1,1,.14.14,0,0,0-.15.05.49.49,0,0,0,0,.39.52.52,0,0,0,.39,0,.17.17,0,0,0,0-.15,6.44,6.44,0,0,0,.81-1.14,6,6,0,0,0,0,1.4.14.14,0,0,0-.07.13.54.54,0,0,0,.31.26.49.49,0,0,0,.25-.3.12.12,0,0,0-.08-.12A6.39,6.39,0,0,0,16,22.45a6.19,6.19,0,0,0,1,1,.13.13,0,0,0,.05.14.56.56,0,0,0,.4,0,.48.48,0,0,0,0-.39.11.11,0,0,0-.14,0,6.81,6.81,0,0,0-1.15-.81,6,6,0,0,0,1.4,0,.16.16,0,0,0,.14.07.55.55,0,0,0,.26-.3c0-.08-.24-.26-.3-.26a.15.15,0,0,0-.13.09,6.52,6.52,0,0,0-1.38.23,6.48,6.48,0,0,0,1-1,.16.16,0,0,0,.15-.05.49.49,0,0,0,0-.39.48.48,0,0,0-.39,0,.14.14,0,0,0,0,.15A6.85,6.85,0,0,0,16,22.08a6,6,0,0,0,0-1.39.14.14,0,0,0,.06-.14c0-.06-.21-.26-.3-.25a.49.49,0,0,0-.25.3.12.12,0,0,0,.08.12,6.15,6.15,0,0,0,.24,1.37,6.23,6.23,0,0,0-1-1,.13.13,0,0,0-.05-.14.47.47,0,0,0-.4,0,.48.48,0,0,0,0,.39.12.12,0,0,0,.14,0,6.26,6.26,0,0,0,1.15.81,6.68,6.68,0,0,0-1.4,0,.14.14,0,0,0-.14-.06c-.07,0-.26.22-.26.3A.52.52,0,0,0,14.26,22.68Zm1.67-.45,0,0v0s0,0,0,0,0,0,0,0l0,0s0,0,0,0h0s0,0,0,0h0s0,0,0,0h0a0,0,0,0,0,0,0h0Z"/><path class="cls-1" d="M11.47,26.38a.13.13,0,0,0,.12-.09A6.91,6.91,0,0,0,13,26,6,6,0,0,0,12,27a.13.13,0,0,0-.14.06.47.47,0,0,0,.07.38.49.49,0,0,0,.39-.06.14.14,0,0,0,0-.15A6.36,6.36,0,0,0,13.07,26a7.09,7.09,0,0,0,.09,1.39.13.13,0,0,0-.05.14.55.55,0,0,0,.32.23c.08,0,.24-.25.23-.32a.13.13,0,0,0-.09-.12A6.45,6.45,0,0,0,13.22,26a6.13,6.13,0,0,0,1.06.92.13.13,0,0,0,.06.14.54.54,0,0,0,.39-.06.52.52,0,0,0-.06-.39.14.14,0,0,0-.15,0,6.76,6.76,0,0,0-1.21-.71,7.14,7.14,0,0,0,1.4-.09.15.15,0,0,0,.14.05.52.52,0,0,0,.24-.32.55.55,0,0,0-.32-.23.14.14,0,0,0-.12.1,6,6,0,0,0-1.36.34,6.89,6.89,0,0,0,.92-1,.15.15,0,0,0,.14-.06.49.49,0,0,0-.06-.39.52.52,0,0,0-.39.06.14.14,0,0,0,0,.15,5.91,5.91,0,0,0-.71,1.2,6.54,6.54,0,0,0-.1-1.39.14.14,0,0,0,.06-.14c0-.07-.24-.25-.32-.23s-.25.25-.24.31a.14.14,0,0,0,.1.12A6.58,6.58,0,0,0,13,25.67a6.42,6.42,0,0,0-1-.92.15.15,0,0,0-.06-.13c-.06,0-.35,0-.39.06a.49.49,0,0,0,.06.39.14.14,0,0,0,.15,0,7,7,0,0,0,1.2.72,5.89,5.89,0,0,0-1.4.09.14.14,0,0,0-.14-.06.51.51,0,0,0-.23.32C11.16,26.23,11.4,26.39,11.47,26.38Zm1.63-.58v0l0,0v0h0s0,0,0,0h0s0,0,0,0h0a0,0,0,0,0,0,0,0,0,0,0,0,0,0h0a0,0,0,0,1,0,0s0,0,0,0h0Z"/><path class="cls-1" d="M9,30.29a.13.13,0,0,0,.1-.1,6.6,6.6,0,0,0,1.33-.45,6.28,6.28,0,0,0-.83,1.12.14.14,0,0,0-.14.07.52.52,0,0,0,.1.38.51.51,0,0,0,.38-.09.12.12,0,0,0,0-.15,6.51,6.51,0,0,0,.63-1.25,6.13,6.13,0,0,0,.2,1.38.14.14,0,0,0-.05.14.51.51,0,0,0,.34.21.54.54,0,0,0,.21-.34.17.17,0,0,0-.11-.11,7.08,7.08,0,0,0-.44-1.32,6.74,6.74,0,0,0,1.12.84.14.14,0,0,0,.07.13.55.55,0,0,0,.39-.09.54.54,0,0,0-.1-.39.16.16,0,0,0-.15,0,7,7,0,0,0-1.25-.62,6.13,6.13,0,0,0,1.38-.2.16.16,0,0,0,.15.05.54.54,0,0,0,.2-.34c0-.08-.27-.22-.33-.21a.14.14,0,0,0-.11.11,6.73,6.73,0,0,0-1.33.44,6.56,6.56,0,0,0,.84-1.11.16.16,0,0,0,.13-.07.51.51,0,0,0-.09-.39.54.54,0,0,0-.39.1.14.14,0,0,0,0,.14,7,7,0,0,0-.62,1.25,6.88,6.88,0,0,0-.2-1.38.13.13,0,0,0,0-.14.54.54,0,0,0-.34-.2c-.08,0-.22.27-.2.33a.12.12,0,0,0,.1.11,6.08,6.08,0,0,0,.45,1.32,6.07,6.07,0,0,0-1.13-.83.13.13,0,0,0-.07-.14.52.52,0,0,0-.38.1A.51.51,0,0,0,9,29a.14.14,0,0,0,.15,0,6.09,6.09,0,0,0,1.26.62,6.86,6.86,0,0,0-1.39.2.12.12,0,0,0-.14,0,.47.47,0,0,0-.21.33A.5.5,0,0,0,9,30.29Zm1.57-.7h0s0,0,0,0a0,0,0,0,1,0,0h0a0,0,0,0,0,0,0h0s0,0,0,0,0,0,0,0a0,0,0,0,0,0,0,0,0,0,0,0,0,0h0v0l0,0h0Z"/><path class="cls-1" d="M6.63,33.85a.47.47,0,0,0-.18.35c0,.08.28.2.35.18a.14.14,0,0,0,.1-.11,7,7,0,0,0,1.29-.55,5.65,5.65,0,0,0-.75,1.18.15.15,0,0,0-.13.08.48.48,0,0,0,.13.37.49.49,0,0,0,.37-.12.13.13,0,0,0,0-.15,6.47,6.47,0,0,0,.53-1.29,5.9,5.9,0,0,0,.31,1.36.12.12,0,0,0,0,.14.5.5,0,0,0,.36.18c.08,0,.2-.28.18-.35A.14.14,0,0,0,9,35a5.68,5.68,0,0,0-.55-1.28,6.71,6.71,0,0,0,1.19.74.14.14,0,0,0,.08.13.54.54,0,0,0,.38-.12.51.51,0,0,0-.13-.38.14.14,0,0,0-.15,0,6.71,6.71,0,0,0-1.3-.52,5.85,5.85,0,0,0,1.37-.31.13.13,0,0,0,.15,0,.57.57,0,0,0,.18-.35.52.52,0,0,0-.36-.18.14.14,0,0,0-.1.11,6.19,6.19,0,0,0-1.28.55,6.93,6.93,0,0,0,.74-1.18.14.14,0,0,0,.13-.08.54.54,0,0,0-.12-.38.54.54,0,0,0-.38.12.13.13,0,0,0,0,.15,7,7,0,0,0-.52,1.3A7.22,7.22,0,0,0,8.05,32a.15.15,0,0,0,0-.15.57.57,0,0,0-.35-.18.52.52,0,0,0-.18.35.13.13,0,0,0,.11.1,6.6,6.6,0,0,0,.55,1.29A6.09,6.09,0,0,0,7,32.69a.12.12,0,0,0-.08-.12.5.5,0,0,0-.37.12.49.49,0,0,0,.12.37.13.13,0,0,0,.15,0,6.32,6.32,0,0,0,1.3.52,6.69,6.69,0,0,0-1.37.31A.13.13,0,0,0,6.63,33.85Zm1.68-.3h0s0,0,0,0v0h0s0,0,0,0,0,0,0,0h0v0h0s0,0,0,0,0,0,0,0h0v0s0,0,0,0h0A0,0,0,0,0,8.31,33.55Z"/><path class="cls-1" d="M4.74,38.11c-.07,0-.19.29-.15.36a.47.47,0,0,0,.36.15A.12.12,0,0,0,5,38.5a5.88,5.88,0,0,0,1.24-.64,6.46,6.46,0,0,0-.65,1.23.15.15,0,0,0-.12.09.55.55,0,0,0,.15.36A.46.46,0,0,0,6,39.39a.12.12,0,0,0,0-.14,6.91,6.91,0,0,0,.42-1.33,6.09,6.09,0,0,0,.41,1.33.14.14,0,0,0,0,.14.46.46,0,0,0,.37.15.51.51,0,0,0,.15-.36.15.15,0,0,0-.12-.09,6.46,6.46,0,0,0-.65-1.23,5.88,5.88,0,0,0,1.24.64.13.13,0,0,0,.09.12.48.48,0,0,0,.37-.15.53.53,0,0,0-.15-.36.13.13,0,0,0-.15,0,6.13,6.13,0,0,0-1.34-.41A7,7,0,0,0,8,37.3a.13.13,0,0,0,.15,0A.53.53,0,0,0,8.27,37a.48.48,0,0,0-.37-.15.14.14,0,0,0-.09.12,6.15,6.15,0,0,0-1.24.64,6.46,6.46,0,0,0,.65-1.23.14.14,0,0,0,.12-.09.47.47,0,0,0-.15-.36.46.46,0,0,0-.37.15.12.12,0,0,0,0,.14,5.62,5.62,0,0,0-.42,1.34A6.75,6.75,0,0,0,6,36.18.12.12,0,0,0,6,36a.46.46,0,0,0-.37-.15.55.55,0,0,0-.15.36.15.15,0,0,0,.12.09,7.1,7.1,0,0,0,.65,1.23A5.88,5.88,0,0,0,5,36.93.11.11,0,0,0,5,36.81a.47.47,0,0,0-.36.15c0,.07.08.33.15.36a.13.13,0,0,0,.15,0,5.83,5.83,0,0,0,1.34.41,6.56,6.56,0,0,0-1.34.42A.13.13,0,0,0,4.74,38.11Zm1.66-.43h0v0s0,0,0,0h0v0h0v0h0s0,0,0,0v0h0s0,0,0,0h0S6.4,37.69,6.4,37.68Z"/><path class="cls-1" d="M3.13,41.72a.16.16,0,0,0,.15,0,6.32,6.32,0,0,0,1.36.3,7,7,0,0,0-1.3.52.13.13,0,0,0-.15,0,.53.53,0,0,0-.12.38.52.52,0,0,0,.37.12.14.14,0,0,0,.09-.13,6.34,6.34,0,0,0,1.18-.74,6.8,6.8,0,0,0-.55,1.28.14.14,0,0,0-.11.1c0,.07.1.33.18.35a.47.47,0,0,0,.35-.18.14.14,0,0,0,0-.14,6.49,6.49,0,0,0,.31-1.36,6.68,6.68,0,0,0,.52,1.29.14.14,0,0,0,0,.15.51.51,0,0,0,.38.12.5.5,0,0,0,.12-.37.13.13,0,0,0-.13-.08A6.93,6.93,0,0,0,5,42.11a6.66,6.66,0,0,0,1.29.55.13.13,0,0,0,.1.11.52.52,0,0,0,.35-.18.54.54,0,0,0-.18-.35.15.15,0,0,0-.15,0A7.11,7.11,0,0,0,5,42a6.18,6.18,0,0,0,1.31-.51.14.14,0,0,0,.15,0,.49.49,0,0,0,.12-.37A.54.54,0,0,0,6.24,41a.13.13,0,0,0-.08.13A6.16,6.16,0,0,0,5,41.83a6.09,6.09,0,0,0,.56-1.28.14.14,0,0,0,.11-.1c0-.07-.1-.33-.18-.35a.49.49,0,0,0-.35.17.13.13,0,0,0,0,.15,5.9,5.9,0,0,0-.31,1.36,6.68,6.68,0,0,0-.52-1.29.14.14,0,0,0,0-.15.58.58,0,0,0-.38-.13.54.54,0,0,0-.12.38.12.12,0,0,0,.12.08,6.83,6.83,0,0,0,.75,1.18A6.33,6.33,0,0,0,3.4,41.3a.13.13,0,0,0-.1-.11c-.06,0-.33.1-.35.18A.48.48,0,0,0,3.13,41.72ZM4.81,42h0s0,0,0,0v0h0a0,0,0,0,0,0,0h0s0,0,0,0v0h0v0s0,0,0,0h0s0,0,0,0h0Z"/><path class="cls-1" d="M1.87,46.23a.16.16,0,0,0,.15,0,7,7,0,0,0,1.38.21A6.15,6.15,0,0,0,2.15,47,.14.14,0,0,0,2,47a.5.5,0,0,0-.1.38.51.51,0,0,0,.39.09.14.14,0,0,0,.07-.13,6.28,6.28,0,0,0,1.12-.83A6.45,6.45,0,0,0,3,47.84a.13.13,0,0,0-.1.1.5.5,0,0,0,.21.34.47.47,0,0,0,.33-.21.12.12,0,0,0,0-.14,6.06,6.06,0,0,0,.2-1.38,6.51,6.51,0,0,0,.63,1.25.12.12,0,0,0,0,.15.46.46,0,0,0,.38.09.52.52,0,0,0,.1-.38.15.15,0,0,0-.14-.07,5.78,5.78,0,0,0-.84-1.12,6.43,6.43,0,0,0,1.33.45.14.14,0,0,0,.11.1.49.49,0,0,0,.34-.2.51.51,0,0,0-.21-.34.14.14,0,0,0-.14.05,6.36,6.36,0,0,0-1.39-.21,5.82,5.82,0,0,0,1.26-.62.12.12,0,0,0,.15,0,.5.5,0,0,0,.09-.38.48.48,0,0,0-.38-.09.12.12,0,0,0-.07.13,6.07,6.07,0,0,0-1.13.83,6.08,6.08,0,0,0,.45-1.32.12.12,0,0,0,.1-.11.49.49,0,0,0-.2-.33.54.54,0,0,0-.34.2.15.15,0,0,0,0,.15,6.69,6.69,0,0,0-.2,1.38A6.64,6.64,0,0,0,3,44.91a.16.16,0,0,0,0-.15.49.49,0,0,0-.39-.09.48.48,0,0,0-.09.38.13.13,0,0,0,.13.07,7.2,7.2,0,0,0,.84,1.12,6,6,0,0,0-1.33-.45.12.12,0,0,0-.11-.1.51.51,0,0,0-.34.2A.55.55,0,0,0,1.87,46.23Zm1.7.1a0,0,0,0,0,0,0v0s0,0,0,0h0v0h0s0,0,0,0,0,0,0,0v0h0v0h0Z"/><path class="cls-1" d="M1,50.82a.13.13,0,0,0,.14,0,7.22,7.22,0,0,0,1.4.09,6.5,6.5,0,0,0-1.2.71.14.14,0,0,0-.15,0A.48.48,0,0,0,1.1,52a.54.54,0,0,0,.39.06.16.16,0,0,0,.06-.14A5.62,5.62,0,0,0,2.6,51a6.58,6.58,0,0,0-.34,1.35.13.13,0,0,0-.09.12c0,.07.15.31.23.32a.55.55,0,0,0,.32-.23.14.14,0,0,0-.06-.14A6.54,6.54,0,0,0,2.76,51a5.85,5.85,0,0,0,.72,1.19.12.12,0,0,0,0,.15.49.49,0,0,0,.39.06A.47.47,0,0,0,3.94,52,.11.11,0,0,0,3.81,52a6,6,0,0,0-.93-1,6.72,6.72,0,0,0,1.36.34.13.13,0,0,0,.12.09c.07,0,.31-.15.32-.23a.55.55,0,0,0-.23-.32.14.14,0,0,0-.14.06,5.89,5.89,0,0,0-1.4-.09,7.37,7.37,0,0,0,1.2-.72.14.14,0,0,0,.15,0,.49.49,0,0,0,.06-.39.49.49,0,0,0-.39-.06.13.13,0,0,0-.06.13,6,6,0,0,0-1.05.92,6.58,6.58,0,0,0,.34-1.35.13.13,0,0,0,.09-.12c0-.06-.15-.3-.23-.31s-.31.16-.32.23a.15.15,0,0,0,.06.14,6.54,6.54,0,0,0-.1,1.39,5.6,5.6,0,0,0-.72-1.2.12.12,0,0,0,0-.15.52.52,0,0,0-.39-.06.49.49,0,0,0-.06.39.15.15,0,0,0,.13.06,6.83,6.83,0,0,0,.93,1.05,6.1,6.1,0,0,0-1.36-.34.14.14,0,0,0-.12-.1c-.07,0-.31.15-.32.23A.55.55,0,0,0,1,50.82Zm1.7,0h0v0l0,0v0h0s0,0,0,0l0,0h0v0h0v0h0S2.68,50.8,2.67,50.79Z"/><path class="cls-1" d="M.44,55.47a.14.14,0,0,0,.14-.07,6.85,6.85,0,0,0,1.4,0,5.79,5.79,0,0,0-1.14.8.17.17,0,0,0-.15,0,.48.48,0,0,0,0,.39.49.49,0,0,0,.39,0,.13.13,0,0,0,.05-.14,6.19,6.19,0,0,0,1-1,6.39,6.39,0,0,0-.24,1.38.12.12,0,0,0-.08.12.48.48,0,0,0,.26.3c.08,0,.29-.19.3-.26a.16.16,0,0,0-.07-.13,6,6,0,0,0,0-1.39,6.46,6.46,0,0,0,.82,1.13.14.14,0,0,0,0,.15.55.55,0,0,0,.4,0,.53.53,0,0,0,0-.39.14.14,0,0,0-.14,0,6.91,6.91,0,0,0-1-1,6.52,6.52,0,0,0,1.38.23.16.16,0,0,0,.13.09.55.55,0,0,0,.3-.26c0-.08-.19-.29-.26-.3a.13.13,0,0,0-.13.07,7,7,0,0,0-1.41,0,6.09,6.09,0,0,0,1.15-.8.13.13,0,0,0,.15,0,.52.52,0,0,0,0-.39.51.51,0,0,0-.4,0,.13.13,0,0,0,0,.14,7.21,7.21,0,0,0-1,1,6.39,6.39,0,0,0,.24-1.38.13.13,0,0,0,.09-.12.55.55,0,0,0-.26-.3c-.08,0-.3.19-.3.26a.12.12,0,0,0,.06.13,6.68,6.68,0,0,0,0,1.4A6.44,6.44,0,0,0,1.3,54a.13.13,0,0,0,0-.15.52.52,0,0,0-.39,0,.49.49,0,0,0,0,.39.13.13,0,0,0,.14,0,6.45,6.45,0,0,0,1,1A7.26,7.26,0,0,0,.61,55a.13.13,0,0,0-.12-.09c-.07,0-.3.18-.3.26S.37,55.46.44,55.47Zm1.69-.16h0v0h0v0h0v0h0s0,0,0,0l0,0,0,0s0,0,0,0h0l0,0Z"/><path class="cls-1" d="M.41,60.07a6.33,6.33,0,0,0,1.4-.13,6.33,6.33,0,0,0-1.08.9.14.14,0,0,0-.15,0,.55.55,0,0,0,0,.4.51.51,0,0,0,.4,0,.15.15,0,0,0,0-.15,6.89,6.89,0,0,0,.9-1.07,6.23,6.23,0,0,0-.13,1.39.13.13,0,0,0-.08.13c0,.07.2.28.28.28s.28-.21.28-.28a.14.14,0,0,0-.07-.13,6.23,6.23,0,0,0-.13-1.39A5.9,5.9,0,0,0,3,61.12a.13.13,0,0,0,0,.15.48.48,0,0,0,.39,0,.51.51,0,0,0,0-.4.13.13,0,0,0-.14,0,6.74,6.74,0,0,0-1.08-.9,6.26,6.26,0,0,0,1.4.13.13.13,0,0,0,.13.08c.06,0,.28-.2.28-.28s-.22-.28-.28-.28a.13.13,0,0,0-.13.08,6.4,6.4,0,0,0-1.4.12,6.55,6.55,0,0,0,1.08-.89.13.13,0,0,0,.14,0,.48.48,0,0,0,0-.39.48.48,0,0,0-.39,0,.12.12,0,0,0,0,.14,6.26,6.26,0,0,0-.9,1.07,6.16,6.16,0,0,0,.13-1.39.13.13,0,0,0,.07-.12c0-.07-.2-.28-.28-.28s-.28.21-.28.28a.12.12,0,0,0,.08.12,6.16,6.16,0,0,0,.13,1.39A7.39,7.39,0,0,0,1,58.61a.13.13,0,0,0,0-.14.51.51,0,0,0-.4,0,.58.58,0,0,0,0,.39.15.15,0,0,0,.15,0,6.16,6.16,0,0,0,1.08.89,6.33,6.33,0,0,0-1.4-.13.14.14,0,0,0-.13-.07c-.07,0-.28.2-.28.28s.21.28.28.28A.15.15,0,0,0,.41,60.07ZM2,59.85H2v0H2v0H2v0H2v0l0,0v0H2Z"/><path class="cls-1" d="M1,65.47a.13.13,0,0,0-.14,0,.51.51,0,0,0,0,.4.48.48,0,0,0,.39,0,.11.11,0,0,0,0-.14,6.82,6.82,0,0,0,.81-1.14,6,6,0,0,0,0,1.39.14.14,0,0,0-.06.14.47.47,0,0,0,.3.25c.08,0,.26-.23.26-.3A.14.14,0,0,0,2.5,66a6.39,6.39,0,0,0-.24-1.37,7.18,7.18,0,0,0,1,1,.14.14,0,0,0,0,.14.56.56,0,0,0,.4,0,.55.55,0,0,0,0-.4.14.14,0,0,0-.15,0,6.81,6.81,0,0,0-1.15-.81,6.14,6.14,0,0,0,1.41,0,.12.12,0,0,0,.13.06c.07,0,.27-.21.26-.3a.49.49,0,0,0-.3-.25.15.15,0,0,0-.13.08,6.39,6.39,0,0,0-1.38.24,6.16,6.16,0,0,0,1-1,.12.12,0,0,0,.14,0,.56.56,0,0,0,0-.4.55.55,0,0,0-.4,0,.14.14,0,0,0,0,.15,6.45,6.45,0,0,0-.82,1.14,6,6,0,0,0,0-1.4.13.13,0,0,0,.07-.13c0-.07-.22-.26-.3-.25s-.27.23-.26.29a.13.13,0,0,0,.09.13,5.92,5.92,0,0,0,.23,1.37,6.63,6.63,0,0,0-1-1,.14.14,0,0,0-.05-.14.53.53,0,0,0-.39,0,.51.51,0,0,0,0,.4.14.14,0,0,0,.15,0A6.44,6.44,0,0,0,2,64.35a6,6,0,0,0-1.4,0,.14.14,0,0,0-.14-.06c-.07,0-.26.21-.25.29s.23.27.3.26a.13.13,0,0,0,.12-.09A5.93,5.93,0,0,0,2,64.5,7,7,0,0,0,1,65.47Zm1.16-1.1s0,0,0,0h0s0,0,0,0h0s0,0,0,0h0s0,0,0,0v0a0,0,0,0,0,0,0v0s0,0,0,0,0,0,0,0h0s0,0,0,0S2.15,64.38,2.15,64.37Z"/><path class="cls-1" d="M1.94,70.31a5.85,5.85,0,0,0,.72-1.19,6.54,6.54,0,0,0,.1,1.39.14.14,0,0,0-.06.14.51.51,0,0,0,.32.23c.08,0,.24-.25.23-.32s0-.1-.09-.11a6,6,0,0,0-.35-1.36A6.13,6.13,0,0,0,3.87,70a.14.14,0,0,0,.06.14.54.54,0,0,0,.39-.06.48.48,0,0,0-.06-.39.14.14,0,0,0-.15,0A7.14,7.14,0,0,0,2.91,69a6.49,6.49,0,0,0,1.4-.09.13.13,0,0,0,.14.05.55.55,0,0,0,.23-.32c0-.08-.25-.24-.32-.23a.14.14,0,0,0-.12.1,6.1,6.1,0,0,0-1.36.34,6.83,6.83,0,0,0,.93-1,.11.11,0,0,0,.13-.06.49.49,0,0,0-.06-.39.53.53,0,0,0-.39.06.12.12,0,0,0,0,.15,5.86,5.86,0,0,0-.72,1.2,6.54,6.54,0,0,0-.1-1.39.14.14,0,0,0,.06-.14c0-.07-.24-.25-.32-.23s-.24.25-.23.32a.13.13,0,0,0,.09.11,5.87,5.87,0,0,0,.35,1.35,7.15,7.15,0,0,0-1.06-.92.13.13,0,0,0-.06-.13.49.49,0,0,0-.39.06.49.49,0,0,0,.06.39.14.14,0,0,0,.15,0,7.37,7.37,0,0,0,1.2.72,5.89,5.89,0,0,0-1.4.09A.14.14,0,0,0,1,68.91c-.06,0-.24.24-.23.32s.25.24.32.23a.13.13,0,0,0,.12-.09A6.91,6.91,0,0,0,2.54,69a6,6,0,0,0-.93,1,.11.11,0,0,0-.13.06.5.5,0,0,0,.06.39.53.53,0,0,0,.39-.07A.12.12,0,0,0,1.94,70.31Zm.75-1.42h0a0,0,0,0,0,0,0v0h0s0,0,0,0h0v0h0a0,0,0,0,0,0,0v0h0l0,0s0,0,0,0h0Z"/><path class="cls-1" d="M3,74.83a7,7,0,0,0,.62-1.25A6.78,6.78,0,0,0,3.77,75a.13.13,0,0,0,0,.14.51.51,0,0,0,.34.21.49.49,0,0,0,.2-.34.14.14,0,0,0-.1-.11,6.29,6.29,0,0,0-.45-1.32,6.49,6.49,0,0,0,1.13.84c0,.05,0,.09.07.13a.53.53,0,0,0,.38-.09A.53.53,0,0,0,5.21,74a.16.16,0,0,0-.15,0,7,7,0,0,0-1.26-.62,6.2,6.2,0,0,0,1.39-.2.12.12,0,0,0,.14,0,.47.47,0,0,0,.21-.33.54.54,0,0,0-.34-.21.17.17,0,0,0-.11.11,6.82,6.82,0,0,0-1.32.44,6.12,6.12,0,0,0,.83-1.11.16.16,0,0,0,.14-.07.56.56,0,0,0-.1-.39.54.54,0,0,0-.38.09.12.12,0,0,0,0,.15,6.51,6.51,0,0,0-.63,1.25,6.21,6.21,0,0,0-.2-1.38.13.13,0,0,0,0-.14.5.5,0,0,0-.34-.2c-.08,0-.23.26-.21.33a.14.14,0,0,0,.1.11,6.69,6.69,0,0,0,.45,1.32,6.28,6.28,0,0,0-1.12-.83.14.14,0,0,0-.07-.14.56.56,0,0,0-.39.1.51.51,0,0,0,.1.38.14.14,0,0,0,.15,0,6.33,6.33,0,0,0,1.25.62,6.13,6.13,0,0,0-1.38.2.13.13,0,0,0-.15,0,.5.5,0,0,0-.21.33.56.56,0,0,0,.34.21.14.14,0,0,0,.11-.11,6.12,6.12,0,0,0,1.33-.44,6.22,6.22,0,0,0-.84,1.12.12.12,0,0,0-.13.07.48.48,0,0,0,.09.38A.53.53,0,0,0,3,75,.16.16,0,0,0,3,74.83Zm.63-1.48h0v0s0,0,0,0h0s0,0,0,0h0s0,0,0,0h0a0,0,0,0,0,0,0s0,0,0,0h0v0s0,0,0,0h0Z"/><path class="cls-1" d="M4.83,78a5.74,5.74,0,0,0,.31,1.35.14.14,0,0,0,0,.15.5.5,0,0,0,.35.18.52.52,0,0,0,.18-.35.13.13,0,0,0-.11-.1A6.09,6.09,0,0,0,5,77.91a6.71,6.71,0,0,0,1.19.74.14.14,0,0,0,.08.13.54.54,0,0,0,.38-.12.5.5,0,0,0-.12-.38.13.13,0,0,0-.15,0A7,7,0,0,0,5,77.77a5.85,5.85,0,0,0,1.37-.31.12.12,0,0,0,.15,0,.54.54,0,0,0,.18-.35c0-.07-.29-.2-.35-.17a.13.13,0,0,0-.1.11A5.6,5.6,0,0,0,5,77.63a6.93,6.93,0,0,0,.74-1.18.14.14,0,0,0,.13-.08A.53.53,0,0,0,5.75,76a.51.51,0,0,0-.38.12.13.13,0,0,0,0,.15,6.71,6.71,0,0,0-.52,1.3,6.36,6.36,0,0,0-.31-1.36.15.15,0,0,0,0-.15.54.54,0,0,0-.35-.18.52.52,0,0,0-.18.35.13.13,0,0,0,.11.1,6.8,6.8,0,0,0,.55,1.28,6.93,6.93,0,0,0-1.18-.74.17.17,0,0,0-.08-.13.49.49,0,0,0-.38.13.49.49,0,0,0,.12.37.13.13,0,0,0,.15,0,7,7,0,0,0,1.3.52,6.49,6.49,0,0,0-1.36.31.14.14,0,0,0-.15,0,.47.47,0,0,0-.18.35.54.54,0,0,0,.35.18.15.15,0,0,0,.1-.12,6.44,6.44,0,0,0,1.29-.54,6.1,6.1,0,0,0-.75,1.18.12.12,0,0,0-.12.08.52.52,0,0,0,.12.37.53.53,0,0,0,.38-.12.13.13,0,0,0,0-.15A6.94,6.94,0,0,0,4.83,78Zm0-.24s0,0,0,0a0,0,0,0,1,0,0s0,0,0,0h0s0,0,0,0h0s0,0,0,0h0v0s0,0,0,0h0v0h0s0,0,0,0Z"/><path class="cls-1" d="M6.84,83.55a.16.16,0,0,0,0,.15.54.54,0,0,0,.37.15.51.51,0,0,0,.15-.36.12.12,0,0,0-.12-.09,6.3,6.3,0,0,0-.65-1.24,6.3,6.3,0,0,0,1.24.65.15.15,0,0,0,.09.12.56.56,0,0,0,.37-.15.54.54,0,0,0-.15-.37.13.13,0,0,0-.15,0A7,7,0,0,0,6.63,82,6.75,6.75,0,0,0,8,81.61a.15.15,0,0,0,.15,0,.54.54,0,0,0,.15-.37.56.56,0,0,0-.37-.15.15.15,0,0,0-.09.12,6.62,6.62,0,0,0-1.24.65,6.3,6.3,0,0,0,.65-1.24.11.11,0,0,0,.12-.09.47.47,0,0,0-.15-.36.54.54,0,0,0-.37.15.14.14,0,0,0,0,.15,5.57,5.57,0,0,0-.42,1.33A6.71,6.71,0,0,0,6,80.49a.13.13,0,0,0,0-.15.54.54,0,0,0-.37-.15.55.55,0,0,0-.15.36.12.12,0,0,0,.12.09,6.9,6.9,0,0,0,.65,1.24A6.3,6.3,0,0,0,5,81.23.12.12,0,0,0,5,81.11a.55.55,0,0,0-.36.15.46.46,0,0,0,.15.37.14.14,0,0,0,.15,0A6.56,6.56,0,0,0,6.23,82a6.38,6.38,0,0,0-1.34.41.16.16,0,0,0-.15,0,.46.46,0,0,0-.15.37.55.55,0,0,0,.36.15A.14.14,0,0,0,5,82.81a6.3,6.3,0,0,0,1.24-.65,6.3,6.3,0,0,0-.65,1.24.12.12,0,0,0-.12.09.55.55,0,0,0,.15.36A.54.54,0,0,0,6,83.7a.13.13,0,0,0,0-.15,6.71,6.71,0,0,0,.42-1.33A5.93,5.93,0,0,0,6.84,83.55Zm-.44-1.5s0,0,0,0,0,0,0,0h0s0,0,0,0h0s0,0,0,0,0,0,0,0h0a0,0,0,0,1,0,0h0s0,0,0,0v0h0a0,0,0,0,0,0,0s0,0,0,0Z"/><path class="cls-1" d="M8.88,87.64a.13.13,0,0,0,0,.15.5.5,0,0,0,.38.12.5.5,0,0,0,.12-.37.14.14,0,0,0-.13-.08,6,6,0,0,0-.75-1.18,7.28,7.28,0,0,0,1.29.55.14.14,0,0,0,.1.11.52.52,0,0,0,.36-.18.54.54,0,0,0-.18-.35.15.15,0,0,0-.15,0,7.11,7.11,0,0,0-1.37-.31,5.81,5.81,0,0,0,1.31-.52.13.13,0,0,0,.15,0,.53.53,0,0,0,.12-.37.54.54,0,0,0-.38-.12.12.12,0,0,0-.08.12A6.09,6.09,0,0,0,8.47,86,6.49,6.49,0,0,0,9,84.71a.13.13,0,0,0,.11-.09A.52.52,0,0,0,9,84.26a.54.54,0,0,0-.35.18.12.12,0,0,0,0,.15A5.9,5.9,0,0,0,8.33,86a6.5,6.5,0,0,0-.53-1.3.12.12,0,0,0,0-.15.53.53,0,0,0-.37-.12.46.46,0,0,0-.12.38.12.12,0,0,0,.12.08A6.27,6.27,0,0,0,8.19,86a6.33,6.33,0,0,0-1.29-.55.14.14,0,0,0-.1-.11c-.07,0-.33.1-.35.18a.48.48,0,0,0,.18.35.12.12,0,0,0,.14,0,6.07,6.07,0,0,0,1.37.31,6.71,6.71,0,0,0-1.3.52.13.13,0,0,0-.15,0,.5.5,0,0,0-.12.38.5.5,0,0,0,.37.12A.14.14,0,0,0,7,87a6.71,6.71,0,0,0,1.19-.74,6.19,6.19,0,0,0-.55,1.28.14.14,0,0,0-.11.1.45.45,0,0,0,.18.35.48.48,0,0,0,.35-.18.13.13,0,0,0,0-.14,7.22,7.22,0,0,0,.31-1.36A5.75,5.75,0,0,0,8.88,87.64Zm-.53-1.45s0,0,0,0h0a0,0,0,0,0,0,0h0s0,0,0,0,0,0,0,0h0a0,0,0,0,0,0,0s0,0,0,0h0s0,0,0,0h0l0,0s0,0,0,0h0Z"/><path class="cls-1" d="M11.23,91.56a.14.14,0,0,0,0,.15.53.53,0,0,0,.39.09.48.48,0,0,0,.09-.38.14.14,0,0,0-.13-.07,6.74,6.74,0,0,0-.84-1.12,6,6,0,0,0,1.33.45.12.12,0,0,0,.11.1c.06,0,.32-.12.33-.2a.54.54,0,0,0-.2-.34.15.15,0,0,0-.15,0,6.78,6.78,0,0,0-1.38-.2A5.8,5.8,0,0,0,12,89.46a.12.12,0,0,0,.15,0,.5.5,0,0,0,.1-.38.51.51,0,0,0-.39-.09.13.13,0,0,0-.07.13A6.28,6.28,0,0,0,10.7,90a6.19,6.19,0,0,0,.44-1.32c.06,0,.09,0,.11-.11a.5.5,0,0,0-.21-.33.49.49,0,0,0-.33.2.13.13,0,0,0,0,.15,6.06,6.06,0,0,0-.2,1.38,6.23,6.23,0,0,0-.63-1.25.12.12,0,0,0,0-.15.46.46,0,0,0-.38-.09.52.52,0,0,0-.1.38.14.14,0,0,0,.14.07A6.69,6.69,0,0,0,10.41,90a6.08,6.08,0,0,0-1.32-.45.14.14,0,0,0-.11-.1.49.49,0,0,0-.34.2.51.51,0,0,0,.21.34.15.15,0,0,0,.14,0,6.2,6.2,0,0,0,1.39.2,6.66,6.66,0,0,0-1.26.62.14.14,0,0,0-.15,0,.5.5,0,0,0-.09.38.48.48,0,0,0,.38.09c.06,0,.08-.08.07-.13a6.45,6.45,0,0,0,1.13-.83A5.89,5.89,0,0,0,10,91.6a.14.14,0,0,0-.11.1.54.54,0,0,0,.21.34.51.51,0,0,0,.34-.21.17.17,0,0,0,0-.14,6.78,6.78,0,0,0,.2-1.38A6.33,6.33,0,0,0,11.23,91.56Zm-.65-1.4s0,0,0,0h0a0,0,0,0,1,0,0h0s0,0,0,0h0s0,0,0,0a0,0,0,0,0,0,0h0v0s0,0,0,0,0,0,0,0a0,0,0,0,1,0,0h0A0,0,0,0,1,10.58,90.16Z"/><path class="cls-1" d="M14.29,95.5a.5.5,0,0,0,.06-.39.13.13,0,0,0-.14-.06,6.42,6.42,0,0,0-.92-1,6.54,6.54,0,0,0,1.36.34.13.13,0,0,0,.12.09.55.55,0,0,0,.32-.23c0-.08-.17-.3-.24-.32a.15.15,0,0,0-.14.06,5.84,5.84,0,0,0-1.4-.09,6.37,6.37,0,0,0,1.21-.72.14.14,0,0,0,.15,0,.53.53,0,0,0,.06-.39.5.5,0,0,0-.39-.06.11.11,0,0,0-.06.13,7.15,7.15,0,0,0-1.06.92,6.45,6.45,0,0,0,.35-1.35.13.13,0,0,0,.09-.11c0-.07-.15-.31-.23-.32s-.31.16-.32.23a.13.13,0,0,0,.05.14,7.09,7.09,0,0,0-.09,1.39,6.06,6.06,0,0,0-.72-1.2.14.14,0,0,0,0-.15.53.53,0,0,0-.39-.06.45.45,0,0,0-.06.39.13.13,0,0,0,.13.06A6.83,6.83,0,0,0,13,93.79a6.26,6.26,0,0,0-1.36-.34.14.14,0,0,0-.12-.1c-.07,0-.31.15-.32.23a.51.51,0,0,0,.23.32.13.13,0,0,0,.14-.05,7.22,7.22,0,0,0,1.4.09,6.77,6.77,0,0,0-1.2.71.14.14,0,0,0-.15,0,.48.48,0,0,0-.06.39.53.53,0,0,0,.39.06A.16.16,0,0,0,12,95a6.38,6.38,0,0,0,1-.92,6.72,6.72,0,0,0-.34,1.36.12.12,0,0,0-.1.11.51.51,0,0,0,.24.32.55.55,0,0,0,.32-.23.14.14,0,0,0-.06-.14,5.79,5.79,0,0,0,.09-1.39,7.37,7.37,0,0,0,.72,1.2.12.12,0,0,0,0,.14A.52.52,0,0,0,14.29,95.5Zm-1.13-1.58h0v0l0,0h0a0,0,0,0,0,0,0h0s0,0,0,0h0s0,0,0,0a0,0,0,0,0,0,0h0v0h0s0,0,0,0Z"/><path class="cls-1" d="M17.24,99a.45.45,0,0,0,0-.39.12.12,0,0,0-.14,0,6.19,6.19,0,0,0-1-1,6.39,6.39,0,0,0,1.38.24.13.13,0,0,0,.13.08.52.52,0,0,0,.3-.25c0-.08-.19-.3-.26-.3a.14.14,0,0,0-.14.06,6.68,6.68,0,0,0-1.4,0,6.26,6.26,0,0,0,1.15-.81.12.12,0,0,0,.14,0,.48.48,0,0,0,0-.39.47.47,0,0,0-.4,0,.13.13,0,0,0-.05.14,6.23,6.23,0,0,0-1,1,6.15,6.15,0,0,0,.24-1.37.12.12,0,0,0,.08-.12c0-.07-.17-.3-.25-.3s-.3.19-.3.25a.14.14,0,0,0,.06.14,6,6,0,0,0,0,1.39,7.27,7.27,0,0,0-.81-1.14.13.13,0,0,0,0-.14.48.48,0,0,0-.39,0,.49.49,0,0,0,0,.39.16.16,0,0,0,.15.05,6.48,6.48,0,0,0,1,1,6.52,6.52,0,0,0-1.38-.23.15.15,0,0,0-.13-.09c-.06,0-.29.18-.3.26a.55.55,0,0,0,.26.3.16.16,0,0,0,.14-.07,6,6,0,0,0,1.4,0,6.81,6.81,0,0,0-1.15.81.11.11,0,0,0-.14,0,.48.48,0,0,0,0,.39.56.56,0,0,0,.4,0,.14.14,0,0,0,.05-.14,6.19,6.19,0,0,0,1-1A6.39,6.39,0,0,0,15.62,99a.11.11,0,0,0-.08.12.49.49,0,0,0,.25.3c.08,0,.3-.19.3-.26a.12.12,0,0,0-.06-.13,6,6,0,0,0,0-1.4,6.44,6.44,0,0,0,.81,1.14.13.13,0,0,0,0,.15A.52.52,0,0,0,17.24,99ZM16,97.48h0s0,0,0,0h0v0s0,0,0,0,0,0,0,0l0,0s0,0,0,0,0,0,0,0a0,0,0,0,0,0,0s0,0,0,0v0h0A0,0,0,0,0,16,97.48Z"/><path class="cls-1" d="M20.46,101.81a.13.13,0,0,0-.14,0,6.55,6.55,0,0,0-1.08-.89,7.19,7.19,0,0,0,1.4.12.13.13,0,0,0,.13.08c.07,0,.28-.2.28-.28s-.21-.28-.28-.28a.13.13,0,0,0-.13.08,7.19,7.19,0,0,0-1.4.12,6.06,6.06,0,0,0,1.08-.89.11.11,0,0,0,.14,0,.48.48,0,0,0,0-.39.48.48,0,0,0-.39,0,.14.14,0,0,0,0,.14,6.74,6.74,0,0,0-.9,1.08,6.23,6.23,0,0,0,.13-1.39.14.14,0,0,0,.07-.13c0-.07-.19-.28-.28-.28s-.27.21-.27.28a.14.14,0,0,0,.07.13,6.23,6.23,0,0,0,.13,1.39,6.74,6.74,0,0,0-.9-1.08.13.13,0,0,0,0-.14.48.48,0,0,0-.39,0,.48.48,0,0,0,0,.39.13.13,0,0,0,.14,0,6.55,6.55,0,0,0,1.08.89,7.19,7.19,0,0,0-1.4-.12.13.13,0,0,0-.13-.08c-.07,0-.28.2-.28.28s.21.28.28.28a.13.13,0,0,0,.13-.08,7.19,7.19,0,0,0,1.4-.12,6.06,6.06,0,0,0-1.08.89.13.13,0,0,0-.14,0,.48.48,0,0,0,0,.39.48.48,0,0,0,.39,0,.13.13,0,0,0,0-.14A6.74,6.74,0,0,0,19,101a6.23,6.23,0,0,0-.13,1.39.15.15,0,0,0-.08.13c0,.07.2.28.28.28s.28-.21.28-.28a.14.14,0,0,0-.07-.13,6.23,6.23,0,0,0-.13-1.39,6.74,6.74,0,0,0,.9,1.08.13.13,0,0,0,0,.14.48.48,0,0,0,.39,0A.48.48,0,0,0,20.46,101.81Zm-1.36-1h0v0s0,0,0,0v0h0s0,0,0,0l0,0s0,0,0,0v0l0,0v0s0,0,0,0l0,0S19.09,100.81,19.1,100.82Z"/><path class="cls-1" d="M24,104a.13.13,0,0,0,.13.07c.07,0,.27-.22.26-.3a.55.55,0,0,0-.3-.26.13.13,0,0,0-.12.09,7.4,7.4,0,0,0-1.39.23,6,6,0,0,0,1-1,.14.14,0,0,0,.14,0,.53.53,0,0,0,0-.39.55.55,0,0,0-.4,0,.14.14,0,0,0,0,.15,5.52,5.52,0,0,0-.81,1.14,6.85,6.85,0,0,0,0-1.4.14.14,0,0,0,.07-.13c0-.07-.22-.27-.3-.26s-.27.23-.26.3a.13.13,0,0,0,.09.12,6.52,6.52,0,0,0,.23,1.38,6.19,6.19,0,0,0-1-1,.12.12,0,0,0-.05-.14.49.49,0,0,0-.39,0,.52.52,0,0,0,0,.39.13.13,0,0,0,.15,0,5.79,5.79,0,0,0,1.14.8,6.85,6.85,0,0,0-1.4,0,.14.14,0,0,0-.14-.07c-.06,0-.26.22-.25.3s.23.26.3.26a.13.13,0,0,0,.12-.09,7.26,7.26,0,0,0,1.38-.23,6.45,6.45,0,0,0-1,1,.13.13,0,0,0-.14,0,.49.49,0,0,0,0,.39.52.52,0,0,0,.39,0,.13.13,0,0,0,0-.15,6.85,6.85,0,0,0,.81-1.13,6.58,6.58,0,0,0,0,1.39.13.13,0,0,0-.06.13c0,.07.22.27.3.26a.55.55,0,0,0,.26-.3.13.13,0,0,0-.09-.12,6.39,6.39,0,0,0-.24-1.38,7.21,7.21,0,0,0,1,1,.13.13,0,0,0,.05.14.51.51,0,0,0,.4,0,.52.52,0,0,0,0-.39.17.17,0,0,0-.15,0,6.09,6.09,0,0,0-1.15-.8A7,7,0,0,0,24,104Zm-1.58,0a0,0,0,0,0,0,0,0,0,0,0,0,0,0v0h0l0,0s0,0,0,0h0s0,0,0,0h0s0,0,0,0v0h0s0,0,0,0h0Z"/><path class="cls-1" d="M27.65,106.16a.15.15,0,0,0-.11.09,6.41,6.41,0,0,0-1.36.35,6.89,6.89,0,0,0,.92-1,.16.16,0,0,0,.14-.06.54.54,0,0,0-.06-.39.48.48,0,0,0-.39.06.14.14,0,0,0,0,.15,6.61,6.61,0,0,0-.72,1.2,6.43,6.43,0,0,0-.09-1.4A.12.12,0,0,0,26,105a.55.55,0,0,0-.32-.23.53.53,0,0,0-.23.32.14.14,0,0,0,.1.12,6,6,0,0,0,.34,1.35,6.6,6.6,0,0,0-1.06-.92.13.13,0,0,0-.06-.14.28.28,0,1,0-.32.45.14.14,0,0,0,.15,0,5.91,5.91,0,0,0,1.2.71,6.62,6.62,0,0,0-1.4.1.12.12,0,0,0-.14-.06c-.07,0-.25.24-.23.32s.25.24.32.23a.12.12,0,0,0,.11-.09,6.41,6.41,0,0,0,1.36-.35,6.89,6.89,0,0,0-.92,1,.16.16,0,0,0-.14.06.54.54,0,0,0,.06.39.52.52,0,0,0,.39-.06.12.12,0,0,0,0-.15,6.61,6.61,0,0,0,.72-1.2,6.46,6.46,0,0,0,.09,1.4.12.12,0,0,0-.05.13.52.52,0,0,0,.32.24.55.55,0,0,0,.23-.32.14.14,0,0,0-.1-.12,6,6,0,0,0-.34-1.35,6.6,6.6,0,0,0,1.06.92.13.13,0,0,0,.06.14.28.28,0,0,0,.33-.45.14.14,0,0,0-.15,0,6.19,6.19,0,0,0-1.21-.71,6.59,6.59,0,0,0,1.4-.1.14.14,0,0,0,.14.06c.07,0,.25-.24.23-.32S27.72,106.15,27.65,106.16Zm-1.62.58,0,0s0,0,0,0,0,0,0,0h0v0h0a0,0,0,0,1,0,0l0,0s0,0,0,0v0h0a0,0,0,0,0,0,0h0S26,106.73,26,106.74Z"/><path class="cls-1" d="M31.41,108.56a.12.12,0,0,0-.11.1,6.21,6.21,0,0,0-1.33.45,6.61,6.61,0,0,0,.84-1.12.13.13,0,0,0,.13-.07.48.48,0,0,0-.09-.38.46.46,0,0,0-.38.09.14.14,0,0,0,0,.15,7,7,0,0,0-.62,1.25,6.06,6.06,0,0,0-.2-1.38.13.13,0,0,0,0-.15.52.52,0,0,0-.34-.2.49.49,0,0,0-.2.33.12.12,0,0,0,.1.11,6.69,6.69,0,0,0,.45,1.32,6.28,6.28,0,0,0-1.12-.83.14.14,0,0,0-.08-.13.49.49,0,0,0-.38.09.5.5,0,0,0,.09.38.12.12,0,0,0,.15,0,6.05,6.05,0,0,0,1.26.62,6.86,6.86,0,0,0-1.39.2.16.16,0,0,0-.14,0,.51.51,0,0,0-.21.34.49.49,0,0,0,.34.2c.07,0,.09,0,.11-.1a6.43,6.43,0,0,0,1.33-.45,5.78,5.78,0,0,0-.84,1.12.15.15,0,0,0-.14.07.52.52,0,0,0,.1.38.46.46,0,0,0,.38-.09.12.12,0,0,0,0-.15,6.51,6.51,0,0,0,.63-1.25,6.06,6.06,0,0,0,.2,1.38.12.12,0,0,0,0,.14.47.47,0,0,0,.33.21.5.5,0,0,0,.21-.34.13.13,0,0,0-.1-.1,6.45,6.45,0,0,0-.45-1.32,6.28,6.28,0,0,0,1.12.83.13.13,0,0,0,.07.13.51.51,0,0,0,.39-.09.54.54,0,0,0-.09-.38.16.16,0,0,0-.16,0,6.15,6.15,0,0,0-1.25-.61,6.44,6.44,0,0,0,1.39-.21.13.13,0,0,0,.14,0,.51.51,0,0,0,.21-.34A.49.49,0,0,0,31.41,108.56Zm-1.58.7h0a0,0,0,0,1,0,0v0s0,0,0,0,0,0,0,0,0,0,0,0h0a0,0,0,0,1,0,0h0l0,0v0h0s0,0,0,0h0Z"/><path class="cls-1" d="M35.51,111.18a.47.47,0,0,0,.18-.35.47.47,0,0,0-.35-.17.14.14,0,0,0-.1.11,6,6,0,0,0-1.29.55,6.27,6.27,0,0,0,.75-1.18.16.16,0,0,0,.13-.08.28.28,0,0,0-.5-.26.13.13,0,0,0,0,.15,5.6,5.6,0,0,0-.52,1.3,6.53,6.53,0,0,0-.32-1.36.13.13,0,0,0,0-.15.57.57,0,0,0-.36-.18.57.57,0,0,0-.18.35.15.15,0,0,0,.12.1,6.19,6.19,0,0,0,.55,1.28,6.71,6.71,0,0,0-1.19-.74.15.15,0,0,0-.08-.13.51.51,0,0,0-.38.13.54.54,0,0,0,.13.37.14.14,0,0,0,.15,0,6.71,6.71,0,0,0,1.3.52,6.42,6.42,0,0,0-1.37.31.13.13,0,0,0-.15,0,.54.54,0,0,0-.18.35.57.57,0,0,0,.36.18.17.17,0,0,0,.1-.12,6.71,6.71,0,0,0,1.29-.54,5.65,5.65,0,0,0-.75,1.18.12.12,0,0,0-.13.08.52.52,0,0,0,.12.37.5.5,0,0,0,.38-.12.13.13,0,0,0,0-.15,5.6,5.6,0,0,0,.52-1.3,6.9,6.9,0,0,0,.31,1.36.16.16,0,0,0,0,.15.52.52,0,0,0,.36.18c.07,0,.2-.29.17-.35a.13.13,0,0,0-.11-.1,6.19,6.19,0,0,0-.55-1.28,6.71,6.71,0,0,0,1.19.74.14.14,0,0,0,.08.13c.06,0,.34,0,.37-.13a.49.49,0,0,0-.12-.37.14.14,0,0,0-.15,0,6.71,6.71,0,0,0-1.3-.52,6,6,0,0,0,1.37-.31A.11.11,0,0,0,35.51,111.18Zm-1.68.3h0s0,0,0,0a0,0,0,0,1,0,0,0,0,0,0,0,0,0v0s0,0,0,0h0a0,0,0,0,1,0,0h0s0,0,0,0a0,0,0,0,1,0,0,0,0,0,0,0,0,0v0h0A0,0,0,0,1,33.83,111.48Z"/><path class="cls-1" d="M39.64,113a.43.43,0,0,0,.15-.36.51.51,0,0,0-.36-.15.14.14,0,0,0-.09.12,6.3,6.3,0,0,0-1.24.65,6.3,6.3,0,0,0,.65-1.24.12.12,0,0,0,.12-.09.55.55,0,0,0-.15-.36.54.54,0,0,0-.37.15.13.13,0,0,0,0,.15,6.71,6.71,0,0,0-.42,1.33,5.93,5.93,0,0,0-.41-1.33.16.16,0,0,0,0-.15.54.54,0,0,0-.37-.15.51.51,0,0,0-.15.36.12.12,0,0,0,.12.09,6.3,6.3,0,0,0,.65,1.24,6.3,6.3,0,0,0-1.24-.65.15.15,0,0,0-.09-.12.51.51,0,0,0-.37.15.5.5,0,0,0,.15.36.12.12,0,0,0,.15,0,7,7,0,0,0,1.34.42,6.13,6.13,0,0,0-1.34.41.15.15,0,0,0-.15,0,.54.54,0,0,0-.15.37.56.56,0,0,0,.37.15.15.15,0,0,0,.09-.12,6.3,6.3,0,0,0,1.24-.65,6.46,6.46,0,0,0-.65,1.23.15.15,0,0,0-.12.09.48.48,0,0,0,.15.37.54.54,0,0,0,.37-.15.15.15,0,0,0,0-.15,5.93,5.93,0,0,0,.41-1.33,6.71,6.71,0,0,0,.42,1.33.13.13,0,0,0,0,.15.54.54,0,0,0,.37.15.56.56,0,0,0,.15-.37.15.15,0,0,0-.12-.09,6.46,6.46,0,0,0-.65-1.23,6.3,6.3,0,0,0,1.24.65.14.14,0,0,0,.09.12.55.55,0,0,0,.36-.15.46.46,0,0,0-.15-.37.16.16,0,0,0-.15,0,6.38,6.38,0,0,0-1.34-.41,6.56,6.56,0,0,0,1.34-.42A.12.12,0,0,0,39.64,113Zm-1.66.43h0s0,0,0,0,0,0,0,0h0v0s0,0,0,0h0a0,0,0,0,0,0,0h0a0,0,0,0,0,0,0,0,0,0,0,1,0,0h0a0,0,0,0,0,0,0h0s0,0,0,0S38,113.37,38,113.38Z"/><path class="cls-1" d="M44,115.18a.13.13,0,0,0-.15,0,5.9,5.9,0,0,0-1.36-.31,7.25,7.25,0,0,0,1.3-.52.13.13,0,0,0,.15,0A.5.5,0,0,0,44,114a.54.54,0,0,0-.38-.12.14.14,0,0,0-.08.13,6,6,0,0,0-1.18.74,6.8,6.8,0,0,0,.55-1.28.14.14,0,0,0,.11-.1c0-.07-.1-.33-.18-.35a.47.47,0,0,0-.35.18.12.12,0,0,0,0,.14,5.9,5.9,0,0,0-.31,1.36,6.68,6.68,0,0,0-.52-1.29.14.14,0,0,0,0-.15.51.51,0,0,0-.38-.12.5.5,0,0,0-.12.37.12.12,0,0,0,.12.08,7,7,0,0,0,.75,1.18,6.66,6.66,0,0,0-1.29-.55.13.13,0,0,0-.1-.11c-.06,0-.33.1-.35.18a.47.47,0,0,0,.18.35.16.16,0,0,0,.15,0,7.22,7.22,0,0,0,1.36.31,6,6,0,0,0-1.3.52.13.13,0,0,0-.15,0,.49.49,0,0,0-.12.37.53.53,0,0,0,.38.12.14.14,0,0,0,.08-.12,6.27,6.27,0,0,0,1.18-.75,7.28,7.28,0,0,0-.55,1.29.13.13,0,0,0-.11.09c0,.07.1.33.18.35a.49.49,0,0,0,.35-.17.15.15,0,0,0,0-.15,6.49,6.49,0,0,0,.31-1.36,7,7,0,0,0,.52,1.3.12.12,0,0,0,0,.14.52.52,0,0,0,.38.13.54.54,0,0,0,.12-.38.13.13,0,0,0-.13-.08,6.93,6.93,0,0,0-.74-1.18,6.08,6.08,0,0,0,1.29.55.13.13,0,0,0,.1.11.28.28,0,0,0,.17-.53ZM42.28,115h0a0,0,0,0,0,0,0v0s0,0,0,0,0,0,0,0h0s0,0,0,0a0,0,0,0,1,0,0h0s0,0,0,0v0h0s0,0,0,0,0,0,0,0,0,0,0,0Z"/><path class="cls-1" d="M48.38,116.28a.16.16,0,0,0-.15,0,7,7,0,0,0-1.38-.21,6.15,6.15,0,0,0,1.25-.61.14.14,0,0,0,.15,0,.5.5,0,0,0,.1-.38A.51.51,0,0,0,48,115a.13.13,0,0,0-.07.13,6.28,6.28,0,0,0-1.12.83,6,6,0,0,0,.44-1.32.14.14,0,0,0,.11-.1.5.5,0,0,0-.21-.34.51.51,0,0,0-.34.21.15.15,0,0,0,0,.14,6.06,6.06,0,0,0-.2,1.38,6.51,6.51,0,0,0-.63-1.25.12.12,0,0,0,0-.15.47.47,0,0,0-.38-.09.52.52,0,0,0-.1.38.14.14,0,0,0,.14.07,6.28,6.28,0,0,0,.83,1.12,6,6,0,0,0-1.33-.45.12.12,0,0,0-.1-.1.49.49,0,0,0-.34.2.51.51,0,0,0,.21.34.15.15,0,0,0,.14,0,6.36,6.36,0,0,0,1.39.21,5.93,5.93,0,0,0-1.26.61.14.14,0,0,0-.15,0,.46.46,0,0,0-.09.38.48.48,0,0,0,.38.09.12.12,0,0,0,.07-.13,6.45,6.45,0,0,0,1.13-.83,6.08,6.08,0,0,0-.45,1.32.14.14,0,0,0-.11.11.28.28,0,0,0,.55.13.16.16,0,0,0-.05-.15,6.21,6.21,0,0,0,.21-1.38,6.07,6.07,0,0,0,.62,1.25.14.14,0,0,0,0,.15.49.49,0,0,0,.39.09.48.48,0,0,0,.09-.38.14.14,0,0,0-.13-.07,7.2,7.2,0,0,0-.84-1.12,6,6,0,0,0,1.33.45.12.12,0,0,0,.11.1c.06,0,.32-.12.33-.2A.54.54,0,0,0,48.38,116.28Zm-1.7-.1s0,0,0,0,0,0,0,0,0,0,0,0h0v0h0s0,0,0,0,0,0,0,0,0,0,0,0a0,0,0,0,0,0,0h0v0s0,0,0,0h0S46.68,116.17,46.68,116.18Z"/><path class="cls-1" d="M52.87,117a.14.14,0,0,0-.14.06,5.89,5.89,0,0,0-1.4-.09,6.61,6.61,0,0,0,1.2-.72.14.14,0,0,0,.15,0,.53.53,0,0,0,.07-.39.52.52,0,0,0-.4-.06.15.15,0,0,0-.06.13,6.89,6.89,0,0,0-1,.92,6.58,6.58,0,0,0,.34-1.35.14.14,0,0,0,.1-.12c0-.06-.15-.3-.24-.31s-.3.16-.32.23a.14.14,0,0,0,.06.14,5.79,5.79,0,0,0-.09,1.39,6.61,6.61,0,0,0-.72-1.2.14.14,0,0,0,0-.15.52.52,0,0,0-.39-.06.54.54,0,0,0-.06.39.16.16,0,0,0,.14.06,6.89,6.89,0,0,0,.92,1,6,6,0,0,0-1.36-.34.14.14,0,0,0-.11-.1.55.55,0,0,0-.33.23.52.52,0,0,0,.24.32.13.13,0,0,0,.14,0,7.14,7.14,0,0,0,1.4.09,6.19,6.19,0,0,0-1.21.71.14.14,0,0,0-.15,0,.52.52,0,0,0-.06.39.54.54,0,0,0,.39.06.13.13,0,0,0,.06-.14,6.13,6.13,0,0,0,1.06-.92,6.45,6.45,0,0,0-.35,1.35.13.13,0,0,0-.09.12c0,.07.15.31.23.32a.55.55,0,0,0,.32-.23.13.13,0,0,0,0-.14,6.37,6.37,0,0,0,.09-1.39,6.36,6.36,0,0,0,.72,1.19.14.14,0,0,0,0,.15.49.49,0,0,0,.39.06.47.47,0,0,0,.07-.38.13.13,0,0,0-.14-.06,6,6,0,0,0-.93-1,6.91,6.91,0,0,0,1.36.34.13.13,0,0,0,.12.09c.07,0,.31-.15.32-.23A.51.51,0,0,0,52.87,117Zm-1.7,0h0a0,0,0,0,0,0,0,0,0,0,0,0,0,0h0s0,0,0,0,0,0,0,0h0s0,0,0,0,0,0,0,0v0l0,0,0,0s0,0,0,0h0l0,0Z"/><path class="cls-1" d="M57.4,117.43a.16.16,0,0,0-.13.07,6,6,0,0,0-1.4,0,6.82,6.82,0,0,0,1.14-.81.13.13,0,0,0,.15,0,.52.52,0,0,0,0-.39.53.53,0,0,0-.39,0,.12.12,0,0,0,0,.14,6.19,6.19,0,0,0-1,1A6.52,6.52,0,0,0,56,116a.13.13,0,0,0,.09-.12.28.28,0,0,0-.56,0,.13.13,0,0,0,.07.13,6.85,6.85,0,0,0,0,1.4,5.94,5.94,0,0,0-.81-1.14.14.14,0,0,0,0-.15.55.55,0,0,0-.4,0,.53.53,0,0,0,0,.39.13.13,0,0,0,.14.05,6.62,6.62,0,0,0,1,1,6.5,6.5,0,0,0-1.39-.24.11.11,0,0,0-.12-.08c-.07,0-.3.17-.3.25s.19.29.26.3a.12.12,0,0,0,.13-.07,6.85,6.85,0,0,0,1.4,0,6.44,6.44,0,0,0-1.14.8.17.17,0,0,0-.15,0,.52.52,0,0,0,0,.39.49.49,0,0,0,.39,0,.12.12,0,0,0,.05-.14,6.19,6.19,0,0,0,1-1,6.52,6.52,0,0,0-.23,1.38.13.13,0,0,0-.09.12.55.55,0,0,0,.26.3c.08,0,.29-.19.3-.25a.13.13,0,0,0-.07-.14,6.75,6.75,0,0,0,0-1.39,6.28,6.28,0,0,0,.81,1.13.14.14,0,0,0,0,.15.51.51,0,0,0,.4,0,.53.53,0,0,0,0-.39.13.13,0,0,0-.14,0,6.44,6.44,0,0,0-1-1,6.77,6.77,0,0,0,1.39.23.13.13,0,0,0,.12.09c.07,0,.3-.18.3-.26S57.47,117.44,57.4,117.43Zm-1.69.17h0v0s0,0,0,0l0,0a0,0,0,0,0,0,0h0s0,0,0,0h0v0l0,0h0v0h0s0,0,0,0Z"/><path class="cls-1" d="M62,117.48a.13.13,0,0,0-.13.07,6.33,6.33,0,0,0-1.4.13,6.55,6.55,0,0,0,1.08-.89.15.15,0,0,0,.15,0,.61.61,0,0,0,0-.4.55.55,0,0,0-.4,0,.13.13,0,0,0,0,.14,6.35,6.35,0,0,0-.9,1.07,6.16,6.16,0,0,0,.13-1.39.13.13,0,0,0,.08-.13c0-.07-.2-.28-.28-.28s-.28.21-.28.28a.13.13,0,0,0,.07.13,6.23,6.23,0,0,0,.13,1.39,6.35,6.35,0,0,0-.9-1.07.15.15,0,0,0,0-.15.58.58,0,0,0-.39,0,.51.51,0,0,0,0,.4.13.13,0,0,0,.14,0,7.13,7.13,0,0,0,1.08.89,6.26,6.26,0,0,0-1.4-.13.13.13,0,0,0-.13-.07c-.07,0-.28.19-.28.27s.21.28.28.28a.13.13,0,0,0,.13-.07,6.33,6.33,0,0,0,1.4-.13,6.55,6.55,0,0,0-1.08.89.13.13,0,0,0-.14,0,.51.51,0,0,0,0,.4.58.58,0,0,0,.39,0,.15.15,0,0,0,0-.15,6.35,6.35,0,0,0,.9-1.07,6.16,6.16,0,0,0-.13,1.39.13.13,0,0,0-.07.13c0,.07.19.28.28.28s.28-.21.28-.28a.14.14,0,0,0-.08-.13,6.23,6.23,0,0,0-.13-1.39,6.35,6.35,0,0,0,.9,1.07.15.15,0,0,0,0,.15.58.58,0,0,0,.39,0,.51.51,0,0,0,0-.4.13.13,0,0,0-.14,0,7.13,7.13,0,0,0-1.08-.89,6.33,6.33,0,0,0,1.4.13A.13.13,0,0,0,62,118c.07,0,.28-.19.28-.27S62,117.48,62,117.48Zm-1.67.29h0v0l0,0v0h0a0,0,0,0,0,0,0h0v0a0,0,0,0,0,0,0,0,0,0,0,0,0,0v0h0a0,0,0,0,0,0,0Z"/><path class="cls-1" d="M66.5,117.17a.11.11,0,0,0-.12.08,6.39,6.39,0,0,0-1.38.24,6.63,6.63,0,0,0,1-1,.12.12,0,0,0,.14-.05.49.49,0,0,0,0-.39.52.52,0,0,0-.39,0,.13.13,0,0,0,0,.15,5.94,5.94,0,0,0-.81,1.14,7.46,7.46,0,0,0,0-1.4.12.12,0,0,0,.06-.13c0-.07-.22-.26-.3-.26a.55.55,0,0,0-.26.3.13.13,0,0,0,.09.12,7.26,7.26,0,0,0,.23,1.38,6.19,6.19,0,0,0-1-1,.11.11,0,0,0,0-.14.55.55,0,0,0-.4,0,.52.52,0,0,0,0,.39.13.13,0,0,0,.15,0,6.44,6.44,0,0,0,1.14.8,6.85,6.85,0,0,0-1.4,0,.14.14,0,0,0-.13-.07c-.07,0-.27.22-.26.3a.55.55,0,0,0,.3.26.13.13,0,0,0,.12-.09,6.65,6.65,0,0,0,1.39-.23,6,6,0,0,0-1,1,.14.14,0,0,0-.14,0,.53.53,0,0,0,0,.39.51.51,0,0,0,.4,0,.14.14,0,0,0,0-.15,6.28,6.28,0,0,0,.81-1.13,6.75,6.75,0,0,0,0,1.39.14.14,0,0,0-.07.14c0,.06.22.26.3.25a.55.55,0,0,0,.26-.3.13.13,0,0,0-.09-.12,6.52,6.52,0,0,0-.23-1.38,6.19,6.19,0,0,0,1,1,.12.12,0,0,0,0,.14.49.49,0,0,0,.39,0,.53.53,0,0,0,0-.39.17.17,0,0,0-.15,0,6.1,6.1,0,0,0-1.14-.8,7.46,7.46,0,0,0,1.4,0,.14.14,0,0,0,.14.06c.06,0,.26-.22.25-.3S66.57,117.16,66.5,117.17Zm-1.66.45,0,0,0,0v0h0v0s0,0,0,0h0v0h0l0,0v0h0a0,0,0,0,0,0,0h0S64.84,117.61,64.84,117.62Z"/><path class="cls-1" d="M71,116.5a.14.14,0,0,0-.12.1,6.1,6.1,0,0,0-1.36.34,6.38,6.38,0,0,0,.92-1,.15.15,0,0,0,.14-.06.49.49,0,0,0-.06-.39.52.52,0,0,0-.39.06.14.14,0,0,0,0,.15,5.91,5.91,0,0,0-.71,1.2,6.54,6.54,0,0,0-.1-1.39.15.15,0,0,0,.06-.14c0-.07-.24-.25-.32-.23s-.25.25-.24.31a.16.16,0,0,0,.1.12,6.58,6.58,0,0,0,.34,1.35,6,6,0,0,0-1-.92.15.15,0,0,0-.06-.13c-.06,0-.35,0-.39.06a.49.49,0,0,0,.06.39.14.14,0,0,0,.15,0,7,7,0,0,0,1.2.72,5.89,5.89,0,0,0-1.4.09.14.14,0,0,0-.14-.06.55.55,0,0,0-.23.32c0,.08.25.24.32.23a.13.13,0,0,0,.12-.09,6.91,6.91,0,0,0,1.36-.34,6,6,0,0,0-.93,1,.13.13,0,0,0-.14.06.47.47,0,0,0,.07.38.49.49,0,0,0,.39-.06.14.14,0,0,0,0-.15,6.36,6.36,0,0,0,.72-1.19,7.09,7.09,0,0,0,.09,1.39.13.13,0,0,0-.05.14.55.55,0,0,0,.32.23c.08,0,.24-.25.23-.32a.13.13,0,0,0-.09-.12,6.45,6.45,0,0,0-.35-1.35,6.13,6.13,0,0,0,1.06.92.13.13,0,0,0,.06.14.54.54,0,0,0,.39-.06.52.52,0,0,0-.06-.39.14.14,0,0,0-.15,0,6.76,6.76,0,0,0-1.21-.71A7.14,7.14,0,0,0,71,117a.15.15,0,0,0,.14,0,.52.52,0,0,0,.24-.32A.55.55,0,0,0,71,116.5Zm-1.63.58h0a0,0,0,0,0,0,0,0,0,0,0,0,0,0h0a0,0,0,0,0,0,0s0,0,0,0h0v0a0,0,0,0,0,0,0s0,0,0,0v0s0,0,0,0,0,0,0,0h0s0,0,0,0Z"/><path class="cls-1" d="M75.44,115.49a.12.12,0,0,0-.1.1A6,6,0,0,0,74,116a6.74,6.74,0,0,0,.84-1.12.14.14,0,0,0,.13-.07.52.52,0,0,0-.09-.38.49.49,0,0,0-.39.09.14.14,0,0,0,0,.15,5.8,5.8,0,0,0-.62,1.25,6.21,6.21,0,0,0-.21-1.38.15.15,0,0,0,0-.14.51.51,0,0,0-.34-.21.54.54,0,0,0-.21.34.14.14,0,0,0,.11.1,5.89,5.89,0,0,0,.45,1.32,6.45,6.45,0,0,0-1.13-.83.13.13,0,0,0-.07-.13.48.48,0,0,0-.38.09.46.46,0,0,0,.09.38.14.14,0,0,0,.15,0,5.93,5.93,0,0,0,1.26.61,6.28,6.28,0,0,0-1.39.21.16.16,0,0,0-.15,0,.54.54,0,0,0-.2.34.49.49,0,0,0,.33.2.12.12,0,0,0,.11-.1,6,6,0,0,0,1.33-.45,7.2,7.2,0,0,0-.84,1.12.14.14,0,0,0-.13.07.48.48,0,0,0,.09.38.49.49,0,0,0,.39-.09.14.14,0,0,0,0-.15,5.59,5.59,0,0,0,.62-1.25,6.21,6.21,0,0,0,.21,1.38.16.16,0,0,0,0,.15.28.28,0,0,0,.55-.13.14.14,0,0,0-.11-.11,6.08,6.08,0,0,0-.45-1.32,6.45,6.45,0,0,0,1.13.83.13.13,0,0,0,.07.13.48.48,0,0,0,.38-.09.46.46,0,0,0-.09-.38.12.12,0,0,0-.15,0,5.61,5.61,0,0,0-1.26-.62,6.77,6.77,0,0,0,1.39-.2.18.18,0,0,0,.15,0,.54.54,0,0,0,.2-.34A.49.49,0,0,0,75.44,115.49Zm-1.57.7h0s0,0,0,0,0,0,0,0,0,0,0,0,0,0,0,0h0s0,0,0,0,0,0,0,0h0a0,0,0,0,0,0,0s0,0,0,0,0,0,0,0,0,0,0,0h0s0,0,0,0S73.87,116.18,73.87,116.19Z"/><path class="cls-1" d="M80,114.66a.47.47,0,0,0,.18-.35c0-.08-.29-.2-.35-.18a.13.13,0,0,0-.1.11,7,7,0,0,0-1.29.55,6,6,0,0,0,.75-1.18.12.12,0,0,0,.12-.08.46.46,0,0,0-.12-.37.49.49,0,0,0-.37.12.14.14,0,0,0,0,.15,6.68,6.68,0,0,0-.52,1.29,5.9,5.9,0,0,0-.31-1.36.11.11,0,0,0,0-.14.47.47,0,0,0-.35-.18c-.08,0-.2.28-.18.35a.14.14,0,0,0,.11.1,6.09,6.09,0,0,0,.56,1.28,6.16,6.16,0,0,0-1.19-.74.14.14,0,0,0-.08-.13.54.54,0,0,0-.38.12.51.51,0,0,0,.12.38.13.13,0,0,0,.15,0,7,7,0,0,0,1.31.52,5.85,5.85,0,0,0-1.37.31.13.13,0,0,0-.15,0,.57.57,0,0,0-.18.35.52.52,0,0,0,.35.18.13.13,0,0,0,.1-.11,6.08,6.08,0,0,0,1.29-.55,6.93,6.93,0,0,0-.74,1.18.13.13,0,0,0-.13.08.54.54,0,0,0,.12.38.52.52,0,0,0,.38-.13.12.12,0,0,0,0-.14,7,7,0,0,0,.52-1.3,6.49,6.49,0,0,0,.31,1.36.15.15,0,0,0,0,.15.54.54,0,0,0,.35.18.52.52,0,0,0,.18-.36.13.13,0,0,0-.11-.09,7.28,7.28,0,0,0-.55-1.29,6.27,6.27,0,0,0,1.18.75.14.14,0,0,0,.09.12.5.5,0,0,0,.37-.12.49.49,0,0,0-.12-.37.13.13,0,0,0-.15,0,5.78,5.78,0,0,0-1.3-.52,7.45,7.45,0,0,0,1.37-.31A.13.13,0,0,0,80,114.66Zm-1.68.3s0,0,0,0v0h0v0s0,0,0,0,0,0,0,0,0,0,0,0h0v0s0,0,0,0h0a0,0,0,0,1,0,0s0,0,0,0h0A0,0,0,0,0,78.28,115Z"/><path class="cls-1" d="M84.23,113a.5.5,0,0,0,.15-.36.51.51,0,0,0-.37-.15.15.15,0,0,0-.09.12,6.62,6.62,0,0,0-1.24.65,6.3,6.3,0,0,0,.65-1.24.11.11,0,0,0,.12-.09.47.47,0,0,0-.15-.36.51.51,0,0,0-.36.15.12.12,0,0,0,0,.15,6.09,6.09,0,0,0-.42,1.33,6.71,6.71,0,0,0-.42-1.33.13.13,0,0,0,0-.15.28.28,0,0,0-.52.21.12.12,0,0,0,.12.09,6.21,6.21,0,0,0,.66,1.24,6.78,6.78,0,0,0-1.25-.65.12.12,0,0,0-.09-.12.51.51,0,0,0-.36.15.5.5,0,0,0,.15.36.12.12,0,0,0,.15,0,6.56,6.56,0,0,0,1.34.42,5.83,5.83,0,0,0-1.34.41.16.16,0,0,0-.15,0,.5.5,0,0,0-.15.37.55.55,0,0,0,.36.15.12.12,0,0,0,.09-.12,6.78,6.78,0,0,0,1.25-.65,6.37,6.37,0,0,0-.66,1.23.15.15,0,0,0-.12.09.52.52,0,0,0,.16.37.53.53,0,0,0,.36-.15.13.13,0,0,0,0-.15,6.71,6.71,0,0,0,.42-1.33,5.57,5.57,0,0,0,.42,1.33.13.13,0,0,0,0,.15.54.54,0,0,0,.37.15.48.48,0,0,0,.15-.37.14.14,0,0,0-.12-.09,6.46,6.46,0,0,0-.65-1.23,6.62,6.62,0,0,0,1.24.65.15.15,0,0,0,.09.12.56.56,0,0,0,.37-.15.54.54,0,0,0-.15-.37.15.15,0,0,0-.15,0,6.75,6.75,0,0,0-1.34-.41,7,7,0,0,0,1.34-.42A.12.12,0,0,0,84.23,113Zm-1.66.43h0s0,0,0,0,0,0,0,0h0v0h0a0,0,0,0,0,0,0h0s0,0,0,0a0,0,0,0,0,0,0h0a0,0,0,0,0,0,0h0s0,0,0,0Z"/><path class="cls-1" d="M88.41,111.71a.13.13,0,0,0-.15,0,6.42,6.42,0,0,0-1.37-.31,7,7,0,0,0,1.31-.52.13.13,0,0,0,.15,0,.53.53,0,0,0,.12-.37.46.46,0,0,0-.38-.12.12.12,0,0,0-.08.12,6.71,6.71,0,0,0-1.19.74,6.09,6.09,0,0,0,.56-1.28.13.13,0,0,0,.11-.1.52.52,0,0,0-.18-.35.54.54,0,0,0-.35.18.12.12,0,0,0,0,.15,5.79,5.79,0,0,0-.31,1.36,6.71,6.71,0,0,0-.52-1.3.14.14,0,0,0,0-.15.49.49,0,0,0-.37-.12.45.45,0,0,0-.12.38.14.14,0,0,0,.12.08,6.27,6.27,0,0,0,.75,1.18,5.81,5.81,0,0,0-1.29-.55.17.17,0,0,0-.1-.12.52.52,0,0,0-.35.18.47.47,0,0,0,.18.35.11.11,0,0,0,.14,0,6.07,6.07,0,0,0,1.37.31,7,7,0,0,0-1.3.52.13.13,0,0,0-.15,0,.49.49,0,0,0-.12.37c0,.08.31.16.37.13a.15.15,0,0,0,.08-.13,6.71,6.71,0,0,0,1.19-.74,6.19,6.19,0,0,0-.55,1.28.13.13,0,0,0-.11.1.28.28,0,0,0,.53.17.16.16,0,0,0,0-.15,6.9,6.9,0,0,0,.31-1.36,5.6,5.6,0,0,0,.52,1.3.13.13,0,0,0,0,.15.5.5,0,0,0,.38.12.52.52,0,0,0,.12-.37.14.14,0,0,0-.13-.08,5.65,5.65,0,0,0-.75-1.18,6.71,6.71,0,0,0,1.29.54.14.14,0,0,0,.1.12.52.52,0,0,0,.36-.18A.54.54,0,0,0,88.41,111.71Zm-1.68-.24h0v0l0,0h0a0,0,0,0,0,0,0h0v0s0,0,0,0,0,0,0,0,0,0,0,0h0a0,0,0,0,1,0,0h0S86.72,111.47,86.73,111.47Z"/><path class="cls-1" d="M92.41,109.35a.14.14,0,0,0-.14.05,6.36,6.36,0,0,0-1.39-.21,5.93,5.93,0,0,0,1.26-.61.14.14,0,0,0,.15,0,.5.5,0,0,0,.09-.38.48.48,0,0,0-.38-.09.12.12,0,0,0-.07.13,6.45,6.45,0,0,0-1.13.83,6.08,6.08,0,0,0,.45-1.32.14.14,0,0,0,.11-.11.28.28,0,0,0-.55-.13.15.15,0,0,0,0,.15,6.69,6.69,0,0,0-.2,1.38,6.33,6.33,0,0,0-.62-1.25.14.14,0,0,0,0-.15.49.49,0,0,0-.39-.09.48.48,0,0,0-.09.38.14.14,0,0,0,.13.07,7.2,7.2,0,0,0,.84,1.12,6,6,0,0,0-1.33-.45.12.12,0,0,0-.11-.1c-.06,0-.32.12-.33.2a.54.54,0,0,0,.2.34.16.16,0,0,0,.15,0,7,7,0,0,0,1.38.21,6.15,6.15,0,0,0-1.25.61.14.14,0,0,0-.15,0,.5.5,0,0,0-.1.38.51.51,0,0,0,.39.09.13.13,0,0,0,.07-.13,6.28,6.28,0,0,0,1.12-.83,6.45,6.45,0,0,0-.45,1.32.13.13,0,0,0-.1.1.5.5,0,0,0,.21.34.47.47,0,0,0,.33-.21.12.12,0,0,0,0-.14,6.06,6.06,0,0,0,.2-1.38,6.51,6.51,0,0,0,.63,1.25.12.12,0,0,0,0,.15.46.46,0,0,0,.38.09.52.52,0,0,0,.1-.38.14.14,0,0,0-.14-.07,6.69,6.69,0,0,0-.83-1.12,6.08,6.08,0,0,0,1.32.45.14.14,0,0,0,.11.1.49.49,0,0,0,.34-.2A.51.51,0,0,0,92.41,109.35Zm-1.69-.1s0,0,0,0,0,0,0,0v0h0v0h0s0,0,0,0h0a0,0,0,0,1,0,0s0,0,0,0h0a0,0,0,0,1,0,0h0Z"/><path class="cls-1" d="M96.22,106.69a.14.14,0,0,0-.14.06,6.59,6.59,0,0,0-1.4-.1,6.19,6.19,0,0,0,1.21-.71.14.14,0,0,0,.15,0,.28.28,0,0,0-.33-.45.13.13,0,0,0-.06.14,6.6,6.6,0,0,0-1.06.92,6.45,6.45,0,0,0,.35-1.35.15.15,0,0,0,.09-.12.53.53,0,0,0-.23-.32.55.55,0,0,0-.32.23.13.13,0,0,0,0,.14,6.46,6.46,0,0,0-.09,1.4,6.06,6.06,0,0,0-.72-1.2.14.14,0,0,0,0-.15.5.5,0,0,0-.4-.06.53.53,0,0,0-.06.39.16.16,0,0,0,.14.06,6.25,6.25,0,0,0,.92,1,7.26,7.26,0,0,0-1.36-.34s0-.08-.11-.09-.31.15-.32.23.16.31.23.32a.14.14,0,0,0,.14-.06,6.66,6.66,0,0,0,1.4.1,5.91,5.91,0,0,0-1.2.71.14.14,0,0,0-.15,0,.53.53,0,0,0-.07.39.5.5,0,0,0,.39.06.11.11,0,0,0,.06-.13,6.6,6.6,0,0,0,1.06-.92,6,6,0,0,0-.34,1.35.14.14,0,0,0-.1.12.55.55,0,0,0,.23.32.52.52,0,0,0,.32-.24.12.12,0,0,0,0-.13,6.46,6.46,0,0,0,.09-1.4,6.61,6.61,0,0,0,.72,1.2.14.14,0,0,0,0,.15.48.48,0,0,0,.39.06.54.54,0,0,0,.06-.39.16.16,0,0,0-.14-.06,6.89,6.89,0,0,0-.92-1,6.41,6.41,0,0,0,1.36.35.15.15,0,0,0,.11.09c.07,0,.31-.15.32-.23S96.29,106.7,96.22,106.69Zm-1.7,0h0v0s0,0,0,0l0,0s0,0,0,0h0a0,0,0,0,0,0,0h0s0,0,0,0a0,0,0,0,0,0,0s0,0,0,0,0,0,0,0h0Z"/><path class="cls-1" d="M99.81,103.74a.14.14,0,0,0-.14.07,6.85,6.85,0,0,0-1.4,0,5.79,5.79,0,0,0,1.14-.8.13.13,0,0,0,.15,0,.48.48,0,0,0,0-.39.49.49,0,0,0-.39,0,.13.13,0,0,0,0,.14,6.19,6.19,0,0,0-1,1,6.39,6.39,0,0,0,.24-1.38.12.12,0,0,0,.08-.12.48.48,0,0,0-.26-.3c-.08,0-.29.19-.3.26a.16.16,0,0,0,.07.13,6,6,0,0,0,0,1.4,6.1,6.1,0,0,0-.82-1.14.14.14,0,0,0,0-.15.55.55,0,0,0-.4,0,.53.53,0,0,0,0,.39.15.15,0,0,0,.15,0,6,6,0,0,0,1,1,7.26,7.26,0,0,0-1.38-.23.16.16,0,0,0-.13-.09.28.28,0,1,0,0,.56.13.13,0,0,0,.13-.07,7,7,0,0,0,1.41,0,6.09,6.09,0,0,0-1.15.8.15.15,0,0,0-.15,0,.52.52,0,0,0,0,.39.51.51,0,0,0,.4,0,.13.13,0,0,0,.05-.14,7.21,7.21,0,0,0,1-1,6.39,6.39,0,0,0-.24,1.38.13.13,0,0,0-.09.12.55.55,0,0,0,.26.3c.08,0,.3-.19.3-.26a.13.13,0,0,0-.06-.13,6.58,6.58,0,0,0,0-1.39,6.85,6.85,0,0,0,.81,1.13.13.13,0,0,0,0,.15.52.52,0,0,0,.39,0,.49.49,0,0,0,0-.39.13.13,0,0,0-.14,0,6.45,6.45,0,0,0-1-1,6.52,6.52,0,0,0,1.38.23.14.14,0,0,0,.12.09c.07,0,.3-.18.3-.26S99.88,103.75,99.81,103.74Zm-1.69.17h0v0a0,0,0,0,0,0,0h0v0h0s0,0,0,0h0s0,0,0,0,0,0,0,0h0s0,0,0,0h0s0,0,0,0Z"/><path class="cls-1" d="M103.15,100.52a.13.13,0,0,0-.13.08,7.19,7.19,0,0,0-1.4.12,5.73,5.73,0,0,0,1.08-.89.13.13,0,0,0,.15,0,.58.58,0,0,0,0-.39.51.51,0,0,0-.4,0,.14.14,0,0,0,0,.14,7.35,7.35,0,0,0-.9,1.08,6.23,6.23,0,0,0,.13-1.39.13.13,0,0,0,.08-.13c0-.07-.2-.28-.28-.28s-.28.21-.28.28a.14.14,0,0,0,.07.13,6.23,6.23,0,0,0,.13,1.39,6.23,6.23,0,0,0-.9-1.08.12.12,0,0,0,0-.14.28.28,0,1,0-.39.39.13.13,0,0,0,.14,0,6.55,6.55,0,0,0,1.08.89,7.11,7.11,0,0,0-1.4-.12.13.13,0,0,0-.13-.08c-.06,0-.28.2-.28.28s.22.28.28.28a.13.13,0,0,0,.13-.08,7.11,7.11,0,0,0,1.4-.12,6.06,6.06,0,0,0-1.08.89.13.13,0,0,0-.14,0,.28.28,0,0,0,.39.39.12.12,0,0,0,0-.14,6.74,6.74,0,0,0,.9-1.08,6.23,6.23,0,0,0-.13,1.39.14.14,0,0,0-.07.13c0,.07.19.28.28.28s.28-.21.28-.28a.13.13,0,0,0-.08-.13,6.23,6.23,0,0,0-.13-1.39,6.74,6.74,0,0,0,.9,1.08.13.13,0,0,0,0,.14.51.51,0,0,0,.4,0,.58.58,0,0,0,0-.39.15.15,0,0,0-.15,0,6.55,6.55,0,0,0-1.08-.89,7.19,7.19,0,0,0,1.4.12.13.13,0,0,0,.13.08c.07,0,.28-.2.28-.28S103.22,100.52,103.15,100.52Zm-1.67.3h0v0s0,0,0,0v0h0s0,0,0,0,0,0,0,0h0v0s0,0,0,0v0h0l0,0S101.47,100.81,101.48,100.82Z"/><path class="cls-1" d="M106.23,97.05a.16.16,0,0,0-.13.09,6.52,6.52,0,0,0-1.38.23,6.48,6.48,0,0,0,1-1,.15.15,0,0,0,.15-.05.53.53,0,0,0,0-.39.5.5,0,0,0-.4,0,.12.12,0,0,0,0,.14,6.84,6.84,0,0,0-.82,1.14,6,6,0,0,0,0-1.39.16.16,0,0,0,.07-.14c0-.06-.22-.26-.3-.25s-.27.23-.26.3a.12.12,0,0,0,.08.12,6.27,6.27,0,0,0,.24,1.37,6.23,6.23,0,0,0-1-1,.13.13,0,0,0,0-.14.45.45,0,0,0-.39,0c-.06.06,0,.34,0,.39a.14.14,0,0,0,.15,0,5.94,5.94,0,0,0,1.14.81,6.68,6.68,0,0,0-1.4,0,.14.14,0,0,0-.14-.06c-.07,0-.26.22-.26.3a.51.51,0,0,0,.31.25.14.14,0,0,0,.12-.08,6.39,6.39,0,0,0,1.38-.24,6.19,6.19,0,0,0-1,1,.12.12,0,0,0-.14,0,.45.45,0,0,0,0,.39.52.52,0,0,0,.39,0,.13.13,0,0,0,0-.15,6.44,6.44,0,0,0,.81-1.14,6,6,0,0,0,0,1.4.12.12,0,0,0-.06.13c0,.07.22.26.3.26a.49.49,0,0,0,.25-.3.11.11,0,0,0-.08-.12,6.39,6.39,0,0,0-.24-1.38,6.19,6.19,0,0,0,1,1,.13.13,0,0,0,0,.14.56.56,0,0,0,.4,0,.52.52,0,0,0,0-.39.13.13,0,0,0-.15,0,6.81,6.81,0,0,0-1.15-.81,6.14,6.14,0,0,0,1.41,0,.13.13,0,0,0,.13.07.28.28,0,0,0,0-.56Zm-1.67.45h0v0h0a0,0,0,0,0,0,0h0s0,0,0,0l0,0,0,0s0,0,0,0,0,0,0,0a0,0,0,0,1,0,0s0,0,0,0,0,0,0,0Z"/><path class="cls-1" d="M109,93.35a.12.12,0,0,0-.11.1,6,6,0,0,0-1.36.34,6.89,6.89,0,0,0,.92-1.05.14.14,0,0,0,.14-.06.5.5,0,0,0-.07-.39.53.53,0,0,0-.39.06.14.14,0,0,0,0,.15,6.06,6.06,0,0,0-.72,1.2,6.37,6.37,0,0,0-.09-1.39.13.13,0,0,0,0-.14c0-.07-.24-.25-.32-.23s-.24.25-.23.32a.15.15,0,0,0,.09.11,6.45,6.45,0,0,0,.35,1.35,7.15,7.15,0,0,0-1.06-.92.11.11,0,0,0-.06-.13.5.5,0,0,0-.39.06.53.53,0,0,0,.06.39.14.14,0,0,0,.15,0,7,7,0,0,0,1.21.72,5.84,5.84,0,0,0-1.4.09.14.14,0,0,0-.14-.06.52.52,0,0,0-.24.32.55.55,0,0,0,.33.23.13.13,0,0,0,.11-.09A6.54,6.54,0,0,0,107.2,94a6,6,0,0,0-.92,1,.13.13,0,0,0-.14.06.51.51,0,0,0,.06.38.48.48,0,0,0,.39-.06.14.14,0,0,0,0-.15,7,7,0,0,0,.72-1.19,5.79,5.79,0,0,0,.09,1.39.14.14,0,0,0-.06.14c0,.06.24.24.32.23s.25-.25.24-.32a.12.12,0,0,0-.1-.11,6.72,6.72,0,0,0-.34-1.36,6.38,6.38,0,0,0,1,.92.16.16,0,0,0,.06.14.56.56,0,0,0,.4-.06.52.52,0,0,0-.07-.39.14.14,0,0,0-.15,0,6.43,6.43,0,0,0-1.2-.71,6.49,6.49,0,0,0,1.4-.09.13.13,0,0,0,.14.05.51.51,0,0,0,.23-.32C109.33,93.5,109.09,93.34,109,93.35Zm-1.62.58h0l0,0v0s0,0,0,0a0,0,0,0,1,0,0s0,0,0,0h0a0,0,0,0,0,0,0h0s0,0,0,0,0,0,0,0h0s0,0,0,0h0A0,0,0,0,1,107.4,93.93Z"/><path class="cls-1" d="M111.51,89.45a.12.12,0,0,0-.1.1,6,6,0,0,0-1.33.45,7.2,7.2,0,0,0,.84-1.12.14.14,0,0,0,.13-.07.52.52,0,0,0-.09-.38.49.49,0,0,0-.39.09.14.14,0,0,0,0,.15,5.59,5.59,0,0,0-.62,1.25,6.21,6.21,0,0,0-.21-1.38.16.16,0,0,0,.05-.15.28.28,0,0,0-.55.13.14.14,0,0,0,.11.11A6.08,6.08,0,0,0,109.8,90a6.45,6.45,0,0,0-1.13-.83.13.13,0,0,0-.07-.13.48.48,0,0,0-.38.09.46.46,0,0,0,.09.38.12.12,0,0,0,.15,0,5.61,5.61,0,0,0,1.26.62,6.77,6.77,0,0,0-1.39.2.15.15,0,0,0-.15,0,.54.54,0,0,0-.2.34.53.53,0,0,0,.33.2.12.12,0,0,0,.11-.1,6,6,0,0,0,1.33-.45,6.74,6.74,0,0,0-.84,1.12.14.14,0,0,0-.13.07.48.48,0,0,0,.09.38.53.53,0,0,0,.39-.09.14.14,0,0,0,0-.15,5.8,5.8,0,0,0,.62-1.25,6.29,6.29,0,0,0,.21,1.38.15.15,0,0,0,0,.14.51.51,0,0,0,.34.21.54.54,0,0,0,.21-.34.14.14,0,0,0-.11-.1,5.89,5.89,0,0,0-.45-1.32,6.45,6.45,0,0,0,1.13.83.14.14,0,0,0,.07.13.48.48,0,0,0,.38-.09.46.46,0,0,0-.09-.38.14.14,0,0,0-.15,0,5.93,5.93,0,0,0-1.26-.61,7,7,0,0,0,1.39-.21.16.16,0,0,0,.15,0,.54.54,0,0,0,.2-.34A.49.49,0,0,0,111.51,89.45Zm-1.57.7h0s0,0,0,0a0,0,0,0,0,0,0h0a0,0,0,0,1,0,0s0,0,0,0,0,0,0,0,0,0,0,0h0a0,0,0,0,0,0,0s0,0,0,0h0a0,0,0,0,0,0,0h0S109.94,90.14,109.94,90.15Z"/><path class="cls-1" d="M113.87,85.89a.51.51,0,0,0,.17-.35c0-.08-.28-.2-.35-.18a.14.14,0,0,0-.1.11,6.6,6.6,0,0,0-1.29.55,6.27,6.27,0,0,0,.75-1.18.14.14,0,0,0,.13-.08.51.51,0,0,0-.13-.38.5.5,0,0,0-.37.13.12.12,0,0,0,0,.14,5.78,5.78,0,0,0-.52,1.3,6.68,6.68,0,0,0-.32-1.36.13.13,0,0,0,0-.15.28.28,0,0,0-.54.17.15.15,0,0,0,.12.1A6.6,6.6,0,0,0,112,86a6.09,6.09,0,0,0-1.19-.75.12.12,0,0,0-.08-.12.28.28,0,1,0-.25.49.14.14,0,0,0,.15,0,5.6,5.6,0,0,0,1.3.52,7.11,7.11,0,0,0-1.37.31.15.15,0,0,0-.15,0,.54.54,0,0,0-.18.35.52.52,0,0,0,.36.18.14.14,0,0,0,.1-.11,7.28,7.28,0,0,0,1.29-.55,5.65,5.65,0,0,0-.75,1.18.14.14,0,0,0-.13.08.28.28,0,0,0,.5.25.13.13,0,0,0,0-.15,5.75,5.75,0,0,0,.52-1.29,7.22,7.22,0,0,0,.31,1.36.13.13,0,0,0,0,.14.49.49,0,0,0,.36.18.47.47,0,0,0,.17-.35.14.14,0,0,0-.11-.1,6.19,6.19,0,0,0-.55-1.28,6.16,6.16,0,0,0,1.19.74.14.14,0,0,0,.08.13.28.28,0,0,0,.25-.5.14.14,0,0,0-.15,0,6.71,6.71,0,0,0-1.3-.52,6,6,0,0,0,1.37-.31A.13.13,0,0,0,113.87,85.89Zm-1.69.29h0s0,0,0,0a0,0,0,0,1,0,0s0,0,0,0a0,0,0,0,1,0,0l0,0h0s0,0,0,0h0s0,0,0,0a0,0,0,0,1,0,0h0v0s0,0,0,0h0A0,0,0,0,1,112.18,86.18Z"/><path class="cls-1" d="M115.75,81.63a.51.51,0,0,0,.16-.37.6.6,0,0,0-.37-.15.15.15,0,0,0-.09.12,6.3,6.3,0,0,0-1.24.65,6.3,6.3,0,0,0,.65-1.24.12.12,0,0,0,.12-.09.51.51,0,0,0-.15-.36.54.54,0,0,0-.37.15.16.16,0,0,0,0,.15,6.71,6.71,0,0,0-.42,1.33,5.93,5.93,0,0,0-.41-1.33.16.16,0,0,0,0-.15.54.54,0,0,0-.37-.15.51.51,0,0,0-.15.36.12.12,0,0,0,.12.09,6.3,6.3,0,0,0,.65,1.24,6.3,6.3,0,0,0-1.24-.65.15.15,0,0,0-.09-.12.58.58,0,0,0-.37.15.54.54,0,0,0,.15.37.13.13,0,0,0,.15,0,6.3,6.3,0,0,0,1.34.42,6.75,6.75,0,0,0-1.34.41.15.15,0,0,0-.15,0,.54.54,0,0,0-.15.37.58.58,0,0,0,.37.15.15.15,0,0,0,.09-.12,6.3,6.3,0,0,0,1.24-.65,6.3,6.3,0,0,0-.65,1.24.12.12,0,0,0-.12.09.51.51,0,0,0,.15.36.54.54,0,0,0,.37-.15.16.16,0,0,0,0-.15,5.93,5.93,0,0,0,.41-1.33,6.71,6.71,0,0,0,.42,1.33.13.13,0,0,0,0,.15.54.54,0,0,0,.37.15.55.55,0,0,0,.15-.36.12.12,0,0,0-.12-.09,6.3,6.3,0,0,0-.65-1.24,6.3,6.3,0,0,0,1.24.65.15.15,0,0,0,.09.12.6.6,0,0,0,.37-.15.51.51,0,0,0-.16-.37.14.14,0,0,0-.15,0,6.71,6.71,0,0,0-1.33-.42,6.75,6.75,0,0,0,1.34-.41A.14.14,0,0,0,115.75,81.63Zm-1.65.42h0s0,0,0,0,0,0,0,0h0a0,0,0,0,0,0,0s0,0,0,0h0a0,0,0,0,0,0,0h0v0s0,0,0,0h0a0,0,0,0,0,0,0h0s0,0,0,0S114.09,82,114.1,82.05Z"/><path class="cls-1" d="M117.36,78a.12.12,0,0,0-.14,0,6.69,6.69,0,0,0-1.37-.31,7,7,0,0,0,1.3-.52.13.13,0,0,0,.15,0,.49.49,0,0,0,.12-.37.43.43,0,0,0-.37-.12.12.12,0,0,0-.08.12,6.71,6.71,0,0,0-1.19.74,6.19,6.19,0,0,0,.55-1.28.13.13,0,0,0,.11-.1.52.52,0,0,0-.18-.35.57.57,0,0,0-.35.18.15.15,0,0,0,0,.15,7.05,7.05,0,0,0-.31,1.36,6.11,6.11,0,0,0-.52-1.3.13.13,0,0,0,0-.15.5.5,0,0,0-.38-.12.53.53,0,0,0-.12.38.16.16,0,0,0,.13.08,6.93,6.93,0,0,0,.74,1.18,5.6,5.6,0,0,0-1.29-.55.15.15,0,0,0-.09-.12.57.57,0,0,0-.36.18.54.54,0,0,0,.18.35.12.12,0,0,0,.15,0,5.85,5.85,0,0,0,1.37.31,7,7,0,0,0-1.31.52.13.13,0,0,0-.15,0,.49.49,0,0,0-.12.37.51.51,0,0,0,.38.13.14.14,0,0,0,.08-.13,6.71,6.71,0,0,0,1.19-.74,6.09,6.09,0,0,0-.56,1.28.13.13,0,0,0-.11.1.52.52,0,0,0,.18.35.5.5,0,0,0,.35-.18.12.12,0,0,0,0-.15,5.69,5.69,0,0,0,.31-1.36,6.71,6.71,0,0,0,.52,1.3.14.14,0,0,0,0,.15.49.49,0,0,0,.37.12.48.48,0,0,0,.12-.37.12.12,0,0,0-.12-.08,5.65,5.65,0,0,0-.75-1.18,6.44,6.44,0,0,0,1.29.54.13.13,0,0,0,.1.12c.07,0,.33-.1.35-.18A.47.47,0,0,0,117.36,78Zm-1.68-.24h0s0,0,0,0v0h0a0,0,0,0,1,0,0h0s0,0,0,0h0v0s0,0,0,0h0v0s0,0,0,0h0Z"/><path class="cls-1" d="M118.62,73.51a.11.11,0,0,0-.14,0,7,7,0,0,0-1.39-.2,6.62,6.62,0,0,0,1.26-.62.14.14,0,0,0,.15,0,.56.56,0,0,0,.09-.38.55.55,0,0,0-.39-.1.17.17,0,0,0-.07.14,6.28,6.28,0,0,0-1.12.83,6.69,6.69,0,0,0,.45-1.32c.05,0,.09,0,.1-.11s-.13-.32-.21-.33a.48.48,0,0,0-.33.2.11.11,0,0,0,0,.14,6.21,6.21,0,0,0-.2,1.38,7,7,0,0,0-.62-1.25.14.14,0,0,0,0-.15.54.54,0,0,0-.38-.09.51.51,0,0,0-.09.39.15.15,0,0,0,.13.07,6.06,6.06,0,0,0,.84,1.11,7.24,7.24,0,0,0-1.33-.44.15.15,0,0,0-.11-.11.54.54,0,0,0-.34.21.47.47,0,0,0,.21.33.11.11,0,0,0,.14,0,6.27,6.27,0,0,0,1.39.2,7.3,7.3,0,0,0-1.26.62.14.14,0,0,0-.15,0,.53.53,0,0,0-.09.39.58.58,0,0,0,.38.09.15.15,0,0,0,.08-.13,6.74,6.74,0,0,0,1.12-.84,6.94,6.94,0,0,0-.45,1.32s-.09,0-.1.11a.49.49,0,0,0,.2.34.51.51,0,0,0,.34-.21.11.11,0,0,0,0-.14,6.13,6.13,0,0,0,.2-1.38,7,7,0,0,0,.62,1.25.14.14,0,0,0,0,.15.5.5,0,0,0,.38.09.48.48,0,0,0,.09-.38.12.12,0,0,0-.13-.07,6.22,6.22,0,0,0-.84-1.12,6.84,6.84,0,0,0,1.33.45s0,.08.11.1a.5.5,0,0,0,.34-.21A.47.47,0,0,0,118.62,73.51Zm-1.69-.1h0v0s0,0,0,0l0,0s0,0,0,0h0l0,0h0v0s0,0,0,0h0s0,0,0,0h0s0,0,0,0Z"/><path class="cls-1" d="M119.52,68.92a.12.12,0,0,0-.14,0,5.89,5.89,0,0,0-1.4-.09,6.37,6.37,0,0,0,1.2-.72.14.14,0,0,0,.15,0,.48.48,0,0,0,.06-.39c0-.07-.33-.1-.39-.06a.15.15,0,0,0-.06.13,6.94,6.94,0,0,0-1,.92,6.58,6.58,0,0,0,.34-1.35.14.14,0,0,0,.1-.11.51.51,0,0,0-.24-.32c-.08,0-.31.16-.32.23a.14.14,0,0,0,.06.14,6.54,6.54,0,0,0-.1,1.39,5.91,5.91,0,0,0-.71-1.2.14.14,0,0,0,0-.15.52.52,0,0,0-.39-.06.49.49,0,0,0-.06.39.13.13,0,0,0,.14.06,6.89,6.89,0,0,0,.92,1,6.1,6.1,0,0,0-1.36-.34.14.14,0,0,0-.12-.1.55.55,0,0,0-.32.23.52.52,0,0,0,.24.32.15.15,0,0,0,.14-.05,7.14,7.14,0,0,0,1.4.09,6.76,6.76,0,0,0-1.21.71.14.14,0,0,0-.15,0,.52.52,0,0,0-.06.39.54.54,0,0,0,.39.06.13.13,0,0,0,.06-.14,6.13,6.13,0,0,0,1.06-.92,6.41,6.41,0,0,0-.35,1.36s-.08,0-.09.11.15.31.23.32a.51.51,0,0,0,.32-.23.12.12,0,0,0-.06-.14,6.54,6.54,0,0,0,.1-1.39,6.7,6.7,0,0,0,.72,1.2.12.12,0,0,0,0,.14.53.53,0,0,0,.39.07.5.5,0,0,0,.06-.39.11.11,0,0,0-.13-.06,6.37,6.37,0,0,0-.93-1,6.91,6.91,0,0,0,1.36.34.13.13,0,0,0,.12.09c.07,0,.31-.15.32-.23A.53.53,0,0,0,119.52,68.92Zm-1.7,0h0a0,0,0,0,0,0,0,0,0,0,0,0,0,0h0v0h0s0,0,0,0h0v0s0,0,0,0h0v0h0s0,0,0,0S117.81,68.94,117.82,69Z"/><path class="cls-1" d="M120.05,64.27a.14.14,0,0,0-.14.06,6,6,0,0,0-1.4,0,6.81,6.81,0,0,0,1.15-.81.12.12,0,0,0,.14,0,.47.47,0,0,0,0-.4.53.53,0,0,0-.39,0,.14.14,0,0,0,0,.14,6.63,6.63,0,0,0-1,1,6.39,6.39,0,0,0,.24-1.37.14.14,0,0,0,.08-.13c0-.06-.17-.29-.25-.29s-.3.18-.31.25a.16.16,0,0,0,.07.14,6,6,0,0,0,0,1.39,6.82,6.82,0,0,0-.81-1.14.17.17,0,0,0,0-.15.54.54,0,0,0-.4,0,.56.56,0,0,0,0,.4.15.15,0,0,0,.15,0,6.19,6.19,0,0,0,1,1,6.39,6.39,0,0,0-1.38-.24.15.15,0,0,0-.13-.08.52.52,0,0,0-.3.25c0,.08.19.3.26.3a.11.11,0,0,0,.13-.06,6.12,6.12,0,0,0,1.41,0,6.81,6.81,0,0,0-1.15.81.14.14,0,0,0-.15,0,.55.55,0,0,0,0,.4.56.56,0,0,0,.4,0,.15.15,0,0,0,0-.15,6.23,6.23,0,0,0,1-1A6.27,6.27,0,0,0,118,66a.12.12,0,0,0-.08.12c0,.07.17.3.25.3a.47.47,0,0,0,.3-.25.14.14,0,0,0-.06-.14,6,6,0,0,0,0-1.39,6.82,6.82,0,0,0,.81,1.14.11.11,0,0,0,0,.14.48.48,0,0,0,.39,0,.47.47,0,0,0,0-.4.13.13,0,0,0-.14,0,6.48,6.48,0,0,0-1-1,6.39,6.39,0,0,0,1.38.24.14.14,0,0,0,.12.08.51.51,0,0,0,.31-.25A.49.49,0,0,0,120.05,64.27Zm-1.69.16s0,0,0,0v0a0,0,0,0,0,0,0v0s0,0,0,0h0s0,0,0,0h0s0,0,0,0a0,0,0,0,1,0,0s0,0,0,0,0,0,0,0,0,0,0,0h0S118.35,64.42,118.36,64.43Z"/><path class="cls-1" d="M120.21,59.59a.13.13,0,0,0-.13.08,6.47,6.47,0,0,0-1.4.12,6.16,6.16,0,0,0,1.08-.89.15.15,0,0,0,.15,0,.48.48,0,0,0,0-.39.51.51,0,0,0-.4,0,.13.13,0,0,0,0,.14,6.58,6.58,0,0,0-.89,1.07,7,7,0,0,0,.12-1.39.12.12,0,0,0,.08-.12c0-.07-.2-.28-.28-.28s-.28.21-.28.28a.12.12,0,0,0,.08.12,6.3,6.3,0,0,0,.12,1.39,6.26,6.26,0,0,0-.9-1.07.13.13,0,0,0,0-.14.51.51,0,0,0-.4,0,.48.48,0,0,0,0,.39.15.15,0,0,0,.15,0,6.18,6.18,0,0,0,1.07.89,6.16,6.16,0,0,0-1.39-.13.16.16,0,0,0-.13-.07c-.07,0-.28.2-.28.28s.21.28.28.28a.17.17,0,0,0,.13-.08,6.16,6.16,0,0,0,1.39-.13,6.74,6.74,0,0,0-1.08.9.13.13,0,0,0-.14,0,.28.28,0,1,0,.4.4.14.14,0,0,0,0-.15,5.9,5.9,0,0,0,.9-1.07,6.23,6.23,0,0,0-.13,1.39.14.14,0,0,0-.07.13c0,.07.2.28.28.28s.28-.21.28-.28a.13.13,0,0,0-.08-.13,7.07,7.07,0,0,0-.12-1.39,6.18,6.18,0,0,0,.89,1.07.15.15,0,0,0,0,.15.28.28,0,1,0,.4-.4.14.14,0,0,0-.15,0,6.33,6.33,0,0,0-1.08-.9,6.33,6.33,0,0,0,1.4.13.13.13,0,0,0,.13.08c.07,0,.28-.2.28-.28S120.28,59.59,120.21,59.59Zm-1.67.29h0v0l0,0s0,0,0,0v0h0v0h0v0h0s0,0,0,0h0l0,0Z"/><path class="cls-1" d="M119.5,54.26a.13.13,0,0,0,.14,0,.45.45,0,0,0,0-.39.52.52,0,0,0-.39,0,.13.13,0,0,0,0,.15,6.44,6.44,0,0,0-.81,1.14,6,6,0,0,0,0-1.4.12.12,0,0,0,.06-.13c0-.07-.22-.26-.3-.26a.49.49,0,0,0-.25.3.11.11,0,0,0,.08.12,6.39,6.39,0,0,0,.24,1.38,6.19,6.19,0,0,0-1-1,.13.13,0,0,0,0-.14.51.51,0,0,0-.4,0,.48.48,0,0,0,0,.39.11.11,0,0,0,.14,0,6.09,6.09,0,0,0,1.15.8,6.94,6.94,0,0,0-1.41,0s-.06-.07-.13-.07a.55.55,0,0,0-.26.3c0,.08.24.26.3.26a.15.15,0,0,0,.13-.09,6.52,6.52,0,0,0,1.38-.23,6,6,0,0,0-1,1,.15.15,0,0,0-.15,0,.53.53,0,0,0,0,.39.55.55,0,0,0,.4,0,.17.17,0,0,0,0-.15,6.85,6.85,0,0,0,.81-1.13,6,6,0,0,0,0,1.39.16.16,0,0,0-.07.13c0,.07.22.27.31.26a.49.49,0,0,0,.25-.3.12.12,0,0,0-.08-.12,6.39,6.39,0,0,0-.24-1.38,6.19,6.19,0,0,0,1,1,.13.13,0,0,0,0,.14.49.49,0,0,0,.39,0,.44.44,0,0,0,0-.39.17.17,0,0,0-.15,0,5.79,5.79,0,0,0-1.14-.8,6.85,6.85,0,0,0,1.4,0,.13.13,0,0,0,.14.07.55.55,0,0,0,.26-.3.51.51,0,0,0-.31-.25.12.12,0,0,0-.12.08,6.39,6.39,0,0,0-1.38.24A6.66,6.66,0,0,0,119.5,54.26Zm-1.16,1.11,0,0,0,0s0,0,0,0h0v0h0v0h0v0a0,0,0,0,0,0,0h0s0,0,0,0h0S118.34,55.36,118.34,55.37Z"/><path class="cls-1" d="M118.55,49.42a6.06,6.06,0,0,0-.72,1.2,7.09,7.09,0,0,0-.09-1.39.15.15,0,0,0,.05-.14c0-.07-.24-.25-.32-.23s-.24.25-.23.31a.13.13,0,0,0,.09.12,6.45,6.45,0,0,0,.35,1.35,6.6,6.6,0,0,0-1.06-.92.11.11,0,0,0-.06-.13.49.49,0,0,0-.39.06.53.53,0,0,0,.06.39.14.14,0,0,0,.15,0,7,7,0,0,0,1.21.72,5.84,5.84,0,0,0-1.4.09.15.15,0,0,0-.14-.06.52.52,0,0,0-.24.32.55.55,0,0,0,.32.23.13.13,0,0,0,.12-.09,6.72,6.72,0,0,0,1.36-.34,5.62,5.62,0,0,0-.92,1,.12.12,0,0,0-.14.06.47.47,0,0,0,.06.38.48.48,0,0,0,.39-.06.14.14,0,0,0,0-.15,6.19,6.19,0,0,0,.71-1.19,6.54,6.54,0,0,0,.1,1.39.14.14,0,0,0-.06.14.55.55,0,0,0,.32.23.51.51,0,0,0,.24-.32.16.16,0,0,0-.1-.12,6.58,6.58,0,0,0-.34-1.35,5.62,5.62,0,0,0,1,.92A.16.16,0,0,0,119,52a.53.53,0,0,0,.39-.06.48.48,0,0,0-.06-.39.14.14,0,0,0-.15,0,6.77,6.77,0,0,0-1.2-.71,7.22,7.22,0,0,0,1.4-.09.13.13,0,0,0,.14,0,.55.55,0,0,0,.23-.32c0-.08-.25-.24-.32-.23a.14.14,0,0,0-.12.1,6.26,6.26,0,0,0-1.36.34,6.83,6.83,0,0,0,.93-1.05.15.15,0,0,0,.13-.06.45.45,0,0,0-.06-.39.53.53,0,0,0-.39.06A.14.14,0,0,0,118.55,49.42Zm-.75,1.43h0l0,0v0h0l0,0s0,0,0,0h0v0a0,0,0,0,0,0,0v0s0,0,0,0h0s0,0,0,0h0Z"/><path class="cls-1" d="M117.54,44.91a6.64,6.64,0,0,0-.62,1.25,6.06,6.06,0,0,0-.2-1.38.13.13,0,0,0,0-.15.52.52,0,0,0-.34-.2.49.49,0,0,0-.2.33.12.12,0,0,0,.1.11,6.69,6.69,0,0,0,.45,1.32,6.28,6.28,0,0,0-1.12-.83.15.15,0,0,0-.07-.13.28.28,0,1,0-.3.47.12.12,0,0,0,.15,0,6.05,6.05,0,0,0,1.26.62,7,7,0,0,0-1.39.2.13.13,0,0,0-.14,0,.51.51,0,0,0-.21.34.49.49,0,0,0,.34.2c.07,0,.09-.05.11-.1a6.43,6.43,0,0,0,1.33-.45,6.22,6.22,0,0,0-.84,1.12.13.13,0,0,0-.13.07.48.48,0,0,0,.09.38.5.5,0,0,0,.38-.09.14.14,0,0,0,0-.15,7,7,0,0,0,.62-1.25,6.06,6.06,0,0,0,.2,1.38.12.12,0,0,0,0,.14.47.47,0,0,0,.33.21.5.5,0,0,0,.21-.34.13.13,0,0,0-.1-.1,6.45,6.45,0,0,0-.45-1.32,6.28,6.28,0,0,0,1.12.83.13.13,0,0,0,.07.13.5.5,0,0,0,.39-.09.54.54,0,0,0-.09-.38.14.14,0,0,0-.15,0,6.43,6.43,0,0,0-1.26-.61,7.15,7.15,0,0,0,1.39-.21.13.13,0,0,0,.14,0,.51.51,0,0,0,.21-.34.49.49,0,0,0-.34-.2c-.07,0-.09.05-.11.1a6.21,6.21,0,0,0-1.33.45,6.61,6.61,0,0,0,.84-1.12.13.13,0,0,0,.13-.07.48.48,0,0,0-.09-.38.46.46,0,0,0-.38.09A.14.14,0,0,0,117.54,44.91Zm-.62,1.48h0v0h0s0,0,0,0h0v0h0l0,0v0s0,0,0,0l0,0h0A0,0,0,0,0,116.92,46.39Z"/><path class="cls-1" d="M115.66,41.78a5.9,5.9,0,0,0-.31-1.36.12.12,0,0,0,0-.15.49.49,0,0,0-.35-.17c-.08,0-.2.28-.18.35a.14.14,0,0,0,.11.1,6.35,6.35,0,0,0,.56,1.28,6.62,6.62,0,0,0-1.19-.75.12.12,0,0,0-.08-.12.54.54,0,0,0-.38.12.53.53,0,0,0,.12.37.13.13,0,0,0,.15,0,6.18,6.18,0,0,0,1.31.51,7.11,7.11,0,0,0-1.37.31.15.15,0,0,0-.15,0,.54.54,0,0,0-.18.35.52.52,0,0,0,.35.18.13.13,0,0,0,.1-.11,6.66,6.66,0,0,0,1.29-.55,6.93,6.93,0,0,0-.74,1.18.13.13,0,0,0-.13.08.28.28,0,0,0,.5.25.14.14,0,0,0,0-.15,6.68,6.68,0,0,0,.52-1.29,7.22,7.22,0,0,0,.31,1.36.14.14,0,0,0,0,.14.48.48,0,0,0,.35.18c.08,0,.2-.28.18-.35a.14.14,0,0,0-.11-.1,6.19,6.19,0,0,0-.55-1.28,6.16,6.16,0,0,0,1.19.74.13.13,0,0,0,.08.13.5.5,0,0,0,.37-.12.53.53,0,0,0-.12-.38.13.13,0,0,0-.15,0,6.15,6.15,0,0,0-1.3-.51,7.45,7.45,0,0,0,1.37-.31.13.13,0,0,0,.14,0,.47.47,0,0,0,.18-.35c0-.08-.28-.2-.35-.18a.13.13,0,0,0-.1.11,7,7,0,0,0-1.29.55,6.27,6.27,0,0,0,.75-1.18.12.12,0,0,0,.12-.08.43.43,0,0,0-.12-.37.49.49,0,0,0-.37.12.12.12,0,0,0,0,.15A6.24,6.24,0,0,0,115.66,41.78Zm0,.23h0s0,0,0,0v0h0s0,0,0,0,0,0,0,0h0v0h0a0,0,0,0,0,0,0s0,0,0,0h0v0h0S115.67,42,115.68,42Z"/><path class="cls-1" d="M113.65,36.18a.14.14,0,0,0,0-.14.46.46,0,0,0-.37-.15.51.51,0,0,0-.15.36.15.15,0,0,0,.12.09,6.46,6.46,0,0,0,.65,1.23,5.88,5.88,0,0,0-1.24-.64.13.13,0,0,0-.09-.12.49.49,0,0,0-.37.15.5.5,0,0,0,.16.36.12.12,0,0,0,.14,0,7,7,0,0,0,1.34.42,6.13,6.13,0,0,0-1.34.41.13.13,0,0,0-.15,0,.53.53,0,0,0-.15.36.49.49,0,0,0,.37.15.13.13,0,0,0,.09-.12,5.88,5.88,0,0,0,1.24-.64,6.46,6.46,0,0,0-.65,1.23.15.15,0,0,0-.12.09.51.51,0,0,0,.15.36.46.46,0,0,0,.37-.15.14.14,0,0,0,0-.14,6,6,0,0,0,.41-1.34,6.75,6.75,0,0,0,.42,1.34.12.12,0,0,0,0,.14.46.46,0,0,0,.37.15.55.55,0,0,0,.15-.36.15.15,0,0,0-.12-.09,6.46,6.46,0,0,0-.65-1.23,5.88,5.88,0,0,0,1.24.64.13.13,0,0,0,.09.12.28.28,0,1,0,.21-.51.14.14,0,0,0-.15,0,5.93,5.93,0,0,0-1.33-.41,7,7,0,0,0,1.34-.42.12.12,0,0,0,.14,0,.48.48,0,0,0,.16-.36.51.51,0,0,0-.37-.15.13.13,0,0,0-.09.12,6.4,6.4,0,0,0-1.24.64,6.46,6.46,0,0,0,.65-1.23.15.15,0,0,0,.12-.09.51.51,0,0,0-.15-.36.46.46,0,0,0-.37.15.14.14,0,0,0,0,.14,6.75,6.75,0,0,0-.42,1.34A6,6,0,0,0,113.65,36.18Zm.45,1.5a0,0,0,0,0,0,0h0s0,0,0,0h0v0s0,0,0,0h0a0,0,0,0,0,0,0h0a0,0,0,0,0,0,0h0v0Z"/><path class="cls-1" d="M111.61,32.09a.13.13,0,0,0,0-.15.28.28,0,1,0-.5.26.14.14,0,0,0,.13.08,6.27,6.27,0,0,0,.75,1.18,6.6,6.6,0,0,0-1.29-.55.14.14,0,0,0-.1-.11.52.52,0,0,0-.36.18.59.59,0,0,0,.18.35.13.13,0,0,0,.15,0,5.85,5.85,0,0,0,1.37.31,6.71,6.71,0,0,0-1.3.52.14.14,0,0,0-.15,0,.51.51,0,0,0-.13.38.54.54,0,0,0,.38.12.14.14,0,0,0,.08-.13,6.71,6.71,0,0,0,1.19-.74,6.19,6.19,0,0,0-.55,1.28.15.15,0,0,0-.12.1.54.54,0,0,0,.18.35.5.5,0,0,0,.36-.18.12.12,0,0,0,0-.14,5.9,5.9,0,0,0,.31-1.36,6.47,6.47,0,0,0,.53,1.29.13.13,0,0,0,0,.15.28.28,0,0,0,.5-.25.15.15,0,0,0-.13-.08,5.65,5.65,0,0,0-.75-1.18,7.28,7.28,0,0,0,1.29.55.14.14,0,0,0,.1.11c.07,0,.33-.1.35-.18a.47.47,0,0,0-.18-.35.14.14,0,0,0-.14,0,7.28,7.28,0,0,0-1.37-.31,5.6,5.6,0,0,0,1.3-.52.14.14,0,0,0,.15,0,.54.54,0,0,0,.13-.37.54.54,0,0,0-.38-.12.12.12,0,0,0-.08.12,6.09,6.09,0,0,0-1.19.75,6.6,6.6,0,0,0,.55-1.29.15.15,0,0,0,.12-.1.28.28,0,0,0-.54-.17.13.13,0,0,0,0,.15,6.53,6.53,0,0,0-.32,1.36A5.78,5.78,0,0,0,111.61,32.09Zm.54,1.45s0,0,0,0h0s0,0,0,0h0s0,0,0,0v0h0v0s0,0,0,0h0v0h0v0h0A0,0,0,0,1,112.15,33.54Z"/><path class="cls-1" d="M109.26,28.17a.14.14,0,0,0,0-.15.58.58,0,0,0-.39-.09.55.55,0,0,0-.09.39.16.16,0,0,0,.13.07,6.56,6.56,0,0,0,.84,1.11,6.73,6.73,0,0,0-1.33-.44.14.14,0,0,0-.11-.11.54.54,0,0,0-.33.21.49.49,0,0,0,.2.33.13.13,0,0,0,.15,0,6.13,6.13,0,0,0,1.39.2,6.66,6.66,0,0,0-1.26.62.16.16,0,0,0-.15,0,.49.49,0,0,0-.09.39.52.52,0,0,0,.38.09.14.14,0,0,0,.07-.13,7.41,7.41,0,0,0,1.13-.84,6.29,6.29,0,0,0-.45,1.32.17.17,0,0,0-.11.11.54.54,0,0,0,.21.34.51.51,0,0,0,.34-.21.14.14,0,0,0-.05-.14,7,7,0,0,0,.21-1.38,5.8,5.8,0,0,0,.62,1.25.12.12,0,0,0,0,.15.53.53,0,0,0,.39.09.52.52,0,0,0,.09-.38.14.14,0,0,0-.13-.07,6.74,6.74,0,0,0-.84-1.12,6.6,6.6,0,0,0,1.33.45.13.13,0,0,0,.1.1.5.5,0,0,0,.34-.21.52.52,0,0,0-.2-.33.13.13,0,0,0-.15,0,6.77,6.77,0,0,0-1.39-.2,6.09,6.09,0,0,0,1.26-.62.12.12,0,0,0,.15,0,.47.47,0,0,0,.09-.38.48.48,0,0,0-.38-.09.13.13,0,0,0-.07.13,6.45,6.45,0,0,0-1.13.83,6.08,6.08,0,0,0,.45-1.32.14.14,0,0,0,.11-.11.28.28,0,0,0-.55-.13.13.13,0,0,0,0,.14,6.37,6.37,0,0,0-.21,1.38A5.8,5.8,0,0,0,109.26,28.17Zm.65,1.41v0h0a0,0,0,0,0,0,0h0l0,0v0h0a0,0,0,0,0,0,0,0,0,0,0,0,0,0s0,0,0,0,0,0,0,0h0a0,0,0,0,0,0,0h0S109.91,29.59,109.91,29.58Z"/><path class="cls-1" d="M106.2,24.24a.54.54,0,0,0-.06.39.16.16,0,0,0,.14.06,6.89,6.89,0,0,0,.92,1,6,6,0,0,0-1.36-.34.14.14,0,0,0-.11-.1c-.07,0-.31.15-.32.23s.16.31.23.32a.13.13,0,0,0,.14-.05,7.14,7.14,0,0,0,1.4.09,6.19,6.19,0,0,0-1.21.71.14.14,0,0,0-.15,0,.52.52,0,0,0-.06.39.54.54,0,0,0,.39.06.13.13,0,0,0,.06-.14,6.13,6.13,0,0,0,1.06-.92,6.45,6.45,0,0,0-.35,1.35.15.15,0,0,0-.09.12c0,.07.15.31.23.32a.55.55,0,0,0,.32-.23.13.13,0,0,0,0-.14,6.37,6.37,0,0,0,.09-1.39,6.36,6.36,0,0,0,.72,1.19.14.14,0,0,0,0,.15.49.49,0,0,0,.39.06.47.47,0,0,0,.07-.38.13.13,0,0,0-.14-.06,5.59,5.59,0,0,0-.93-1.05,6.86,6.86,0,0,0,1.37.34c0,.05,0,.08.11.09s.31-.15.32-.23a.51.51,0,0,0-.23-.32.14.14,0,0,0-.14.06,5.89,5.89,0,0,0-1.4-.09,6.61,6.61,0,0,0,1.2-.72.14.14,0,0,0,.15,0,.53.53,0,0,0,.07-.39.52.52,0,0,0-.4-.06.15.15,0,0,0-.06.13,6.89,6.89,0,0,0-1,.92,6.58,6.58,0,0,0,.34-1.35.14.14,0,0,0,.1-.12c0-.06-.15-.3-.23-.31s-.31.16-.32.23,0,.1,0,.14a5.79,5.79,0,0,0-.09,1.39,6.61,6.61,0,0,0-.72-1.2.14.14,0,0,0,0-.15A.52.52,0,0,0,106.2,24.24Zm1.14,1.58h0v0l0,0,0,0v0h0s0,0,0,0a0,0,0,0,1,0,0h0a0,0,0,0,0,0,0,0,0,0,0,0,0,0h0s0,0,0,0h0S107.34,25.83,107.34,25.82Z"/><path class="cls-1" d="M103.25,20.77a.49.49,0,0,0,0,.39.13.13,0,0,0,.14.05,6.48,6.48,0,0,0,1,1A6.52,6.52,0,0,0,103,22a.14.14,0,0,0-.12-.09c-.07,0-.3.18-.3.26s.18.29.25.3a.16.16,0,0,0,.14-.07,6,6,0,0,0,1.4,0,6.44,6.44,0,0,0-1.14.81.13.13,0,0,0-.15,0,.44.44,0,0,0,0,.39.53.53,0,0,0,.39,0,.13.13,0,0,0,0-.14,6.19,6.19,0,0,0,1-1,6.39,6.39,0,0,0-.24,1.38.12.12,0,0,0-.08.12.49.49,0,0,0,.25.3.54.54,0,0,0,.31-.26.14.14,0,0,0-.07-.13,6,6,0,0,0,0-1.4,6.44,6.44,0,0,0,.81,1.14.17.17,0,0,0,0,.15.55.55,0,0,0,.4,0,.53.53,0,0,0,0-.39.13.13,0,0,0-.15-.05,6.19,6.19,0,0,0-1-1,6.39,6.39,0,0,0,1.38.24.13.13,0,0,0,.13.08.49.49,0,0,0,.3-.25c0-.08-.19-.3-.26-.3a.11.11,0,0,0-.13.06,7.58,7.58,0,0,0-1.41,0,6.09,6.09,0,0,0,1.15-.8.17.17,0,0,0,.15,0,.53.53,0,0,0,0-.39.51.51,0,0,0-.4,0,.13.13,0,0,0,0,.14,7.24,7.24,0,0,0-1,1,6.15,6.15,0,0,0,.24-1.37.13.13,0,0,0,.09-.12c0-.07-.18-.3-.26-.3s-.3.19-.3.25a.14.14,0,0,0,.06.14,6,6,0,0,0,0,1.39,7.27,7.27,0,0,0-.81-1.14.11.11,0,0,0,0-.14A.48.48,0,0,0,103.25,20.77Zm1.25,1.48s0,0,0,0v0l0,0v0h0a0,0,0,0,0,0,0h0s0,0,0,0l0,0h0s0,0,0,0h0s0,0,0,0Z"/><path class="cls-1" d="M100,17.93a.13.13,0,0,0,.14,0,7.13,7.13,0,0,0,1.08.89,6.26,6.26,0,0,0-1.4-.13.13.13,0,0,0-.13-.07c-.06,0-.28.19-.28.27s.22.28.28.28a.13.13,0,0,0,.13-.07,6.26,6.26,0,0,0,1.4-.13,6.55,6.55,0,0,0-1.08.89.13.13,0,0,0-.14,0,.51.51,0,0,0,0,.4.58.58,0,0,0,.39,0,.13.13,0,0,0,0-.15,6.35,6.35,0,0,0,.9-1.07,6.16,6.16,0,0,0-.13,1.39.13.13,0,0,0-.07.13c0,.07.19.28.28.28s.28-.21.28-.28a.13.13,0,0,0-.08-.13,6.16,6.16,0,0,0-.13-1.39,6.35,6.35,0,0,0,.9,1.07.15.15,0,0,0,0,.15.61.61,0,0,0,.4,0,.61.61,0,0,0,0-.4.15.15,0,0,0-.15,0,6.67,6.67,0,0,0-1.08-.89,6.33,6.33,0,0,0,1.4.13.14.14,0,0,0,.13.07c.07,0,.28-.19.28-.27s-.21-.28-.28-.28a.14.14,0,0,0-.13.07,6.33,6.33,0,0,0-1.4.13A6.16,6.16,0,0,0,102.7,18a.15.15,0,0,0,.15,0,.61.61,0,0,0,0-.4.55.55,0,0,0-.4,0,.13.13,0,0,0,0,.14,6.89,6.89,0,0,0-.9,1.07,6.16,6.16,0,0,0,.13-1.39.13.13,0,0,0,.08-.13c0-.07-.2-.28-.28-.28s-.28.21-.28.28a.13.13,0,0,0,.07.13,6.16,6.16,0,0,0,.13,1.39,5.9,5.9,0,0,0-.9-1.07.13.13,0,0,0,0-.15.58.58,0,0,0-.39,0A.51.51,0,0,0,100,17.93Zm1.37,1h0v0l0,0v0h0a0,0,0,0,0,0,0h0v0a0,0,0,0,0,0,0l0,0v0h0a0,0,0,0,0,0,0Z"/><path class="cls-1" d="M96.48,15.77a.12.12,0,0,0-.13-.06c-.07,0-.27.21-.26.29a.48.48,0,0,0,.3.26.16.16,0,0,0,.13-.09,5.93,5.93,0,0,0,1.38-.23,6.44,6.44,0,0,0-1,1,.14.14,0,0,0-.14.05.56.56,0,0,0,0,.4.5.5,0,0,0,.4,0,.12.12,0,0,0,0-.14A6.45,6.45,0,0,0,98,16a6,6,0,0,0,0,1.39.16.16,0,0,0-.07.14c0,.07.22.26.3.25s.27-.23.26-.3a.13.13,0,0,0-.09-.12A5.92,5.92,0,0,0,98.17,16a6.63,6.63,0,0,0,1,1,.14.14,0,0,0,0,.14.53.53,0,0,0,.39,0,.5.5,0,0,0,0-.4.14.14,0,0,0-.15,0,6.44,6.44,0,0,0-1.14-.81,6,6,0,0,0,1.4,0,.14.14,0,0,0,.14.06.45.45,0,0,0,.25-.3c0-.08-.23-.26-.3-.25a.14.14,0,0,0-.12.08,6.39,6.39,0,0,0-1.38.24,6.48,6.48,0,0,0,1-1,.13.13,0,0,0,.14,0,.51.51,0,0,0,0-.4.48.48,0,0,0-.39,0,.11.11,0,0,0,0,.14,6.82,6.82,0,0,0-.81,1.14,6,6,0,0,0,0-1.39.14.14,0,0,0,.06-.14.47.47,0,0,0-.3-.25c-.08,0-.26.23-.26.29a.15.15,0,0,0,.09.13A6.39,6.39,0,0,0,98,15.67a6.63,6.63,0,0,0-1-1,.14.14,0,0,0-.05-.14.56.56,0,0,0-.4,0,.55.55,0,0,0,0,.4.14.14,0,0,0,.15,0,6.81,6.81,0,0,0,1.15.81A6.14,6.14,0,0,0,96.48,15.77Zm1.58,0a0,0,0,0,0,0,0v0h0l0,0h0s0,0,0,0,0,0,0,0,0,0,0,0,0,0,0,0h0v0h0Z"/><path class="cls-1" d="M92.84,13.58a.12.12,0,0,0,.11-.1,6,6,0,0,0,1.36-.34,6.42,6.42,0,0,0-.92,1,.13.13,0,0,0-.14.06.54.54,0,0,0,.06.39.55.55,0,0,0,.4-.06.14.14,0,0,0,0-.15,7,7,0,0,0,.72-1.2,6.37,6.37,0,0,0,.09,1.39.13.13,0,0,0,0,.14.51.51,0,0,0,.32.23c.08,0,.24-.25.23-.32a.14.14,0,0,0-.1-.11,6,6,0,0,0-.34-1.35,6.66,6.66,0,0,0,1.06.91.12.12,0,0,0,.06.14.5.5,0,0,0,.39-.06.52.52,0,0,0-.06-.39.14.14,0,0,0-.15,0,6.37,6.37,0,0,0-1.21-.72,6.43,6.43,0,0,0,1.4-.09.12.12,0,0,0,.14,0c.07,0,.25-.23.23-.31s-.25-.25-.32-.23a.13.13,0,0,0-.11.09,6.54,6.54,0,0,0-1.36.34,6.42,6.42,0,0,0,.92-1,.13.13,0,0,0,.14-.06.54.54,0,0,0-.06-.39.52.52,0,0,0-.39.07.12.12,0,0,0,0,.14,7.37,7.37,0,0,0-.72,1.2,5.79,5.79,0,0,0-.09-1.39.12.12,0,0,0,0-.14.48.48,0,0,0-.32-.23c-.08,0-.24.25-.23.32a.12.12,0,0,0,.1.11,6.26,6.26,0,0,0,.34,1.36A6.13,6.13,0,0,0,93.32,12a.13.13,0,0,0-.06-.14.54.54,0,0,0-.39.06.52.52,0,0,0,.07.39.12.12,0,0,0,.15,0,6.06,6.06,0,0,0,1.2.72,6.49,6.49,0,0,0-1.4.09.13.13,0,0,0-.14-.05c-.07,0-.25.24-.23.32S92.77,13.59,92.84,13.58ZM94.46,13h0l0,0v0h0v0l0,0h0s0,0,0,0h0s0,0,0,0,0,0,0,0h0v0h0Z"/><path class="cls-1" d="M89.08,11.18a.14.14,0,0,0,.11-.11,6.12,6.12,0,0,0,1.33-.44,6.32,6.32,0,0,0-.84,1.12.12.12,0,0,0-.13.07.49.49,0,0,0,.09.38.53.53,0,0,0,.39-.09A.16.16,0,0,0,90,12a7,7,0,0,0,.62-1.25,6.78,6.78,0,0,0,.2,1.38.13.13,0,0,0,0,.14.51.51,0,0,0,.34.21.49.49,0,0,0,.2-.34c0-.07,0-.09-.1-.11a6.29,6.29,0,0,0-.45-1.32,6.49,6.49,0,0,0,1.13.84c0,.05,0,.09.07.13a.57.57,0,0,0,.38-.09.53.53,0,0,0-.09-.39.14.14,0,0,0-.15,0,6.66,6.66,0,0,0-1.26-.62,6.2,6.2,0,0,0,1.39-.2.12.12,0,0,0,.14,0,.47.47,0,0,0,.21-.33.54.54,0,0,0-.34-.21.17.17,0,0,0-.11.11,6.82,6.82,0,0,0-1.32.44,6.12,6.12,0,0,0,.83-1.11.15.15,0,0,0,.14-.08.54.54,0,0,0-.1-.38.56.56,0,0,0-.38.09.12.12,0,0,0,0,.15,6.51,6.51,0,0,0-.63,1.25,6.21,6.21,0,0,0-.2-1.38.13.13,0,0,0,0-.14.55.55,0,0,0-.34-.21.5.5,0,0,0-.21.34.15.15,0,0,0,.11.11,6.19,6.19,0,0,0,.44,1.32,6.28,6.28,0,0,0-1.12-.83.14.14,0,0,0-.07-.14.56.56,0,0,0-.39.1.52.52,0,0,0,.1.38.14.14,0,0,0,.15,0,7,7,0,0,0,1.25.62,6.13,6.13,0,0,0-1.38.2.13.13,0,0,0-.15,0,.55.55,0,0,0-.21.33A.56.56,0,0,0,89.08,11.18Zm1.58-.71,0,0v0s0,0,0,0h0a0,0,0,0,0,0,0h0s0,0,0,0l0,0a0,0,0,0,0,0,0s0,0,0,0h0v0l0,0h0Z"/><path class="cls-1" d="M85,8.55a.47.47,0,0,0-.18.35c0,.08.28.2.35.18a.14.14,0,0,0,.1-.11,7,7,0,0,0,1.29-.55,6.27,6.27,0,0,0-.75,1.18.15.15,0,0,0-.13.08c0,.06,0,.34.13.37a.49.49,0,0,0,.37-.12.14.14,0,0,0,0-.15,6.24,6.24,0,0,0,.53-1.29A5.9,5.9,0,0,0,87,9.85.12.12,0,0,0,87,10a.5.5,0,0,0,.36.18c.08,0,.2-.28.18-.35a.14.14,0,0,0-.12-.1,5.68,5.68,0,0,0-.55-1.28A6.16,6.16,0,0,0,88,9.18a.13.13,0,0,0,.08.13.54.54,0,0,0,.38-.12.58.58,0,0,0-.12-.38.18.18,0,0,0-.16,0,6,6,0,0,0-1.3-.51A7.11,7.11,0,0,0,88.26,8a.15.15,0,0,0,.15,0,.54.54,0,0,0,.18-.35.52.52,0,0,0-.36-.18.14.14,0,0,0-.1.11,6.8,6.8,0,0,0-1.28.55A6.93,6.93,0,0,0,87.59,7a.14.14,0,0,0,.13-.08.5.5,0,0,0-.12-.37.5.5,0,0,0-.38.12.14.14,0,0,0,0,.15,6.07,6.07,0,0,0-.52,1.29,7.22,7.22,0,0,0-.31-1.36.15.15,0,0,0,0-.15.51.51,0,0,0-.35-.17c-.08,0-.2.28-.18.35a.14.14,0,0,0,.11.1,6.19,6.19,0,0,0,.55,1.28,6.62,6.62,0,0,0-1.19-.75.12.12,0,0,0-.08-.12.5.5,0,0,0-.37.12.49.49,0,0,0,.12.37.14.14,0,0,0,.15,0,6.15,6.15,0,0,0,1.3.51,7.45,7.45,0,0,0-1.37.31A.13.13,0,0,0,85,8.55Zm1.68-.29h0s0,0,0,0v0h0s0,0,0,0h0v0h0s0,0,0,0,0,0,0,0h0v0s0,0,0,0h0S86.67,8.26,86.66,8.26Z"/><path class="cls-1" d="M80.85,6.78a.49.49,0,0,0-.15.36.47.47,0,0,0,.36.15.1.1,0,0,0,.09-.11,6.78,6.78,0,0,0,1.25-.65,6.37,6.37,0,0,0-.66,1.23.15.15,0,0,0-.12.09.52.52,0,0,0,.16.37.53.53,0,0,0,.36-.15.13.13,0,0,0,0-.15,6.91,6.91,0,0,0,.42-1.33A5.57,5.57,0,0,0,83,7.92a.13.13,0,0,0,0,.15.56.56,0,0,0,.37.15.48.48,0,0,0,.15-.37.14.14,0,0,0-.12-.09,6.46,6.46,0,0,0-.65-1.23,6.62,6.62,0,0,0,1.24.65A.15.15,0,0,0,84,7.3a.52.52,0,0,0,.37-.16.53.53,0,0,0-.15-.36.15.15,0,0,0-.15,0,6.13,6.13,0,0,0-1.34-.41A7,7,0,0,0,84.08,6a.13.13,0,0,0,.15,0,.51.51,0,0,0,.15-.36A.48.48,0,0,0,84,5.48a.14.14,0,0,0-.09.12,6.62,6.62,0,0,0-1.24.65A6.62,6.62,0,0,0,83.33,5a.14.14,0,0,0,.12-.09.47.47,0,0,0-.15-.36.48.48,0,0,0-.36.15.12.12,0,0,0,0,.15,6.09,6.09,0,0,0-.42,1.33,6.71,6.71,0,0,0-.42-1.33.13.13,0,0,0,0-.15.48.48,0,0,0-.36-.15.52.52,0,0,0-.16.36.15.15,0,0,0,.12.09,6.86,6.86,0,0,0,.66,1.24,6.78,6.78,0,0,0-1.25-.65.11.11,0,0,0-.09-.12.47.47,0,0,0-.36.15.51.51,0,0,0,.15.36A.13.13,0,0,0,81,6a6.56,6.56,0,0,0,1.34.42A5.83,5.83,0,0,0,81,6.8.13.13,0,0,0,80.85,6.78Zm1.66-.42h0v0s0,0,0,0h0v0h0s0,0,0,0v0h0s0,0,0,0v0h0v0h0Z"/><path class="cls-1" d="M76.53,4.55a.15.15,0,0,0,.15,0,6.42,6.42,0,0,0,1.37.31,6.35,6.35,0,0,0-1.31.52.13.13,0,0,0-.15,0,.49.49,0,0,0-.12.37.54.54,0,0,0,.38.12.12.12,0,0,0,.08-.12A6.71,6.71,0,0,0,78.12,5a6.09,6.09,0,0,0-.56,1.28.13.13,0,0,0-.11.1.52.52,0,0,0,.18.35A.54.54,0,0,0,78,6.52a.13.13,0,0,0,0-.15A5.79,5.79,0,0,0,78.26,5a7,7,0,0,0,.52,1.3.13.13,0,0,0,0,.15.58.58,0,0,0,.38.12.54.54,0,0,0,.12-.38.14.14,0,0,0-.12-.08,6.83,6.83,0,0,0-.75-1.18,5.81,5.81,0,0,0,1.29.55.13.13,0,0,0,.1.11.49.49,0,0,0,.35-.17A.47.47,0,0,0,80,5.08a.11.11,0,0,0-.14,0,6.07,6.07,0,0,0-1.37-.31,7,7,0,0,0,1.3-.52.13.13,0,0,0,.15,0A.5.5,0,0,0,80,3.91a.5.5,0,0,0-.37-.12.12.12,0,0,0-.08.13,6.71,6.71,0,0,0-1.19.74,6.19,6.19,0,0,0,.55-1.28.13.13,0,0,0,.11-.1.52.52,0,0,0-.18-.35.52.52,0,0,0-.35.18.13.13,0,0,0,0,.14,7.22,7.22,0,0,0-.31,1.36,6.94,6.94,0,0,0-.52-1.29.13.13,0,0,0,0-.15.5.5,0,0,0-.38-.12.52.52,0,0,0-.12.37.13.13,0,0,0,.13.08,6.18,6.18,0,0,0,.74,1.18,6.66,6.66,0,0,0-1.29-.55A.13.13,0,0,0,76.7,4a.52.52,0,0,0-.35.18A.54.54,0,0,0,76.53,4.55Zm1.68.23h0v0h0v0h0v0h0s0,0,0,0a0,0,0,0,0,0,0h0s0,0,0,0h0S78.22,4.79,78.21,4.78Z"/><path class="cls-1" d="M72.11,3.45a.13.13,0,0,0,.15,0,6.13,6.13,0,0,0,1.39.2,6.66,6.66,0,0,0-1.26.62.14.14,0,0,0-.15,0c-.06,0-.14.32-.09.38a.52.52,0,0,0,.38.1.14.14,0,0,0,.07-.14,6.45,6.45,0,0,0,1.13-.83,6.08,6.08,0,0,0-.45,1.32.15.15,0,0,0-.11.11.54.54,0,0,0,.21.34.55.55,0,0,0,.34-.21.13.13,0,0,0,0-.14,7.08,7.08,0,0,0,.21-1.38A5.8,5.8,0,0,0,74.5,5a.12.12,0,0,0,0,.15.58.58,0,0,0,.39.09A.53.53,0,0,0,75,4.89c0-.06-.08-.08-.13-.07A6.32,6.32,0,0,0,74,3.7a6.12,6.12,0,0,0,1.33.44.14.14,0,0,0,.1.11A.54.54,0,0,0,75.78,4a.49.49,0,0,0-.2-.33.13.13,0,0,0-.15,0A6.13,6.13,0,0,0,74,3.55a6.66,6.66,0,0,0,1.26-.62.14.14,0,0,0,.15,0c.06,0,.14-.32.09-.38a.52.52,0,0,0-.38-.1.14.14,0,0,0-.07.14A6.45,6.45,0,0,0,74,3.42a6.08,6.08,0,0,0,.45-1.32A.15.15,0,0,0,74.52,2a.54.54,0,0,0-.21-.34.55.55,0,0,0-.34.21A.13.13,0,0,0,74,2a6.29,6.29,0,0,0-.21,1.38,5.8,5.8,0,0,0-.62-1.25.14.14,0,0,0,0-.15.53.53,0,0,0-.39-.09.53.53,0,0,0-.09.38c0,.06.08.08.13.07a6.74,6.74,0,0,0,.84,1.12A6.12,6.12,0,0,0,72.35,3a.14.14,0,0,0-.11-.11.54.54,0,0,0-.33.21A.49.49,0,0,0,72.11,3.45Zm1.7.1h0s0,0,0,0a0,0,0,0,1,0,0s0,0,0,0,0,0,0,0h0l0,0v0h0s0,0,0,0v0s0,0,0,0,0,0,0,0h0s0,0,0,0A0,0,0,0,1,73.81,3.55Z"/><path class="cls-1" d="M67.62,2.7a.13.13,0,0,0,.14-.05,7.22,7.22,0,0,0,1.4.09,6.77,6.77,0,0,0-1.2.71.14.14,0,0,0-.15,0,.48.48,0,0,0-.06.39.53.53,0,0,0,.39.06.16.16,0,0,0,.06-.14,6,6,0,0,0,1-.92,6.54,6.54,0,0,0-.34,1.36.12.12,0,0,0-.1.11.51.51,0,0,0,.24.32.55.55,0,0,0,.32-.23.14.14,0,0,0-.06-.14,6.54,6.54,0,0,0,.1-1.39,6.5,6.5,0,0,0,.71,1.2.12.12,0,0,0,0,.14.52.52,0,0,0,.39.07.5.5,0,0,0,.06-.39.12.12,0,0,0-.14-.06,6.42,6.42,0,0,0-.92-1.05,6.54,6.54,0,0,0,1.36.34.13.13,0,0,0,.12.09c.06,0,.3-.15.32-.23s-.17-.3-.24-.32a.15.15,0,0,0-.14.06,5.84,5.84,0,0,0-1.4-.09,6.37,6.37,0,0,0,1.21-.72.14.14,0,0,0,.15,0A.52.52,0,0,0,71,1.53a.49.49,0,0,0-.39-.06.11.11,0,0,0-.06.13,7.15,7.15,0,0,0-1.06.92,6.45,6.45,0,0,0,.35-1.35.13.13,0,0,0,.09-.11c0-.07-.15-.31-.23-.32s-.31.16-.32.23a.12.12,0,0,0,.06.14,6.54,6.54,0,0,0-.1,1.39,6.06,6.06,0,0,0-.72-1.2.14.14,0,0,0,0-.15.53.53,0,0,0-.39-.06.49.49,0,0,0-.06.39.13.13,0,0,0,.13.06,6.83,6.83,0,0,0,.93,1,6.26,6.26,0,0,0-1.36-.34.14.14,0,0,0-.12-.1c-.07,0-.31.15-.32.23A.55.55,0,0,0,67.62,2.7Zm1.7,0s0,0,0,0,0,0,0,0a0,0,0,0,0,0,0h0v0h0s0,0,0,0l0,0h0v0s0,0,0,0h0v0h0S69.33,2.68,69.32,2.67Z"/><path class="cls-1" d="M63.09,2.3a.12.12,0,0,0,.13-.06,6.68,6.68,0,0,0,1.4,0A7.27,7.27,0,0,0,63.48,3a.14.14,0,0,0-.15,0,.53.53,0,0,0,0,.39.51.51,0,0,0,.4,0,.15.15,0,0,0,0-.15,6.23,6.23,0,0,0,1-1,6.4,6.4,0,0,0-.23,1.37.14.14,0,0,0-.09.12c0,.07.18.3.26.3a.47.47,0,0,0,.3-.25.13.13,0,0,0-.07-.14,6.77,6.77,0,0,0,0-1.39,6.27,6.27,0,0,0,.81,1.14.11.11,0,0,0,0,.14.44.44,0,0,0,.39,0,.49.49,0,0,0,0-.39.13.13,0,0,0-.14,0,7,7,0,0,0-1-1,5.93,5.93,0,0,0,1.38.23.13.13,0,0,0,.12.09c.07,0,.3-.17.3-.26S66.61,2,66.55,2a.14.14,0,0,0-.14.06,6,6,0,0,0-1.4,0,6.44,6.44,0,0,0,1.14-.81.14.14,0,0,0,.15,0,.55.55,0,0,0,0-.4.53.53,0,0,0-.39,0,.12.12,0,0,0,0,.14,6.19,6.19,0,0,0-1,1A6.53,6.53,0,0,0,65.14.61a.16.16,0,0,0,.09-.13A.54.54,0,0,0,65,.18a.55.55,0,0,0-.3.26c0,.07,0,.11.07.13a6.85,6.85,0,0,0,0,1.4A5.8,5.8,0,0,0,63.94.83a.14.14,0,0,0,0-.15.55.55,0,0,0-.4,0,.53.53,0,0,0,0,.39.12.12,0,0,0,.14.05,6.16,6.16,0,0,0,1,1,6.5,6.5,0,0,0-1.39-.24.12.12,0,0,0-.12-.08.49.49,0,0,0-.3.25C62.82,2.08,63,2.3,63.09,2.3Zm1.69-.16h0v0h0s0,0,0,0h0l0,0s0,0,0,0v0l0,0a0,0,0,0,0,0,0v0h0A0,0,0,0,0,64.78,2.14Z"/></svg>